<svg height="18" viewBox="0 0 43 18" width="43" xmlns="http://www.w3.org/2000/svg"><path d="m41.8955 6.4844c-3.316-2.319-6.744-5.146-10.631-6.407-1.676-.544-3.236 1.906-1.79 3.075 1.262 1.021 2.569 2.029 3.893 3.022-3.56-.113-7.223.252-10.627.217-7.208-.076-14.428-.378-21.632-.021-1.479.073-1.478 2.217 0 2.297 11.346.615 22.721.397 34.055.903-1.217.691-2.47 1.328-3.691 2.027-2.079 1.19-3.956 2.381-4.225 4.921-.068.633.601 1.211 1.195 1.195 2.54-.064 4.677-1.886 6.861-3.013 2.527-1.303 4.938-2.609 7.07-4.514 1.213-1.085.691-2.885-.478-3.702" fill="#fff" fill-rule="evenodd"/></svg>