<svg height="200" viewBox="0 0 415 200" width="415" xmlns="http://www.w3.org/2000/svg"><g fill="none" fill-rule="evenodd"><path d="m322.9223 36.2354v.003c0 16.331 13.239 29.57 29.57 29.57h22.64c10.525 0 19.057 8.532 19.057 19.057 0 10.524-8.532 19.057-19.057 19.057h-32.407c-11.979 0-21.69 9.71-21.69 21.689v.004c0 11.98 9.711 21.691 21.69 21.691h45.722c14.138 0 25.598 11.46 25.598 25.597 0 14.138-11.46 25.599-25.598 25.599h-341.792c-21.323 0-38.61-17.287-38.61-38.61v-.009c0-21.324 17.287-38.61 38.61-38.61h77.323c16.569 0 30-13.432 30-30v-54.608c0-16.569 13.432-30 30-30h109.374c16.331 0 29.57 13.239 29.57 29.57" fill="#4f545c" fill-opacity=".3"/><path d="m231.8002 112.9742v7.8c0 6.263-3.06 11.811-7.749 15.275-.387 6.869-4.422 12.769-10.211 15.78l-10.867 45.674h32.102v-.977c0-3.455 2.582-6.311 5.916-6.759l12.823-53.897c-1.49-.417-2.591-1.768-2.591-3.383v-17.693c0-1.272.685-2.379 1.702-3 .462-.486 1.113-.792 1.839-.792h4.966l2.351-9.879h-1.979c-.53 0-1.047-.164-1.478-.47l-.467-.332c-.011-.008-.024-.013-.036-.02l-13.837-8.848c-1.02-.651-1.629-1.761-1.629-2.967 0-1.208.609-2.318 1.629-2.97l13.837-8.846c.011-.007.023-.012.033-.019l.118-.083-13.263-55.745-16.659 70.019c-.128.537-.668.871-1.204.741l-3.04 12.777v.44c4.285.263 7.694 3.823 7.694 8.174" fill="#36393e"/><path d="m34.099 197.503h12.912l-6.456-27.135z" fill="#36393e"/><path d="m95.6103 111.1851c5.756-5.756 7.587-26.43 7.955-31.502-5.073.367-25.747 2.198-31.503 7.954-3.321 3.32-5.094 7.973-4.846 12.661.178 3.344 1.198 8.33 3.506 10.882 2.666 2.946 9.183 4.882 13.114 4.882 4.447 0 8.629-1.732 11.774-4.877" fill="#72767d"/><path d="m372.5282 146.0167c2.724-4.44 5.98-8.596 9.757-12.373l1.415 1.414c-3.806 3.805-7.077 8.002-9.779 12.499 6.503 6.356 16.959 6.317 23.405-.129 5.759-5.758 7.588-26.431 7.954-31.503-5.07.367-25.746 2.198-31.502 7.955-6.042 6.042-6.454 15.606-1.25 22.137" fill="#4f545c"/><path d="m336.4911 197.4737c0-.004-.001-.008-.001-.012 0-2.773 1.675-5.16 4.066-6.21-.651-.273-1.365-.425-2.114-.425h-3.172c-3.021 0-5.479 2.458-5.479 5.479v1.141z" fill="#72767d"/><path d="m244.7548 191.6993h-2.853c-2.662 0-4.827 2.165-4.827 4.827v1.027l12.507-.05v-.977c0-2.662-2.165-4.827-4.827-4.827" fill="#36393e"/><path d="m351.4662 192.6798h-8.194c-2.637 0-4.782 2.146-4.782 4.782l17.717.041c.023 0 .041-.018.041-.041 0-2.636-2.145-4.782-4.782-4.782" fill="#4f545c"/><path d="m121.3984 185.5245v9.686c0 1.654 1.346 3 3 3h2.58c1.654 0 3-1.346 3-3v-9.686z" fill="#72767d"/><path d="m140.415 153.9742c-10.494 0-19-8.506-19-19v-1.39c-3.015-.315-5.636-1.976-7.249-4.369h-7.99c-9.185 0-16.632 7.447-16.632 16.632v49.363c0 1.657 1.343 3 3 3h2.579c1.657 0 3-1.343 3-3v-8.686c0-1.657 1.344-3 3-3h45.486c-1.257-1.247-2.039-2.971-2.039-4.877v-14.106c0-.552.448-1 1-1v-9.567z" fill="#4f545c"/><path d="m185.5234 195.21v-11.383c0-.434.284-.804.691-.952 4.263-1.544 7.125-5.602 7.125-10.105v-18.796h-47.769v9.567c.552 0 1 .448 1 1v14.106c0 2.678 2.169 4.859 4.843 4.877.566.004 1.034.435 1.034 1v10.686c0 1.657 1.344 3 3 3h2.58c1.657 0 3-1.343 3-3v-9.686c0-1.104.895-2 2-2h11.917c1.104 0 2 .896 2 2v9.686c0 1.657 1.343 3 3 3h2.579c1.657 0 3-1.343 3-3" fill="#72767d"/><path d="m144.5678 84.1744h-4.153c-8.719 0-15.918 6.601-16.882 15.066h8.991c.757-7.006 5.582-12.826 12.044-15.066m-12.1528 50.7998v-1.333h-9v1.333c0 9.374 7.626 17 17 17h4.154c-7.05-2.443-12.154-9.147-12.154-17" fill="#4f545c"/><path d="m183.9999 120.774v-7.8c0-2.635 1.439-4.945 3.566-6.2h-4.766c-3.419 0-6.2 2.781-6.2 6.2v7.8c0 9.374 7.626 17 17 17h2.553c-7.049-2.443-12.153-9.147-12.153-17" fill="#72767d"/><path d="m122.4638 131.6407h14.6c.552 0 1 .448 1 1s-.448 1-1 1h-4.649v1.333c0 7.854 5.105 14.557 12.154 17h60.538c8.533 0 15.597-6.326 16.799-14.531-2.706 1.484-5.808 2.331-9.106 2.331h-19.2c-10.476 0-19-8.523-19-19v-7.8c0-4.521 3.679-8.2 8.2-8.2h10.8c.552 0 1 .448 1 1h9.554c0-.552.448-1 1-1h16.953v-3.599c0-9.148-7.268-16.611-16.33-16.967-.097 1.68-.566 3.27-1.409 4.722-.278.479-.89.641-1.367.363-.017-.01-.026-.027-.042-.038-.445.621-.954 1.201-1.526 1.736.009.01.022.014.03.025.347.429.279 1.059-.151 1.405-1.92 1.549-4.405 2.767-7.184 3.524-2.077.566-4.231.856-6.317.856-.558 0-1.111-.021-1.656-.063-9.75-.746-18.587-4.265-25.553-10.176-.496-.421-1.003-.89-1.267-1.587-.102-.266-.14-.534-.152-.8h-14.615c-6.462 2.24-11.287 8.059-12.044 15.066h4.54c.552 0 1 .448 1 1s-.448 1-1 1h-14.6c-4.411 0-8 3.589-8 8v14.4c0 4.411 3.589 8 8 8" fill="#72767d"/><path d="m121.4638 110.2408v12.4c0 2.761 2.239 5 5 5h6.6c1.105 0 2-.896 2-2v-18.4c0-1.104-.895-2-2-2h-6.6c-2.761 0-5 2.238-5 5" fill="#4f545c"/><path d="m200.0317 124.6485h5.877c1.617 0 2.939 1.323 2.939 2.939s-1.322 2.938-2.939 2.938h-5.877c-1.617 0-2.939-1.322-2.939-2.938s1.322-2.939 2.939-2.939m16.424 0h3.526c1.616 0 2.939 1.323 2.939 2.939s-1.323 2.938-2.939 2.938h-3.526c-1.616 0-2.939-1.322-2.939-2.938s1.323-2.939 2.939-2.939m-22.856-17.875h-6.034c-2.127 1.255-3.566 3.565-3.566 6.201v7.799c0 7.854 5.105 14.557 12.154 17h16.647c9.374 0 17-7.625 17-17v-7.799c0-3.419-2.782-6.201-6.201-6.201h-18.445c-.553 0-1-.447-1-1h-9.555c0 .553-.447 1-1 1" fill="#b9bbbe"/><path d="m200.0317 130.5259h5.877c1.617 0 2.939-1.322 2.939-2.938 0-1.617-1.322-2.939-2.939-2.939h-5.877c-1.617 0-2.939 1.322-2.939 2.939 0 1.616 1.322 2.938 2.939 2.938m16.4238 0h3.526c1.617 0 2.939-1.322 2.939-2.938 0-1.617-1.322-2.939-2.939-2.939h-3.526c-1.616 0-2.939 1.322-2.939 2.939 0 1.616 1.323 2.938 2.939 2.938" fill="#4f545c"/><path d="m156.5522 51.754c.542.105.897.628.793 1.17-.091.479-.51.812-.98.812-.062 0-.125-.005-.187-.017-.317-.06-6.266-1.269-10.659-6.352-.512 1.292-.53 2.459-.049 3.567.712 1.636 2.601 3.147 5.182 4.146 4.393 1.699 9.003 1.969 12.981.758-.817-.761-1.733-1.872-2.124-2.346l-.12-.145c-.728-.873-1.376-1.776-2.002-2.65-1.471-2.054-2.862-3.994-5.092-5.266-1.324-.755-2.789-1.152-4.128-1.152-.66 0-1.289.096-1.855.294-.642.224-1.197.568-1.66 1.027 4.006 4.956 9.828 6.14 9.9 6.154" fill="#72767d"/><path d="m214.4799 19.9229c1.257.838 2.625.972 4.176.408-2.242-2.065-3.671-4.418-4.556-6.347-.231-.502-.011-1.096.491-1.327.501-.231 1.095-.011 1.326.492.854 1.859 2.287 4.149 4.554 6.089.467-.448.826-.987 1.067-1.618.649-1.696.387-3.997-.681-6.006-1.206-2.268-3.105-3.714-5.115-5.247-.854-.651-1.738-1.324-2.589-2.078l-.144-.126c-.462-.405-1.545-1.353-2.366-2.177-1.242 3.927-1.109 8.543.462 12.985.18.51-.082 1.062-.581 1.259.636 1.497 1.512 2.901 2.629 3.91.321-.401.891-.508 1.327-.217" fill="#4f545c"/><path d="m64.2143 159.5255c3.142.823 6.519-.406 8.396-3.06l7.464-10.547c.235-.333.122-.654.063-.776-.06-.122-.242-.408-.649-.428h-.001l-12.907-.623c-.124-.006-.249-.009-.373-.009-3.105 0-5.97 1.866-7.21 4.735-.909 2.104-.855 4.492.149 6.553 1.004 2.06 2.851 3.574 5.068 4.155" fill="#72767d"/><path d="m202.9584 89.255c-.438-.29-.588-.869-.32-1.329 1.392-2.398 1.538-5.172.436-8.246-.053-.147-.122-.285-.18-.428-4.538 2.991-9.811 5.028-15.494 5.911-.052.008-.104.011-.155.011-.484 0-.91-.352-.987-.846-.084-.546.289-1.057.835-1.142 5.466-.848 10.528-2.817 14.864-5.71-1.179-1.783-2.907-3.227-5.048-4.164-3.437-1.503-7.483-1.554-10.822-.135-1.795.762-3.442 1.772-5.186 2.841-.904.555-1.84 1.129-2.79 1.658-3.157 1.761-6.546 3.084-10.074 3.934-1.208.292-2.443.528-3.669.704l-.207.029c-.852.12-1.657.234-2.267.61-.466.286-.854.882-.69 1.312.095.252.381.509.691.771 6.644 5.637 15.085 8.993 24.412 9.708 2.358.181 4.88-.071 7.295-.729 2.515-.685 4.747-1.774 6.455-3.151.419-.339 1.025-.276 1.376.127.571-.535 1.081-1.115 1.525-1.736m49.7251 3.3466c0-1.726-1.412-3.131-3.147-3.131h-4.512c.097.111.206.214.337.298l6.883 4.401c.272-.463.439-.994.439-1.568" fill="#4f545c"/><path d="m254.3183 92.6016c0-2.623-2.146-4.757-4.782-4.757h-4.732c-.092.197-.149.411-.149.641 0 .374.135.715.37.985h4.511c1.736 0 3.147 1.405 3.147 3.131 0 .574-.167 1.105-.439 1.568l1.372.877c.436-.716.702-1.548.702-2.445" fill="#36393e"/><path d="m304.302 197.503h-1.907-4.567-1.906-4.528-1.906-4.192 1.749 23.982-3.064z" fill="#4f545c"/><path d="m308.2338 163.6783v22.714c0 1.923 1.149 3.574 2.792 4.327v-4.006c-.397-.46-.647-1.052-.647-1.706v-19.879c0-.654.25-1.245.647-1.705v-4.071c-1.643.753-2.792 2.403-2.792 4.326m-19.8052-98.5923v10.761h-1.906v-11.365c-.444-.173-.863-.354-1.227-.554v11.919h-2.023c.023.086.043.174.043.264h6.965v-8.492c0-.527.426-.953.953-.953s.953.426.953.953v8.492h2.305v-10.098c-2.185-.16-4.281-.466-6.063-.927" fill="#36393e"/><path d="m303.3485 151.3902c-.527 0-.954-.426-.954-.953v-12.378c0-.527.427-.953.954-.953s.953.426.953.953v12.378c0 .527-.426.953-.953.953zm-6.474 14.286c-.526 0-.953-.427-.953-.953v-26.664c0-.527.427-.953.953-.953.527 0 .953.426.953.953v26.664c0 .526-.426.953-.953.953zm4.855-28.157c-.267 0-.266-.413 0-.413s.266.413 0 .413zm6.504 6.729c0 .527-.426.953-.953.953s-.953-.426-.953-.953v-6.189c0-.527.426-.953.953-.953s.953.426.953.953zm-22.938-8.233v61.488h4.192v-52.348c0-.527.426-.953.953-.953s.953.426.953.953v52.348h4.528v-25.836c0-.527.427-.953.953-.953.527 0 .953.426.953.953v25.836h4.567v-15.67c0-.527.427-.953.954-.953s.953.426.953.953v15.67h3.661c.806-.931 1.861-1.64 3.064-2.013v-2.724c-2.719-.843-4.699-3.381-4.699-6.374v-22.714c0-2.992 1.98-5.531 4.699-6.374v-2.804c-3.85.898-6.725 4.346-6.725 8.457v13.071c0 .527-.426.953-.953.953s-.954-.426-.954-.953v-13.071c0-5.17 3.725-9.482 8.632-10.408v-6.628c-.524-1.088-.826-2.302-.826-3.589v-4.273c0-.482.362-.863.826-.927v-1.117z" fill="#36393e"/><g fill="#4f545c"><path d="m300.829 111.002h1.906v-9.878h-1.906z"/><path d="m308.602 101.1236h-1.906c.286 3.603 1.569 6.996 3.704 9.878h.626v-2.481c-1.353-2.241-2.19-4.753-2.424-7.397m-1.9825-29.6914v4.415h1.907v-4.415-6.516c-.527.152-1.084.296-1.701.426-.07.014-.137.001-.206.001zm-20.1596 33.1982c-.527 0-.953.426-.953.954 0 .526.426.953.953.953 1.401 0 2.542 1.139 2.542 2.541v1.924h1.906v-1.924c0-2.452-1.995-4.448-4.448-4.448m6.6728.4771v4.131c0 .527.426.953.953.953s.953-.426.953-.953v-4.131c0-1.623-.6-3.105-1.586-4.248h-2.965c-.035.014-.07.025-.105.038 1.616.716 2.75 2.331 2.75 4.21m-6.8813-3.9839h-.956v.705c.283-.279.609-.506.956-.705m8.2939-25.2769h1.853v-9.732c-.639-.022-1.275-.056-1.907-.102v10.098h.078c-.016-.063-.039-.123-.039-.191 0-.026.013-.048.015-.073m-2.3584-8.2275c0-.527-.427-.953-.954-.953-.526 0-.953.426-.953.953v8.492h1.907zm-5.6645 8.2275h1.906v-10.761c-.689-.177-1.327-.38-1.906-.604z"/><path d="m300.8295 74.0797c0 .527.426.954.953.954s.953-.427.953-.954v-9.356l2.905-.269c-.046-.499.272-.964.773-1.07 3.52-.74 4.613-1.738 4.613-2.018 0-.807-4.509-2.781-12.866-2.781s-12.865 1.974-12.865 2.781 4.508 2.782 12.865 2.782c.52 0 .933.401.982.909l1.687-.157zm-9.436 71.0752c0-.527-.426-.953-.953-.953s-.953.426-.953.953v52.348h1.906zm6.4345 26.5127c0-.527-.426-.954-.953-.954s-.953.427-.953.954v25.835h1.906zm0-33.608c0-.527-.426-.954-.953-.954s-.953.427-.953.954v26.663c0 .527.426.953.953.953s.953-.426.953-.953zm4.5669 24.898v13.07c0 .527.427.953.954.953.526 0 .953-.426.953-.953v-13.07c0-4.112 2.875-7.559 6.724-8.458v-1.951c-4.906.927-8.631 5.239-8.631 10.409m1.9068 18.8755c0-.527-.426-.953-.953-.953s-.954.426-.954.953v15.67h1.907z"/><path d="m306.3275 163.6783v22.714c0 2.993 1.98 5.531 4.699 6.374v-2.047c-1.643-.753-2.793-2.404-2.793-4.327v-22.714c0-1.923 1.15-3.573 2.793-4.326v-2.049c-2.719.844-4.699 3.383-4.699 6.375m1.6348 33.8247h3.064v-2.013c-1.203.373-2.258 1.082-3.064 2.013"/><path d="m310.3788 185.0069c0 .654.25 1.246.647 1.706v-23.29c-.397.46-.647 1.052-.647 1.706zm-6.0771-46.9473c0-.527-.426-.954-.953-.954s-.954.427-.954.954v12.377c0 .527.427.954.954.954s.953-.427.953-.954zm3.9321 0c0-.527-.426-.954-.953-.954s-.953.427-.953.954v6.188c0 .527.426.954.953.954s.953-.427.953-.954zm1.9663 0v4.272c0 1.287.302 2.501.826 3.59v-8.79c-.464.065-.826.446-.826.928"/></g><path d="m301.7294 137.106c-.266 0-.267.414 0 .414.266 0 .267-.414 0-.414" fill="#d5dbed"/><path d="m337.4506 113.5098c-.25-.159-.538-.244-.835-.244h-2.822l11.582 7.406c1.02.652 1.629 1.762 1.629 2.969s-.609 2.317-1.629 2.969l-11.583 7.405h2.823c.296 0 .585-.084.835-.244l13.837-8.846c.448-.288.705-.755.705-1.284s-.257-.997-.705-1.284zm-56.6279-34.3379h23.121c.451 0 .817.363.817.813 0 .449-.366.813-.817.813h-23.121c-.452 0-.817-.364-.817-.813 0-.45.365-.813.817-.813zm-18.724 8.673h3.285c.057 0 .11.015.168.016.056-.001.109-.016.167-.016h3.284c2.636 0 4.782 2.134 4.782 4.757 0 2.622-2.146 4.757-4.782 4.757h-3.284c-.058 0-.111-.015-.167-.017-.058.002-.111.017-.168.017h-3.285c-2.636 0-4.782-2.135-4.782-4.757 0-2.623 2.146-4.757 4.782-4.757zm14.918 0h2.96c.452 0 .818.364.818.813s-.366.813-.818.813h-2.96c-.452 0-.818-.364-.818-.813s.366-.813.818-.813zm-10.629-9.734h-6.354c-.297 0-.586.084-.836.244l-1.277.817h14.191c.452 0 .817.363.817.813 0 .449-.365.813-.817.813h-16.735l-10.015 6.403c-.254.163-.438.387-.558.644h4.732c2.637 0 4.783 2.134 4.783 4.757 0 .897-.266 1.728-.703 2.445l5.582 3.569c.25.16.54.244.836.244h6.354 8.295c1.512-.718 2.913-1.679 4.132-2.892 3.123-3.104 7.275-4.815 11.689-4.815h16.35.78 28.803v-5.748h-82.889c-.453 0-.818-.363-.818-.813 0-.449.365-.813.818-.813h82.889v-4.141c0-.842-.692-1.527-1.542-1.527z" fill="#4f545c"/><path d="m307.6332 92.7794h-.779c-3.979 0-7.721 1.542-10.534 4.339-.65.647-1.355 1.218-2.088 1.742h40.663c.85 0 1.541-.686 1.541-1.528v-.213h-29.985c-.452 0-.817-.363-.817-.813 0-.449.365-.813.817-.813h29.985v-2.714zm-45.5342 2.9531h.046c-.743-.839-1.21-1.927-1.21-3.131 0-1.203.467-2.292 1.21-3.131h-.046c-1.736 0-3.147 1.405-3.147 3.131s1.411 3.131 3.147 3.131m3.4522-.0171c1.656-.088 2.981-1.445 2.981-3.114s-1.325-3.025-2.981-3.114c-1.657.089-2.981 1.445-2.981 3.114s1.324 3.026 2.981 3.114m3.4516.0171c1.736 0 3.147-1.405 3.147-3.131s-1.411-3.131-3.147-3.131h-.046c.743.839 1.21 1.928 1.21 3.131 0 1.204-.467 2.292-1.21 3.131zm30.7085-2.9531h-9.208c-3.979 0-7.719 1.542-10.533 4.339-.649.645-1.346 1.223-2.08 1.742h13.142c1.512-.718 2.913-1.679 4.132-2.892 1.343-1.335 2.884-2.395 4.547-3.189" fill="#4f545c"/><path d="m307.6332 91.1534h-.779-16.35c-4.415 0-8.566 1.71-11.69 4.815-1.219 1.213-2.619 2.174-4.131 2.892h3.207c.734-.519 1.431-1.097 2.08-1.742 2.814-2.798 6.555-4.339 10.534-4.339h9.207c-1.662.794-3.203 1.854-4.547 3.189-1.219 1.213-2.62 2.174-4.132 2.892h3.2c.733-.524 1.438-1.095 2.088-1.742 2.813-2.798 6.555-4.339 10.534-4.339h.779 28.803v-1.626zm-54.0859-7.374c-.452 0-.818.364-.818.813 0 .45.366.813.818.813h82.889v-1.626zm8.5517 5.6914h.046c-.743.839-1.21 1.927-1.21 3.131 0 1.203.467 2.292 1.21 3.131h-.046c-1.736 0-3.147-1.405-3.147-3.131s1.411-3.131 3.147-3.131m3.452.017c1.656.088 2.981 1.445 2.981 3.114s-1.325 3.025-2.981 3.114c-1.657-.089-2.981-1.445-2.981-3.114s1.324-3.026 2.981-3.114m3.405-.017h.047c1.736 0 3.147 1.405 3.147 3.131s-1.411 3.131-3.147 3.131h-.047c.744-.839 1.211-1.928 1.211-3.131 0-1.204-.467-2.292-1.211-3.131m-6.857 7.888h3.284c.058 0 .111-.015.168-.017.057.002.11.017.168.017h3.284c2.636 0 4.782-2.135 4.782-4.757 0-2.623-2.146-4.757-4.782-4.757h-3.284c-.058 0-.111.015-.168.017-.057-.002-.11-.017-.168-.017h-3.284c-2.636 0-4.782 2.134-4.782 4.757 0 2.622 2.146 4.757 4.782 4.757m18.7237-16.5609h23.121c.451 0 .817-.364.817-.813 0-.45-.366-.813-.817-.813h-23.121c-.452 0-.817.363-.817.813 0 .449.365.813.817.813m-8.711 0c.452 0 .817-.364.817-.813 0-.45-.365-.813-.817-.813h-14.191l-2.544 1.626zm41.0362-4.9512h-2.122v-11.911c-.668.364-1.496.693-2.5.981v10.93h-1.906v-10.503c-.462-.002-.88-.304-.979-.775-.008-.039.003-.076-.001-.115l-2.904.27v9.356c0 .527-.426.954-.953.954s-.953-.427-.953-.954v-9.179l-1.688.157c.003.031.019.059.019.091 0 .552-.448 1-1 1-.586 0-1.175-.014-1.763-.034v9.732h-1.853c-.002.025-.014.047-.014.073 0 .068.023.128.039.191h18.65c-.032-.085-.057-.173-.072-.264m-12.3179 35.1553h1.906v-9.878h-1.906zm-9.922 0h-1.907v-1.923c0-1.403-1.14-2.542-2.541-2.542-.527 0-.953-.426-.953-.953s.426-.954.953-.954c2.453 0 4.448 1.997 4.448 4.449zm20.118-2.481v-7.397h.586c.012-.089.034-.177.063-.264h-18.222c.985 1.142 1.586 2.624 1.586 4.247v4.132c0 .527-.426.953-.953.953s-.953-.426-.953-.953v-4.132c0-1.879-1.135-3.493-2.751-4.209.035-.013.071-.025.106-.038h-7.697c.032.085.055.173.069.264h3.391c-.346.198-.673.425-.956.704v9.174h-1.214c.022.087.036.175.041.264h27.264c.006-.089.019-.177.041-.264h-1.027c-2.135-2.883-3.418-6.275-3.704-9.878h1.906c.234 2.644 1.071 5.155 2.424 7.397z" fill="#36393e"/><path d="m306.4516 95.4932c-.452 0-.817.364-.817.813 0 .45.365.813.817.813h29.985v-1.626zm-29.4351-6.0224h2.96c.452 0 .818-.364.818-.813s-.366-.813-.818-.813h-2.96c-.452 0-.817.364-.817.813s.365.813.817.813" fill="#36393e"/><path d="m286.3134 117.981c-.452 0-.817-.364-.817-.813 0-.45.365-.813.817-.813h17.551c.451 0 .817.363.817.813 0 .449-.366.813-.817.813zm32.958 2.439c.453 0 .818.364.818.813 0 .45-.365.813-.818.813h-23.12c-.452 0-.817-.363-.817-.813 0-.449.365-.813.817-.813zm-23.965 8.673c.451 0 .817.364.817.813 0 .45-.366.813-.817.813h-2.961c-.451 0-.817-.363-.817-.813 0-.449.366-.813.817-.813zm-30.441 0c2.636 0 4.782 2.135 4.782 4.757 0 .057-.015.109-.017.165h3.032c-.002-.056-.016-.108-.016-.165 0-2.622 2.146-4.757 4.781-4.757h3.285c.057 0 .111.015.167.017.058-.002.111-.017.168-.017h3.285c2.636 0 4.781 2.135 4.781 4.757 0 .057-.014.109-.016.165h9.62c2.196-1.044 4.609-1.613 7.116-1.613h16.349.779 9.643l8.989-5.748h-72.717c-.452 0-.818-.364-.818-.813s.366-.813.818-.813h75.261l.161-.104c.449-.287.706-.755.706-1.283 0-.53-.257-.997-.706-1.285l-6.843-4.375h-26.778c-.452 0-.818-.364-.818-.813 0-.45.366-.813.818-.813h24.234l-4.45-2.845c-.249-.159-.538-.244-.835-.244h-67.873-6.988c-.85 0-1.542.686-1.542 1.528v1.561h27.483c.451 0 .817.363.817.813 0 .449-.366.813-.817.813h-27.483v2.439h34.217c.452 0 .818.364.818.813 0 .45-.366.813-.818.813h-34.217v2.982h9.884c.452 0 .817.364.817.813s-.365.813-.817.813h-9.884v2.439z" fill="#4f545c"/><path d="m254.7651 134.0152h6.989 6.241c.003-.056.017-.108.017-.165 0-1.726-1.412-3.131-3.147-3.131h-11.642v1.768c0 .842.692 1.528 1.542 1.528m22.7094-3.2959h-.047c-1.735 0-3.147 1.405-3.147 3.131 0 .057.014.109.017.165h1.982c-.002-.056-.015-.109-.015-.165 0-1.204.466-2.292 1.21-3.131m6.8574 0h-.047c.744.839 1.211 1.927 1.211 3.131 0 .056-.014.109-.016.165h1.982c.003-.056.017-.108.017-.165 0-1.726-1.412-3.131-3.147-3.131m-3.4521.0166c-1.656.089-2.981 1.445-2.981 3.114 0 .056.013.11.016.165h5.93c.003-.055.016-.109.016-.165 0-1.669-1.325-3.025-2.981-3.114" fill="#4f545c"/><path d="m311.8666 136.0152c-.113.089-.232.171-.343.264h1.503 1.28c.146-.091.294-.179.443-.264zm11.0952-3.6133h-.779-16.35c-2.506 0-4.919.569-7.116 1.613h30.909c.297 0 .586-.084.836-.244l2.142-1.369zm-58.0967-1.6826c1.735 0 3.147 1.405 3.147 3.131 0 .057-.014.109-.017.165h1.635c.002-.056.017-.108.017-.165 0-2.623-2.146-4.757-4.782-4.757h-11.642v1.626zm-1.7578-4.0654c.452 0 .817-.364.817-.813s-.365-.813-.817-.813h-9.884v1.626zm5.7686-1.626c-.452 0-.817.364-.817.813s.365.813.817.813h72.718l2.543-1.626zm14.4194 11.251h1.507c.052-.083.087-.177.133-.264h-1.962c-.094.097-.2.181-.305.264zm1.0366-7.1861h-3.285c-.057 0-.11.015-.167.017-.057-.002-.111-.017-.168-.017h-3.284c-2.636 0-4.782 2.135-4.782 4.757 0 .057.015.109.017.165h1.635c-.004-.055-.017-.108-.017-.165 0-1.726 1.411-3.131 3.147-3.131h.047c-.745.839-1.211 1.928-1.211 3.131 0 .056.014.109.016.165h1.635c-.003-.055-.016-.109-.016-.165 0-1.669 1.325-3.025 2.981-3.114 1.656.089 2.981 1.445 2.981 3.114 0 .056-.013.11-.016.165h1.635c.002-.056.016-.109.016-.165 0-1.203-.467-2.292-1.211-3.131h.047c1.735 0 3.147 1.405 3.147 3.131 0 .057-.014.11-.017.165h1.635c.002-.056.017-.108.017-.165 0-2.622-2.146-4.757-4.782-4.757m11.8199-8.6728c-.452 0-.818.364-.818.813 0 .45.366.813.818.813h23.12c.452 0 .817-.363.817-.813 0-.449-.365-.813-.817-.813zm-8.711 1.626c.452 0 .817-.363.817-.813 0-.449-.365-.813-.817-.813h-34.217v1.626zm-6.7348-4.065c.452 0 .817-.364.817-.813 0-.45-.365-.813-.817-.813h-27.482v1.626zm23.1582 0c.452 0 .817-.364.817-.813 0-.45-.365-.813-.817-.813h-17.551c-.452 0-.817.363-.817.813 0 .449.365.813.817.813zm6.813-1.6264c-.452 0-.817.364-.817.813 0 .45.365.813.817.813h26.778l-2.544-1.626zm-19.149 13.5517c0 .449.366.813.817.813h2.961c.451 0 .817-.364.817-.813 0-.45-.366-.813-.817-.813h-2.961c-.451 0-.817.363-.817.813m49.2676-30.5503h-3v-22.246h3c1.657 0 3 1.343 3 3v16.246c0 1.657-1.343 3-3 3" fill="#36393e"/><g fill="#202225"><path d="m107.3237 54.5469.778 3.27c.109.459.519.768.972.768.076 0 .154-.009.231-.027h.001c.537-.128.869-.667.741-1.204l-.778-3.27c-.127-.537-.667-.872-1.204-.741-.537.127-.869.667-.741 1.204"/><path d="m356.2074 197.503-17.717-.041c0-2.637 2.145-4.782 4.782-4.782h8.194c2.637 0 4.782 2.145 4.782 4.782 0 .022-.019.041-.041.041zm-19.716-.029-6.7-.028v-1.14c0-3.022 2.458-5.48 5.479-5.48h3.171c.749 0 1.464.153 2.115.426-2.391 1.05-4.066 3.437-4.066 6.21 0 .004.001.008.001.012zm-21.438.029c-1.12 0-2.027-.907-2.027-2.027v-35.337l8.889 37.364zm-4.027-3c0 1.657-1.343 3-3 3h-19.731c-1.657 0-3-1.343-3-3v-54.486c0-1.105.895-2 2-2h21.731c1.104 0 2 .895 2 2zm-33.111-60.488h-1.636-1.982-1.635-3.032-1.635-6.242-6.988c-.85 0-1.542-.685-1.542-1.528v-1.768-1.626-2.439-1.626-2.982-1.626-2.439-1.626-1.561c0-.842.692-1.528 1.542-1.528h6.988 67.872c.298 0 .587.085.836.244l4.45 2.845 2.544 1.626 6.843 4.376c.449.287.706.754.706 1.284 0 .529-.257.996-.706 1.283l-.161.104-2.544 1.626-8.99 5.748-2.141 1.369c-.251.16-.54.244-.837.244h-30.908-9.62-1.635-1.983-1.635zm5.38 61.461c0 1.231-1.098 2.206-2.367 2-.997-.162-1.687-1.099-1.687-2.109v-1.203c0-.553-.448-1-1-1s-1 .447-1 1v1.312c0 1.12-.908 2.027-2.027 2.027h-23.632v-.977c0-3.77-3.057-6.827-6.828-6.827h-1.692l12.772-53.684h22.461c2.761 0 5 2.239 5 5zm-33.713 2.027-12.507.05v-1.027c0-2.662 2.165-4.827 4.826-4.827h2.853c2.662 0 4.828 2.165 4.828 4.827zm14.461-96.643h2.344 13.908c1.657 0 3 1.343 3 3v7.406h-21.542-.014zm46.983 4v6.406h-25.731v-6.406c0-2.209 1.791-4 4-4h17.731c2.209 0 4 1.791 4 4zm-50.992-6c-.297 0-.586-.085-.836-.244l-5.582-3.569-1.372-.877-6.883-4.401c-.131-.084-.24-.187-.337-.298-.234-.271-.369-.611-.369-.986 0-.229.057-.443.149-.64.119-.257.303-.481.557-.644l10.015-6.403 2.544-1.626 1.278-.817c.249-.16.538-.244.836-.244h6.353 68.508c.85 0 1.541.685 1.541 1.527v4.141 1.626 5.748 1.626 2.714 1.627.212c0 .842-.691 1.528-1.541 1.528h-40.663-3.2-13.142-3.207-8.296zm10.639-25.212 9.914-41.673c.245-1.025 1.703-1.025 1.946 0l6.096 25.622c-3.132.779-5.334 2.017-5.334 3.77v11.744c0 1.657-1.343 3-3 3h-7.676c-1.292 0-2.245-1.206-1.946-2.463zm27.487-15.062c8.358 0 12.866 1.974 12.866 2.781 0 .28-1.093 1.278-4.612 2.018-.502.105-.82.571-.774 1.069.003.039-.008.076.001.115.099.471.516.773.978.774.069 0 .136.014.206-.001.617-.13 1.174-.274 1.701-.425 1.004-.289 1.831-.617 2.5-.981v8.173c0 1.105-.896 2-2 2h-21.731c-1.105 0-2-.895-2-2v-8.181c.364.2.784.381 1.227.554.579.224 1.217.426 1.906.604 1.782.461 3.879.767 6.063.927.632.046 1.268.08 1.907.101.588.021 1.177.035 1.762.035.552 0 1-.448 1-1 0-.033-.016-.06-.018-.091-.049-.508-.462-.909-.982-.909-8.357 0-12.865-1.975-12.865-2.782s4.508-2.781 12.865-2.781zm39.912 19.525h3.176c.85 0 1.542.685 1.542 1.527v17.694c0 .842-.692 1.528-1.542 1.528h-3.176c.226-.464.364-.978.364-1.528v-17.694c0-.549-.138-1.063-.364-1.527zm-1.457 35.155c.297 0 .586.085.835.244l13.837 8.847c.448.287.706.754.706 1.284 0 .529-.258.996-.706 1.283l-13.837 8.847c-.249.16-.538.244-.835.244h-2.823l11.583-7.406c1.02-.651 1.629-1.761 1.629-2.968s-.609-2.317-1.629-2.969l-11.582-7.406zm-140.437 84.237h-.13c-1.387 0-2.353-1.378-1.88-2.682l.542-1.494c.188-.519-.08-1.093-.599-1.281-.517-.185-1.092.081-1.281.6l-1.283 3.539c-.287.791-1.038 1.318-1.881 1.318h-2.726c.36-.69.583-1.462.583-2.293v-9.43c0-.724.388-1.4 1.027-1.74 2.403-1.28 4.343-3.311 5.526-5.773.016-.035.033-.069.049-.103.118-.25.228-.503.33-.761.026-.067.048-.135.074-.203.141-.379.264-.765.369-1.16.047-.176.097-.35.136-.528.036-.163.064-.327.093-.491.043-.232.078-.464.107-.699.017-.135.035-.27.047-.406.034-.379.058-.761.058-1.146v-14.796c0-2.209 1.791-4 4-4h5.767c2.264 0 4.426-.418 6.441-1.148l-9.532 40.066c-.643 2.703-3.058 4.611-5.837 4.611zm-10.655-13.676v11.383c0 1.657-1.343 3-3 3h-2.579c-1.657 0-3-1.343-3-3v-9.686c0-1.104-.896-2-2-2h-11.917c-1.105 0-2 .896-2 2v9.686c0 1.657-1.343 3-3 3h-2.58c-1.656 0-3-1.343-3-3v-10.686c0-.566-.468-.996-1.034-1-2.674-.018-4.843-2.199-4.843-4.877v-14.106c0-.552-.448-1-1-1s-1 .448-1 1v14.106c0 1.906.782 3.63 2.038 4.877h-45.485c-1.657 0-3 1.343-3 3v8.686c0 1.657-1.343 3-3 3h-2.58c-1.656 0-3-1.343-3-3v-49.363c0-9.185 7.447-16.632 16.633-16.632h6.528c.884 0 1.703.408 2.291 1.068 1.614 1.813 3.877 3.035 6.42 3.302v1.389c0 10.494 8.506 19 19 19h5.155 45.769c1.104 0 2 .896 2 2v16.796c0 4.503-2.862 8.56-7.124 10.105-.408.148-.692.518-.692.952zm-23.079 13.676c.36-.69.583-1.462.583-2.293v-7.686c0-1.104.895-2 2-2h7.917c1.104 0 2 .896 2 2v7.686c0 .831.223 1.603.583 2.293zm-19.968-3.843-1.935-8.136h7.906c1.105 0 2 .896 2 2v7.686c0 .831.223 1.603.583 2.293h-3.69c-2.315 0-4.328-1.59-4.864-3.843zm-11.081 3.843c.359-.69.583-1.462.583-2.293v-7.686c0-1.104.895-2 2-2h4.507l2.85 11.979zm-1.417-2.293c0 1.657-1.344 3-3 3h-2.58c-1.657 0-3-1.343-3-3v-8.686c0-.552.448-1 1-1h6.58c.552 0 1 .448 1 1zm-30.438 2.293c.36-.69.583-1.462.583-2.293v-6.686c0-1.657 1.343-3 3-3h14.275c1.104 0 2 .896 2 2v7.686c0 .831.223 1.603.583 2.293zm14.923-88.262c0-4.419 3.582-8 8-8h14.6c.553 0 1-.448 1-1s-.447-1-1-1h-4.54-6.568c-1.321 0-2.283-1.26-1.935-2.534 1.965-7.213 8.567-12.533 16.395-12.533h4.152 14.616c.011.266.049.535.151.801.264.697.771 1.166 1.267 1.587 6.967 5.91 15.803 9.429 25.553 10.176.545.042 1.098.062 1.656.062 2.086 0 4.24-.29 6.317-.855 2.779-.757 5.264-1.975 7.185-3.524.43-.346.497-.976.15-1.406-.008-.01-.021-.014-.029-.024-.351-.404-.957-.466-1.376-.127-1.708 1.377-3.94 2.466-6.455 3.151-2.415.658-4.937.91-7.295.729-9.327-.715-17.768-4.071-24.412-9.708-.31-.262-.596-.519-.691-.771-.164-.43.224-1.026.69-1.312.61-.376 1.415-.49 2.267-.61l.207-.029c1.226-.176 2.461-.412 3.669-.704 3.528-.85 6.917-2.173 10.074-3.934.95-.529 1.886-1.103 2.79-1.658 1.744-1.069 3.391-2.079 5.186-2.841 3.339-1.419 7.385-1.368 10.822.135l.069.031c2.994 1.32 2.986 5.539.009 6.898-3.077 1.405-6.403 2.403-9.894 2.945-.546.085-.919.596-.835 1.142.077.494.503.846.987.846.051 0 .103-.004.155-.011 5.683-.883 10.956-2.92 15.494-5.911.009.003.012.004.022.007 1.271 3.242 1.177 6.16-.278 8.667-.268.46-.118 1.039.32 1.329.016.011.025.028.042.038.478.277 1.09.115 1.367-.363.281-.484.521-.984.719-1.497.768-1.99 2.853-3.138 4.896-2.525 7.004 2.097 12.124 8.588 12.124 16.266v1.6c0 1.104-.896 2-2 2h-14.952c-.552 0-1 .448-1 1s.448 1 1 1h18.446c3.424 0 6.2 2.776 6.2 6.2v7.8c0 9.389-7.612 17-17 17h-16.647-2.553c-9.389 0-17-7.611-17-17v-7.8c0-3.424 2.775-6.2 6.2-6.2h4.765 6.035c.552 0 1-.448 1-1s-.448-1-1-1h-10.8c-4.529 0-8.2 3.671-8.2 8.2v7.8c0 10.494 8.506 19 19 19h19.2c2.587 0 5.053-.521 7.303-1.462.792-.332 1.595.377 1.365 1.204-1.991 7.174-8.563 12.458-16.362 12.458h-60.538-4.153c-5.075 0-9.63-2.223-12.745-5.748-3.994-4.521-1.229-11.701 4.739-12.584l.006-.001h4.648c.553 0 1-.448 1-1 0-.553-.447-1-1-1h-14.6c-4.418 0-8-3.582-8-8zm-50.962 88.262h-.225v-7-10-5.98-13.201c.144.045.284.099.431.138.817.214 1.646.317 2.469.317h.07c2.92-.021 5.14 2.583 4.464 5.424zm-4.356-42.133c-1.003-2.06-1.057-4.449-.148-6.552 1.24-2.869 4.105-4.735 7.21-4.735.124 0 .249.003.373.009l12.907.623h.001c.407.019.589.306.649.428.059.122.172.442-.063.775l-7.465 10.548c-1.877 2.654-5.253 3.882-8.395 3.059-2.217-.58-4.065-2.095-5.069-4.155zm-14.666 42.133h-7.849c-1.292 0-2.244-1.206-1.945-2.463l4.897-20.583c.244-1.025 1.702-1.025 1.945 0l4.898 20.583c.299 1.257-.654 2.463-1.946 2.463zm-.722-70.103c-.39-.39-1.023-.39-1.413.001-.391.391-.39 1.024 0 1.414 3.601 3.602 6.718 7.557 9.333 11.783.43.696.313 1.601-.265 2.18l-.012.013c-6.492 6.491-17.056 6.492-23.548 0-5.387-5.387-7.336-23.838-7.866-30.341-.05-.616.458-1.123 1.073-1.073 6.503.528 24.952 2.477 30.341 7.865 4.78 4.78 6.034 11.764 3.773 17.707-.528 1.391-2.41 1.59-3.244.356-2.376-3.518-5.103-6.836-8.172-9.905zm14.433-36.482c-.803 1.308-2.697 1.287-3.451-.051-2.947-5.234-6.618-10.103-10.982-14.467-.39-.39-1.023-.39-1.413.001-.391.391-.39 1.024 0 1.414 3.413 3.413 6.39 7.144 8.913 11.122 2.346 3.698.117 8.564-4.216 9.201-5.027.738-10.327-.819-14.189-4.681-3.467-3.467-5.51-12.344-6.667-19.965-.912-6.003 4.273-11.158 10.276-10.246 7.615 1.157 16.642 3.04 19.939 6.663 7.657 8.418 4.357 16.831 1.79 21.009zm13.871-3.281c5.086-5.086 21.821-7.108 29.147-7.763 1.241-.111 2.276.924 2.165 2.166-.655 7.325-2.677 24.059-7.763 29.145-3.145 3.145-7.327 4.877-11.774 4.877-2.915 0-5.712-.749-8.179-2.151-1.985-1.128-2.553-3.766-1.269-5.653 2.099-3.086 4.479-6.01 7.13-8.741.38-.392.381-1.013-.005-1.399-.395-.394-1.042-.393-1.431.007-1.961 2.022-3.778 4.147-5.447 6.363-2.036 2.702-6.361 1.744-7.07-1.565-1.145-5.342.353-11.143 4.496-15.286zm282.829 78.425c-1.571-2.209-3.314-4.317-5.228-6.303-.388-.402-1.038-.402-1.433-.007v.001c-.385.385-.383 1.003-.005 1.396 1.664 1.726 3.656 4.969 5.039 7.395 1.121 1.964.395 4.477-1.613 5.52-5.071 2.635-11.482 1.827-15.732-2.423-3.983-3.983-5.655-16.835-6.248-23.107-.118-1.251.926-2.295 2.177-2.177 6.272.591 19.122 2.262 23.107 6.247 3.488 3.488 4.649 8.427 3.497 12.889-.42 1.627-2.587 1.938-3.561.569zm14.025-30.721c.075-4.159 1.695-8.294 4.863-11.462 5.085-5.085 21.814-7.107 29.141-7.762 1.244-.112 2.281.925 2.169 2.169-.654 7.327-2.675 24.054-7.762 29.142-5.012 5.011-12.445 6.149-18.561 3.423-2.913-1.299-3.928-4.921-2.076-7.518 1.895-2.658 4.004-5.189 6.318-7.573.381-.392.382-1.013-.005-1.399v-.001c-.395-.394-1.042-.393-1.43.007-1.336 1.377-2.604 2.802-3.803 4.271-3.001 3.673-8.939 1.445-8.854-3.297zm-.576 24.169c1.666-4.786 6.817-7.58 11.653-6.065 1.806.566 3.682.851 5.56.851 4.776 0 9.552-1.818 13.188-5.454 7.083-7.083 8.553-32.843 8.612-33.936.015-.284-.091-.561-.291-.761-.201-.202-.482-.305-.762-.292-1.092.059-26.853 1.53-33.935 8.612-5.792 5.792-6.959 14.47-3.52 21.436 1.333 2.702 1.499 5.829.216 8.555-4.114 8.745-6.293 18.357-6.293 28.309v1.488c-.983-3.348-2.289-6.583-3.896-9.676-.481-.925-.457-2.016.051-2.927 3.284-5.883 2.44-13.465-2.554-18.46-5.851-5.851-27.022-7.059-27.92-7.108-.28-.013-.56.091-.761.292-.201.2-.307.477-.292.761.049.898 1.258 22.069 7.109 27.92 3.014 3.014 6.973 4.521 10.932 4.521 2.852 0 5.703-.782 8.201-2.345 1.535-.961 3.562-.293 4.245 1.383 1.753 4.298 4.453 11.541 4.885 16.309v1.97c0 1.441-1.169 2.61-2.61 2.61h-1.913c0-.014.004-.027.004-.041 0-3.739-3.042-6.782-6.782-6.782h-8.113c-1.315-1.151-3.031-1.854-4.912-1.854h-3.171c-4.131 0-7.479 3.349-7.479 7.479v1.141c0 .02.005.037.006.057h-.003c-2.241 0-4.189-1.539-4.708-3.72l-8.702-36.577c-.903-3.791-1.358-7.676-1.358-11.573v-4.618c0-2.761 2.239-5 5-5h18.589c.677 0 1.341-.194 1.912-.559l13.735-8.781c.795-.507 1.418-1.28 1.632-2.198.355-1.514-.277-3.005-1.53-3.805l-13.836-8.847c-.571-.365-1.235-.559-1.912-.559h-5.93c.023.011-.197.023-.563.035-.165-.023-.331-.035-.498-.035h-16.599v-7.406c0-1.657 1.343-3 3-3h18.869c.026 0 .051-.005.078-.006.284.004.62.006 1.031.006h5.244c1.948 0 3.542-1.594 3.542-3.542v-17.68c0-1.948-1.58-3.527-3.528-3.527h-5.257c-.412 0-.746.002-1.025.006-.028-.001-.056-.006-.085-.006h-18.869c-1.657 0-3-1.343-3-3v-11.744c0-3.285-7.706-4.781-14.866-4.781-.862 0-1.732.021-2.595.066-2.906.149-5.52-1.745-6.194-4.576l-6.838-28.741c-.107-.451-.51-.769-.972-.769-.463 0-.866.318-.973.769l-11.644 48.941c-.431 1.814-1.815 3.31-3.634 3.715-2.654.59-5.161-1.058-5.767-3.566l-13.562-56.154c-.107-.451-.509-.768-.972-.768s-.866.317-.973.768l-17.632 74.108c-.128.538.204 1.077.741 1.205.537.129 1.077-.205 1.205-.742l13.74-57.753c.732-3.073 5.106-3.073 5.837 0l10.344 43.479-.117.083c-.01.007-.023.012-.033.019l-13.734 8.78c-.794.508-1.417 1.279-1.633 2.197-.356 1.513.277 3.006 1.53 3.807l13.837 8.847c.017.011.036.016.051.032.411.423 1.056.526 1.646.526l2.17.001-1.61 7.271c-.405 1.831-2.029 3.135-3.905 3.135h-1.708c-.677 0-1.303.2-1.841.529-1.016.621-1.701 1.728-1.701 2.999v17.693c0 1.616 1.101 2.966 2.59 3.383l-12.822 53.898c-3.334.447-5.916 3.303-5.916 6.758v.977h-32.102l10.867-45.673c5.788-3.012 9.824-8.912 10.211-15.781 4.689-3.463 7.749-9.012 7.749-15.275v-7.8c0-4.35-3.409-7.91-7.694-8.174v-.44-3.186c0-9.379-6.836-17.175-15.785-18.706-1.457-.249-2.692-1.272-3.112-2.69-.075-.256-.16-.514-.252-.773-.114-.315-.25-.619-.388-.922 2.328-1.73 4.435-3.725 6.264-5.964.349-.428.285-1.058-.143-1.408-.427-.349-1.058-.285-1.407.143-.772.945-1.596 1.846-2.469 2.698-1.489 1.455-3.87 1.629-5.432.252-1.061-.936-2.294-1.721-3.672-2.324-3.931-1.72-8.569-1.774-12.405-.144-1.931.82-3.72 1.917-5.449 2.977-.899.552-1.799 1.104-2.719 1.616-2.998 1.673-6.218 2.93-9.569 3.737-1.147.277-2.319.502-3.484.668l-.203.029c-.97.137-2.07.292-3.036.887-.372.229-.713.551-.994.924h-19.436c-9.841 0-17.955 7.52-18.905 17.115-.488.047-.962.136-1.427.25l-8.237-34.622c-.129-.538-.669-.87-1.204-.742-.538.128-.87.667-.742 1.204l8.288 34.835c-3.378 1.607-5.725 5.043-5.725 9.027v14.4c0 .154.004.308.011.46.081 1.7-1.288 3.114-2.991 3.114h-3.307c-10.291 0-18.633 8.342-18.633 18.632v49.363c0 .831.224 1.603.583 2.293h-22.569l9.697-40.761c.131-.548.365-1.066.691-1.527l5.681-8.028c.461-.652.697-1.465.537-2.247-.261-1.278-1.34-2.163-2.579-2.223l-1.998-.097-10.909-.526c-.371-.017-.74-.013-1.104.012-1.215.083-2.204-.939-2.12-2.154.658-9.481 3.357-18.557 7.889-26.723 1.791 1.623 3.843 2.863 6.058 3.679 2.795 1.028 4.309 4.065 3.62 6.963l-2.438 10.247c-.128.537.204 1.077.741 1.204.077.019.155.028.232.028.453 0 .863-.309.972-.769l3.937-16.55c4.745-.156 9.187-2.058 12.56-5.432 7.082-7.082 8.553-32.843 8.612-33.935.015-.284-.091-.561-.291-.762-.201-.201-.476-.31-.762-.291-.447.024-5.022.285-10.756 1.069l8.646-36.341c.244-1.024 1.702-1.024 1.945 0l1.248 5.24c.127.537.666.869 1.203.741h.001c.537-.127.869-.667.741-1.204l-3.193-13.417c-.106-.451-.509-.769-.972-.769s-.866.318-.973.769l-9.265 38.942c-.893 3.755-3.87 6.655-7.646 7.461-6.115 1.306-12.046 3.253-14.915 6.121-6.999 7-7.241 18.212-.766 25.528-2.929 5.168-5.159 10.691-6.605 16.461v-4.689c0-7.417-3.101-19.926-4.631-25.641-.473-1.771-.099-3.65.991-5.126 5.388-7.294 4.781-17.657-1.822-24.261-7.083-7.082-32.843-8.553-33.936-8.612-.286-.017-.561.091-.761.291-.201.201-.307.478-.292.762.059 1.092 1.53 26.853 8.612 33.935 3.637 3.636 8.412 5.454 13.188 5.454 2.256 0 4.509-.413 6.642-1.23 2.562-.982 5.462.401 6.371 2.99 2.388 6.797 3.638 14.02 3.638 21.438v18.82c0 .631-.293 1.231-.806 1.598-.409.292-.797.616-1.159.967-.984.958-2.587.731-3.209-.495-.164-.321-.329-.641-.498-.959-.493-.933-.479-2.047.059-2.955 4.229-7.151 3.29-16.532-2.849-22.671-7.083-7.082-32.843-8.553-33.936-8.612-.283-.012-.56.09-.761.291s-.307.478-.292.762c.059 1.092 1.53 26.853 8.612 33.936 3.637 3.636 8.412 5.454 13.188 5.454s9.553-1.819 13.189-5.454c.207-.208.388-.431.584-.646 1.076 1.965 2.049 3.981 2.911 6.044.142.339.173.71.126 1.073-.243 1.887.061 3.822.913 5.57.52 1.069 1.229 2.011 2.069 2.811 1.223 5.002 1.859 10.185 1.859 15.466v5.98 10 7h-.522c-.966 0-1.795-.691-1.967-1.644l-.554-3.051c-.098-.543-.62-.904-1.162-.806-.543.099-.904.619-.805 1.163l.358 1.982c.223 1.227-.72 2.356-1.967 2.356h-2.431c-1.852 0-3.462-1.272-3.892-3.074l-6.807-28.613c-.107-.451-.509-.769-.972-.769s-.866.318-.973.769l-6.808 28.613c-.428 1.802-2.038 3.074-3.891 3.074h-3.091c-.668 0-1.209-.542-1.209-1.21v-.467c0-.552-.448-1-1-1s-1 .448-1 1v.467c0 .668-.542 1.21-1.21 1.21s-1.209-.542-1.209-1.21v-3.307c0-.552-.448-1-1-1-.553 0-1 .448-1 1v3.307c0 .668-.542 1.21-1.21 1.21h-15.955c-.552 0-1 .447-1 1s.448 1 1 1h63.292 224.019 34.871 6.666 8.684 5.333 12.343 32.609c.553 0 1-.447 1-1s-.447-1-1-1h-12.267c-.789 0-1.374-.734-1.196-1.503l.371-1.611c.124-.538-.212-1.075-.75-1.199-.536-.123-1.075.21-1.199.75l-.602 2.611c-.129.557-.625.952-1.196.952-.678 0-1.228-.55-1.228-1.228v-3.293c0-.553-.447-1-1-1-.552 0-1 .447-1 1v3.293c0 .678-.549 1.228-1.227 1.228h-.003c-1.393 0-2.531-1.095-2.602-2.486-.037-.722-.087-1.441-.15-2.157v-12.095c0-7.351 1.226-14.512 3.572-21.255zm26.64 37.993h-1.634c-.552 0-1 .447-1 1s.448 1 1 1h1.634c.552 0 1-.447 1-1s-.448-1-1-1"/><path d="m145.4355 50.8511c-.526-1.28 1.082-2.348 2.138-1.453 3.994 3.389 8.335 4.27 8.605 4.321.062.012.125.017.187.017.47 0 .888-.333.98-.812.104-.542-.252-1.065-.793-1.17-.066-.012-4.933-1.003-8.829-4.955-.663-.672-.435-1.835.446-2.174.047-.018.095-.036.143-.052.566-.198 1.195-.294 1.855-.294 1.338 0 2.804.397 4.128 1.152 2.23 1.272 3.62 3.212 5.092 5.266.626.874 1.274 1.777 2.002 2.65l.119.145c.391.474 1.307 1.585 2.124 2.346-3.978 1.211-8.588.941-12.981-.758-2.581-.999-4.469-2.51-5.181-4.146-.012-.028-.023-.056-.035-.083m-2.46-9.817c-.511.208-.757.792-.548 1.303.494 1.211 1.085 2.293 1.735 3.267-.182.315-.351.643-.493.996-.72 1.798-.732 3.524-.033 5.131 1.264 2.907 4.486 4.514 6.294 5.214 2.813 1.089 5.717 1.639 8.526 1.639 1.99 0 3.933-.276 5.759-.833.654-.199 1.149-.711 1.323-1.369.173-.654-.002-1.339-.468-1.831-.755-.799-1.673-1.912-2.019-2.332l-.126-.152v-.001c-.681-.816-1.307-1.689-1.912-2.534-1.533-2.139-3.117-4.35-5.727-5.839-2.501-1.427-5.355-1.803-7.633-1.009-.814.284-1.531.715-2.152 1.267-.45-.729-.87-1.506-1.222-2.37-.209-.511-.791-.759-1.304-.547m67.5195-24.787c.011-.004.019-.013.029-.018.499-.196.761-.749.58-1.258-1.57-4.442-1.703-9.058-.461-12.985.821.824 1.904 1.772 2.366 2.177l.144.126c.851.753 1.735 1.427 2.589 2.078 2.01 1.532 3.909 2.979 5.115 5.247 1.068 2.008 1.329 4.31.681 6.006l-.009.023c-.366.949-1.587 1.165-2.288.429-1.573-1.649-2.636-3.426-3.324-4.924-.231-.502-.825-.722-1.326-.491-.502.231-.722.824-.492 1.326.698 1.518 1.73 3.299 3.232 4.995.589.666.119 1.747-.768 1.684-.732-.053-1.422-.299-2.083-.739-.436-.291-1.006-.184-1.327.217-.018.023-.044.036-.06.06-.306.46-.182 1.08.277 1.387 1.078.718 2.262 1.08 3.504 1.079.813 0 1.651-.154 2.5-.466.36-.132.695-.293 1.017-.467.952.681 2.013 1.306 3.208 1.835.131.058.269.086.404.086.384 0 .749-.222.915-.595.223-.505-.005-1.096-.51-1.32-.855-.378-1.613-.825-2.329-1.296.568-.603 1.02-1.306 1.327-2.11.861-2.253.569-5.116-.784-7.659-1.411-2.653-3.575-4.302-5.668-5.898-.826-.629-1.679-1.279-2.475-1.984l-.152-.134c-.409-.358-1.494-1.308-2.268-2.084-.479-.48-1.156-.678-1.816-.521-.663.154-1.189.633-1.408 1.281-1.471 4.362-1.335 9.442.384 14.304.184.52.753.795 1.276.609m-71.9414 6.4234h1.51v1.51c0 .552.448 1 1 1 .553 0 1-.448 1-1v-1.51h1.51c.552 0 1-.448 1-1s-.448-1-1-1h-1.51v-1.51c0-.552-.447-1-1-1-.552 0-1 .448-1 1v1.51h-1.51c-.552 0-1 .448-1 1s.448 1 1 1m65.6714 31.0659h1.51v1.51c0 .552.448 1 1 1 .553 0 1-.448 1-1v-1.51h1.51c.552 0 1-.448 1-1s-.448-1-1-1h-1.51v-1.51c0-.552-.447-1-1-1-.552 0-1 .448-1 1v1.51h-1.51c-.552 0-1 .448-1 1s.448 1 1 1m143.4434-18.8052h1.51v1.51c0 .552.448 1 1 1s1-.448 1-1v-1.51h1.51c.552 0 1-.448 1-1s-.448-1-1-1h-1.51v-1.51c0-.552-.448-1-1-1s-1 .448-1 1v1.51h-1.51c-.552 0-1 .448-1 1s.448 1 1 1m-164.7837-8.5674c.256 0 .512-.098.707-.293l1.183-1.184c.391-.39.391-1.023 0-1.414-.39-.39-1.024-.39-1.414 0l-1.183 1.184c-.391.391-.391 1.024 0 1.414.195.195.451.293.707.293m-5.9165 5.9161c.256 0 .512-.098.707-.293l1.184-1.183c.39-.39.39-1.024 0-1.414-.391-.391-1.024-.391-1.414 0l-1.184 1.183c-.391.39-.391 1.023 0 1.414.195.195.451.293.707.293m6.3926-.293c.195.195.451.293.707.293s.512-.098.707-.293c.391-.391.391-1.023 0-1.414l-1.183-1.183c-.391-.391-1.023-.391-1.414 0-.391.39-.391 1.023 0 1.414zm-5.9161-5.916c.195.195.451.293.707.293s.512-.098.707-.293c.391-.391.391-1.023 0-1.414l-1.184-1.184c-.39-.39-1.023-.39-1.414 0-.39.391-.39 1.024 0 1.414zm-15.6455 94.3696c2.475 0 4.5-2.025 4.5-4.5s-2.025-4.5-4.5-4.5-4.5 2.025-4.5 4.5 2.025 4.5 4.5 4.5"/></g></g></svg>