<svg id="layer" xmlns="http://www.w3.org/2000/svg" viewBox="0 0 800 600"><defs><style>.cls-1{fill:transparent;}.cls-2{fill:#a26bb4;}.cls-3{fill:#4b0062;}.cls-4{fill:#f48001;}.cls-5{fill:#f44b1b;}</style></defs><title>Halloween Ghost</title><rect class="cls-1" width="800" height="600"/><rect class="cls-2" x="439.65" y="397.03" width="37.28" height="70.78" transform="translate(-112.38 165.3) rotate(-18.25)"/><path class="cls-3" d="M451.36,472.5l-.16-.48-22.33-67.7,36.35-12,.16.48,22.33,67.7ZM430.14,405,452,471.24l34.45-11.36L464.59,393.6Z"/><rect class="cls-2" x="389.39" y="405.09" width="37.28" height="70.78"/><path class="cls-3" d="M427.17,476.37H388.89V404.59h38.28Zm-37.28-1h36.28V405.59H389.89Z"/><rect class="cls-1" x="389.39" y="440.48" width="37.28" height="22.98"/><path class="cls-3" d="M427.17,464H388.89V440h38.28Zm-37.28-1h36.28V441H389.89Z"/><rect class="cls-1" x="443.25" y="431.84" width="37.28" height="22.98" transform="translate(-115.62 166.98) rotate(-18.25)"/><path class="cls-3" d="M447.47,460.71,440,437.94l36.35-12,7.51,22.77Zm-6.25-22.14,6.88,20.87,34.45-11.36-6.88-20.87Z"/><rect class="cls-3" x="389.39" y="445.42" width="37.28" height="4.44"/><path class="cls-3" d="M427.17,450.36H388.89v-5.44h38.28Zm-37.28-1h36.28v-3.44H389.89Z"/><rect class="cls-3" x="441.9" y="437" width="37.28" height="4.44" transform="translate(-114.4 166.35) rotate(-18.25)"/><path class="cls-3" d="M443.21,447.79l-1.7-5.17,36.35-12,1.7,5.16Zm-.44-4.53,1.08,3.26,34.45-11.36-1.08-3.26Z"/><path class="cls-1" d="M297.33,267.12H407L350.09,403.73l-74.43-90.85C260.68,294.59,273.69,267.12,297.33,267.12Z"/><path class="cls-3" d="M350.23,404.69l-75-91.5a28.51,28.51,0,0,1,22.05-46.57H407.77l-.29.69Zm-52.9-137.07A27.51,27.51,0,0,0,276,312.56l73.9,90.21,56.32-135.15Z"/><path class="cls-1" d="M487,141.89a20.57,20.57,0,0,0-18.9-17.33h0a20.57,20.57,0,0,0-22,21.21l1.4,41.73A44.32,44.32,0,0,0,420,178.67h0a44.47,44.47,0,0,0-42.87,36.42L337.59,430.3H532.27Z"/><path class="cls-3" d="M532.85,430.8H337l.11-.59L376.67,215A45.12,45.12,0,0,1,420,178.17a44.44,44.44,0,0,1,27,8.33l-1.37-40.71a21.07,21.07,0,0,1,41.87-4Zm-194.67-1h193.5L486.49,142a20.07,20.07,0,0,0-39.88,3.79L448,188.53l-.83-.62A43.54,43.54,0,0,0,420,179.17a44.12,44.12,0,0,0-42.39,36Z"/><line class="cls-1" x1="454.48" y1="395.04" x2="451.9" y2="318.36"/><rect class="cls-3" x="452.69" y="318.34" width="1" height="76.73" transform="matrix(1, -0.03, 0.03, 1, -11.72, 15.42)"/><path class="cls-1" d="M449.88,258l-3.77-112.27a20.57,20.57,0,0,1,22-21.21h0A20.57,20.57,0,0,1,487,141.89"/><path class="cls-3" d="M449.38,258.06l-3.77-112.27a21.07,21.07,0,0,1,41.87-4l-1,.15a20.07,20.07,0,0,0-39.88,3.79L450.38,258Z"/><line class="cls-1" x1="488.63" y1="381.61" x2="493.07" y2="430.3"/><rect class="cls-3" x="490.35" y="381.51" width="1" height="48.89" transform="translate(-34.83 46.24) rotate(-5.21)"/><line class="cls-1" x1="361.73" y1="430.3" x2="380.32" y2="329.23"/><rect class="cls-3" x="319.64" y="379.27" width="102.76" height="1" transform="translate(-69.82 675.64) rotate(-79.54)"/><circle class="cls-3" cx="399.03" cy="222.71" r="8.63"/><path class="cls-3" d="M399,231.84a9.13,9.13,0,1,1,9.13-9.13A9.14,9.14,0,0,1,399,231.84Zm0-17.26a8.13,8.13,0,1,0,8.13,8.13A8.14,8.14,0,0,0,399,214.58Z"/><circle class="cls-3" cx="430.54" cy="222.71" r="8.63"/><path class="cls-3" d="M430.54,231.84a9.13,9.13,0,1,1,9.13-9.13A9.14,9.14,0,0,1,430.54,231.84Zm0-17.26a8.13,8.13,0,1,0,8.13,8.13A8.14,8.14,0,0,0,430.54,214.58Z"/><circle class="cls-2" cx="584.9" cy="250.84" r="7.2"/><circle class="cls-2" cx="571.06" cy="278.56" r="4.12"/><circle class="cls-2" cx="524.93" cy="137.34" r="6.45"/><circle class="cls-2" cx="314.75" cy="215.45" r="5.85"/><rect class="cls-3" x="531.77" y="184.59" width="1" height="23.99"/><rect class="cls-3" x="520.27" y="196.09" width="24" height="1"/><rect class="cls-3" x="531.77" y="187.84" width="1" height="17.5" transform="translate(16.89 433.95) rotate(-45)"/><rect class="cls-3" x="523.52" y="196.09" width="17.5" height="1" transform="translate(16.89 433.95) rotate(-45)"/><ellipse class="cls-3" cx="532.27" cy="180.61" rx="1.4" ry="1.95"/><ellipse class="cls-3" cx="532.27" cy="212.57" rx="1.4" ry="1.95"/><ellipse class="cls-3" cx="548.25" cy="196.59" rx="1.95" ry="1.4"/><ellipse class="cls-3" cx="516.29" cy="196.59" rx="1.95" ry="1.4"/><rect class="cls-3" x="286.6" y="413.58" width="1" height="18.19"/><rect class="cls-3" x="278" y="422.17" width="18.19" height="1"/><rect class="cls-3" x="286.6" y="416.04" width="1" height="13.27" transform="translate(-214.79 326.81) rotate(-45)"/><rect class="cls-3" x="280.47" y="422.17" width="13.27" height="1" transform="translate(-214.79 326.81) rotate(-45)"/><ellipse class="cls-3" cx="299.21" cy="422.67" rx="1.48" ry="1.06"/><ellipse class="cls-3" cx="274.98" cy="422.67" rx="1.48" ry="1.06"/><rect class="cls-3" x="291.27" y="152.76" width="1" height="15.09"/><rect class="cls-3" x="287.1" y="159.81" width="9.35" height="1"/><rect class="cls-3" x="304.18" y="164.33" width="1" height="9.44"/><rect class="cls-3" x="301.76" y="168.55" width="5.85" height="1"/><rect class="cls-3" x="557.02" y="347" width="1" height="9.44"/><rect class="cls-3" x="554.6" y="351.22" width="5.85" height="1"/><circle class="cls-2" cx="212.86" cy="402.12" r="4.96"/><circle class="cls-2" cx="227.85" cy="420.86" r="2.88"/><path class="cls-3" d="M275.36,385.57c-24,0-43.54-19.77-43.54-44.08s19.53-44.08,43.54-44.08,43.54,19.77,43.54,44.08S299.37,385.57,275.36,385.57Zm0-87.16c-23.45,0-42.54,19.33-42.54,43.08s19.08,43.08,42.54,43.08,42.54-19.33,42.54-43.08S298.82,298.41,275.36,298.41Z"/><path class="cls-4" d="M318.39,341.49c0,24.07-19.26,43.58-43,43.58s-43-19.51-43-43.58a44.27,44.27,0,0,1,.93-9.06h84.21A44.27,44.27,0,0,1,318.39,341.49Z"/><path class="cls-3" d="M275.36,385.57c-24,0-43.54-19.77-43.54-44.08a44.9,44.9,0,0,1,.94-9.16l.08-.4h85l.08.4a44.9,44.9,0,0,1,.94,9.16C318.89,365.79,299.37,385.57,275.36,385.57Zm-41.7-52.64a44,44,0,0,0-.84,8.56c0,23.75,19.08,43.08,42.54,43.08s42.53-19.33,42.53-43.08a44,44,0,0,0-.84-8.56Z"/><path class="cls-4" d="M305.41,341.49c0,24.07-13.45,43.58-30,43.58s-30.05-19.51-30.05-43.58a62.23,62.23,0,0,1,.65-9.06h58.8A62.23,62.23,0,0,1,305.41,341.49Z"/><path class="cls-3" d="M275.36,385.57c-16.85,0-30.55-19.77-30.55-44.08a62.9,62.9,0,0,1,.66-9.13l.06-.43H305.2l.06.43a62.85,62.85,0,0,1,.66,9.13C305.91,365.79,292.21,385.57,275.36,385.57Zm-29-52.64a62,62,0,0,0-.58,8.56c0,23.75,13.26,43.08,29.55,43.08s29.55-19.33,29.55-43.08a62.08,62.08,0,0,0-.58-8.56Z"/><polygon class="cls-3" points="261.39 340.3 255.31 350.84 267.48 350.84 261.39 340.3"/><polygon class="cls-3" points="289.34 340.3 283.25 350.84 295.42 350.84 289.34 340.3"/><path class="cls-3" d="M301.78,351.31a26.51,26.51,0,0,1-26.42,24.14c-.75,0-1.49,0-2.23-.1a25.81,25.81,0,0,1-7-1.53,26.31,26.31,0,0,1-17.24-22.5,28.06,28.06,0,0,0,8.79,8.29,31.82,31.82,0,0,0,6.95,3.17,33.87,33.87,0,0,0,9.23,1.62c.48,0,1,0,1.45,0a35.41,35.41,0,0,0,5.5-.43,33.48,33.48,0,0,0,6.65-1.74,31.68,31.68,0,0,0,7-3.63A28.14,28.14,0,0,0,301.78,351.31Z"/><path class="cls-4" d="M264.68,362.78v2.46h-6.95v-5.63A31.82,31.82,0,0,0,264.68,362.78Z"/><path class="cls-4" d="M280.86,364v3h-7V364.4c.48,0,1,0,1.45,0A35.41,35.41,0,0,0,280.86,364Z"/><path class="cls-4" d="M294.47,358.64v4.92h-7v-1.29A31.68,31.68,0,0,0,294.47,358.64Z"/><path class="cls-4" d="M288.29,369.65v2.46a26.06,26.06,0,0,1-7,2.66v-5.12Z"/><path class="cls-4" d="M273.13,370.25v5.1a25.81,25.81,0,0,1-7-1.53v-3.57Z"/><path class="cls-5" d="M405.18,463.46V460a4.18,4.18,0,0,0-4.18-4.18H389.39v4.52a15.61,15.61,0,0,0-14.21,15.54h51.49V463.46Z"/><path class="cls-3" d="M427.17,476.37H374.68v-.5a16,16,0,0,1,14.21-16v-4.57H401a4.68,4.68,0,0,1,4.68,4.68v3h21.49Zm-51.48-1h50.48V464H404.68v-4a3.68,3.68,0,0,0-3.68-3.68H389.89v4.47l-.46,0A15,15,0,0,0,375.69,475.37Z"/><path class="cls-5" d="M487.08,460.19l-3.89-11.79-20.41,6.73-1.09-3.3a4.18,4.18,0,0,0-5.27-2.66l-11,3.64,1.41,4.29a15.61,15.61,0,0,0-8.63,19.21l27.47-9.06h0Z"/><path class="cls-3" d="M437.86,477l-.16-.48a16,16,0,0,1,8.49-19.64l-1.43-4.34,11.5-3.79a4.68,4.68,0,0,1,5.91,3l.93,2.82,20.41-6.73,4.2,12.74ZM446,453.14l1.4,4.25-.42.18a15,15,0,0,0-8.5,18.12l47.94-15.81L482.87,449l-20.41,6.73L461.22,452a3.68,3.68,0,0,0-4.64-2.34Z"/><path class="cls-2" d="M361.83,146.43q2.81-.4,4.85,2.93t.19,5.8q4.36-1.75,6,3.07t-6.37,9q-5.28-8.67-10.94-17.81A14.39,14.39,0,0,1,361.83,146.43Zm-2,4.41,3.06,4.72q3.15-2.19,1.87-4.6T359.8,150.83Zm4.36,7.56,2.66,4.58q4.1-2.82,3-4.91T364.16,158.39Z"/><path class="cls-2" d="M382.06,153.93q-2.5,3.26-5.91,1.75a11,11,0,0,1-5.4-5.77q-2-4.26.08-7.32a5.08,5.08,0,0,1,5.79-2.23q3.72.83,5.83,5.57T382.06,153.93ZM380,151.17a4.41,4.41,0,0,0,0-4.35,5.16,5.16,0,0,0-3.47-3.13,2.43,2.43,0,0,0-3.2,1.73A4.89,4.89,0,0,0,374,150a5.4,5.4,0,0,0,3.2,2.62A2.61,2.61,0,0,0,380,151.17Z"/><path class="cls-2" d="M394.16,146.71q-2.5,3.26-5.91,1.75a11,11,0,0,1-5.4-5.77q-2-4.26.08-7.32a5.08,5.08,0,0,1,5.79-2.23q3.72.83,5.83,5.57T394.16,146.71ZM392.1,144a4.41,4.41,0,0,0,0-4.35,5.16,5.16,0,0,0-3.47-3.13,2.43,2.43,0,0,0-3.2,1.73,4.89,4.89,0,0,0,.63,4.6,5.39,5.39,0,0,0,3.2,2.62A2.61,2.61,0,0,0,392.1,144Z"/><path class="cls-2" d="M402,136.93q-3.89-6.32-7.12-11.31l2.92-1.94q3.92,7.46,6.36,11.88Zm2.4,4.9q-1.18-1.75-2-3l3.05-2,1.75,3.26Z"/><rect class="cls-3" x="274.86" y="332.43" width="1" height="52.64"/></svg>