<svg id="layer" xmlns="http://www.w3.org/2000/svg" viewBox="0 0 800 600"><defs><style>.cls-1{fill:transparent;}.cls-2{fill:#4b0062;}.cls-3{fill:#f44b1b;}.cls-4{fill:#f48001;}.cls-5{fill:#a26bb4;}</style></defs><title>Halloween Castle</title><rect class="cls-1" width="800" height="600"/><polygon class="cls-2" points="169.7 394.69 121.48 398.81 124.09 396.36 164.4 391.4 169.7 394.69"/><path class="cls-2" d="M120.09,399.44l3.77-3.55.16,0,40.49-5,6.73,4.17Zm4.22-2.6-1.44,1.36,45.29-3.88-3.87-2.4Z"/><ellipse class="cls-3" cx="405.99" cy="299.2" rx="218.43" ry="216.27"/><rect class="cls-2" x="523.24" y="309.56" width="40.34" height="1" transform="translate(172.84 814.16) rotate(-83.39)"/><rect class="cls-2" x="262.56" y="255.68" width="1" height="21.69" transform="translate(-32.81 36.97) rotate(-7.57)"/><rect class="cls-2" x="583.93" y="375.58" width="1" height="21.25" transform="translate(-110.8 472) rotate(-40.49)"/><rect class="cls-2" x="197.5" y="306.15" width="1" height="26.91" transform="translate(-72.36 58.35) rotate(-14.2)"/><rect class="cls-2" x="139.71" y="353.33" width="1" height="40.57" transform="translate(-239.79 251.77) rotate(-51.65)"/><rect class="cls-2" x="178.55" y="357.48" width="1" height="45.84" transform="translate(-101.86 67.59) rotate(-16.72)"/><polygon class="cls-2" points="168.8 446.16 168.66 446.1 146.17 436.28 146.57 435.37 168.92 445.12 172.79 444.41 172.97 445.4 168.8 446.16"/><polygon class="cls-2" points="223.36 321.28 247.06 297.62 230.57 321.28 215.8 380.58 223.36 410.8 254.45 384.94 254.45 397.93 224.63 419.78 237.68 466.22 264.49 444.91 263.27 452.68 240.14 474.94 250.73 517.07 187.56 517.07 213.81 503.45 226.02 473.61 223.36 466.79 206.42 465.37 223.36 457.59 220.91 444.91 204.71 444.91 177.71 458.83 196.75 444.91 172.88 444.91 194.76 440.46 218.68 438.65 214.18 402.76 179.13 405.73 156.12 386.2 180.27 397.93 212.67 396.59 205 360.03 187.56 351.55 172.6 332.93 201.02 352.36 201.3 332.65 213.24 372.58 223.36 321.28"/><path class="cls-2" d="M251.37,517.57H185.51l27.91-14.48,12.07-29.49L223,467.26l-18.53-1.55,18.32-8.41-2.3-11.89H204.83l-26.89,13.87-.52-.85,17.8-13H172.88l-.1-1L194.67,440l23.46-1.78-4.38-34.89L179,406.24l-.16-.13-26-22.09,27.6,13.4,31.68-1.31-7.5-35.75-17.39-8.51-17.07-21.25,30.44,20.8.32-22,12.29,41.12L222.9,321l23.8-23.76.76.64L231,321.49l-14.73,59.09,7.34,29.33,31.3-26v14.31L225.2,420,238,465.36l27.22-21.64-1.44,9.21-.12.12L240.7,475.1Zm-61.77-1h60.48l-10.5-41.79,23.22-22.34,1-6.35-26.39,21-13.35-47.5,29.9-21.9V386l-30.88,25.69-7.79-31.12L230.16,321l13.27-19-19.61,19.58-10.49,53.13-11.58-38.75-.25,17.39-26.4-18,12.78,15.9,17.56,8.54,0,.24,7.79,37.14-33.11,1.37-.11-.05-20.6-10,19.85,16.83,35.32-3,4.63,36.89L194.8,441l-17,3.44h20.43l-15.09,11,21.39-11h16.73l2.61,13.47L208.35,465l15.36,1.29,2.84,7.3-.08.18-12.28,30-.16.08Z"/><polygon class="cls-2" points="316.65 517.07 262.42 517.07 260.06 497.19 255.68 460.21 244.27 363.86 298.49 363.86 316.65 517.07"/><path class="cls-2" d="M317.21,517.57H262l-6.79-57.3L243.7,363.36h55.23l.05.44Zm-54.35-1h53.22L298,364.36H244.83Z"/><path class="cls-4" d="M269.59,497.19h-9.53l-4.38-37c4.91.64,10.66,12.9,13,27.92A84.58,84.58,0,0,1,269.59,497.19Z"/><path class="cls-2" d="M270.11,497.69h-10.5l-4.51-38.06.64.08c5.16.67,11.06,13.12,13.42,28.34a85,85,0,0,1,.92,9.11Zm-9.61-1h8.56a84.86,84.86,0,0,0-.89-8.48c-2.16-13.89-7.38-25.76-11.92-27.34Z"/><polygon class="cls-5" points="299.79 451.24 242.82 451.24 233.6 423.58 299.79 423.58 299.79 451.24"/><path class="cls-2" d="M300.29,451.74H242.46l-9.55-28.66h67.38Zm-57.11-1h56.11V424.08h-65Z"/><path class="cls-4" d="M285.07,400.24a44.39,44.39,0,0,1-.46,6.37H268.51a44.38,44.38,0,0,1-.46-6.37c0-10.86,3.81-19.66,8.51-19.66S285.07,389.39,285.07,400.24Z"/><path class="cls-2" d="M285,407.11h-17l-.06-.43a44.79,44.79,0,0,1-.46-6.44c0-11.31,4-20.17,9-20.17s9,8.86,9,20.17a44.79,44.79,0,0,1-.46,6.44Zm-16.11-1h15.24a43.91,43.91,0,0,0,.39-5.87c0-10.39-3.67-19.17-8-19.17s-8,8.78-8,19.17A43.91,43.91,0,0,0,268.94,406.11Z"/><rect class="cls-2" x="276.06" y="380.58" width="1" height="26.03"/><rect class="cls-2" x="268.4" y="394.18" width="16.33" height="1"/><path class="cls-5" d="M264.49,277.27c-3,39.58-18,72.81-41.12,93.31H332.83C303.75,350.08,279.07,316.85,264.49,277.27Z"/><path class="cls-2" d="M334.41,371.08H222l1-.87c23.41-20.77,38-53.79,41-93l.18-2.29.79,2.15c14.45,39.22,38.66,72.27,68.17,93.07Zm-109.75-1h106.6c-28.57-20.59-52.08-52.61-66.47-90.54C261.45,317.46,247.26,349.49,224.67,370.08Z"/><polygon class="cls-1" points="359.9 137.13 380.18 137.13 382.81 145.06 403.93 150.87 376.29 152.39 375.63 146.3 359.9 146.59 359.9 137.13"/><path class="cls-2" d="M375.84,152.92l-.65-6.11-15.78.29V136.63h21.14l2.67,8L407,151.2Zm.24-7.13.65,6.08,24.11-1.33-18.41-5.06-2.61-7.85H360.4v8.45Z"/><rect class="cls-2" x="359.4" y="137.03" width="1" height="45.99"/><rect class="cls-2" x="350.74" y="199.38" width="18.33" height="75.56"/><path class="cls-2" d="M369.57,275.45H350.24V198.88h19.33Zm-18.33-1h17.33V199.88H351.24Z"/><path class="cls-5" d="M359.9,172c-3.25,13.74-10.58,25.27-20.22,32.38h40.43C370.48,197.22,363.15,185.69,359.9,172Z"/><path class="cls-2" d="M381.64,204.83H338.17l1.22-.9c9.71-7.17,16.82-18.57,20-32.1l.49-2.05.49,2.05c3.2,13.53,10.31,24.93,20,32.1Zm-40.47-1h37.47c-8.84-7-15.42-17.47-18.74-29.84C356.59,186.36,350,196.85,341.17,203.83Z"/><polygon class="cls-2" points="405.3 249.75 405.3 265.68 386.97 265.68 386.97 249.75 369.07 249.75 369.07 265.68 350.74 265.68 350.74 249.75 332.83 249.75 332.83 265.68 332.83 313.52 332.83 351.55 423.2 351.55 423.2 313.52 423.2 265.68 423.2 249.75 405.3 249.75"/><path class="cls-2" d="M423.7,352H332.33V249.25h18.9v15.92h17.33V249.25h18.9v15.92H404.8V249.25h18.9Zm-90.37-1H422.7V250.25H405.8v15.92H386.47V250.25h-16.9v15.92H350.24V250.25h-16.9Z"/><rect class="cls-2" x="336.42" y="216.17" width="1" height="39.6"/><rect class="cls-2" x="488.87" y="180.03" width="1" height="37.22"/><rect class="cls-2" x="466.87" y="270.68" width="45" height="171.35"/><path class="cls-2" d="M512.37,442.53h-46V270.18h46Zm-45-1h44V271.18h-44Z"/><polygon class="cls-2" points="569.01 409.73 556.29 517.07 502.06 517.07 514.78 409.73 569.01 409.73"/><path class="cls-2" d="M556.73,517.57H501.49l12.84-108.34h55.24Zm-54.11-1h53.22l12.6-106.34H515.22Z"/><path class="cls-5" d="M541.1,330.1c-13.87,40.73-39.18,74.93-70,96H591.33C564.84,405,546.58,370.84,541.1,330.1Z"/><path class="cls-2" d="M592.76,426.64H469.47l1.33-.91c31.29-21.41,56.08-55.42,69.83-95.78l.69-2,.28,2.11c5.42,40.33,23.2,74.32,50,95.71Zm-120.08-1H589.92c-26-21.23-43.32-54.27-49-93.41C527.15,371.36,503,404.42,472.68,425.64Z"/><rect class="cls-2" x="349.79" y="367.52" width="127.1" height="47.11"/><path class="cls-5" d="M477.39,415.13H349.29V367h128.1Zm-127.1-1h126.1V368H350.29Z"/><path class="cls-4" d="M389.34,393a22.64,22.64,0,0,1-.53,4.88H370a22.64,22.64,0,0,1-.53-4.88c0-8.32,4.43-15.07,9.91-15.07S389.34,384.73,389.34,393Z"/><path class="cls-2" d="M389.21,398.43H369.64l-.09-.39a23.08,23.08,0,0,1-.54-5c0-8.58,4.67-15.57,10.41-15.57s10.42,7,10.42,15.57a23.08,23.08,0,0,1-.54,5Zm-18.76-1h18a22.14,22.14,0,0,0,.44-4.38c0-8-4.23-14.57-9.42-14.57S370,385,370,393A22.14,22.14,0,0,0,370.45,397.43Z"/><rect class="cls-2" x="378.92" y="377.98" width="1" height="19.95"/><path class="cls-4" d="M421.87,393a22.64,22.64,0,0,1-.53,4.88H402.58A22.64,22.64,0,0,1,402,393c0-8.32,4.43-15.07,9.91-15.07S421.87,384.73,421.87,393Z"/><path class="cls-2" d="M421.74,398.43H402.17l-.09-.39a23.15,23.15,0,0,1-.54-5c0-8.58,4.67-15.57,10.41-15.57s10.42,7,10.42,15.57a23.15,23.15,0,0,1-.54,5Zm-18.76-1h18a22.16,22.16,0,0,0,.44-4.38c0-8-4.23-14.57-9.42-14.57S402.54,385,402.54,393A22.16,22.16,0,0,0,403,397.43Z"/><rect class="cls-2" x="411.45" y="377.98" width="1" height="19.95"/><path class="cls-4" d="M454.4,393a22.64,22.64,0,0,1-.53,4.88H435.11a22.64,22.64,0,0,1-.53-4.88c0-8.32,4.43-15.07,9.91-15.07S454.4,384.73,454.4,393Z"/><path class="cls-2" d="M454.27,398.43H434.71l-.09-.39a23.1,23.1,0,0,1-.54-5c0-8.58,4.67-15.57,10.41-15.57s10.42,7,10.42,15.57a23.15,23.15,0,0,1-.54,5Zm-18.76-1h18a22.16,22.16,0,0,0,.44-4.38c0-8-4.23-14.57-9.42-14.57S435.08,385,435.08,393A22.11,22.11,0,0,0,435.51,397.43Z"/><rect class="cls-2" x="443.99" y="377.98" width="1" height="19.95"/><polygon class="cls-2" points="491.47 391.08 491.47 406.61 466.23 406.61 466.23 391.08 438.79 391.08 438.79 406.61 413.56 406.61 413.56 391.08 386.12 391.08 386.12 406.61 360.88 406.61 360.88 391.08 333.44 391.08 333.44 406.61 308.2 406.61 308.2 391.08 280.77 391.08 280.77 406.61 280.77 517.07 308.2 517.07 333.44 517.07 360.88 517.07 386.12 517.07 413.56 517.07 438.79 517.07 466.23 517.07 491.47 517.07 518.91 517.07 518.91 406.61 518.91 391.08 491.47 391.08"/><path class="cls-2" d="M519.41,517.57H280.27v-127H308.7v15.54h24.24V390.58h28.44v15.54h24.24V390.58h28.44v15.54h24.24V390.58h28.44v15.54H491V390.58h28.44Zm-238.14-1H518.41v-125H492v15.54H465.73V391.58H439.29v15.54H413.06V391.58H386.62v15.54H360.38V391.58H333.94v15.54H307.7V391.58H281.27Z"/><path class="cls-5" d="M499.66,370.58H332.84V334.13H479.31c.19.73.39,1.47.61,2.21C484,350.34,491.47,362.77,499.66,370.58Z"/><path class="cls-2" d="M500.91,371.08H332.34V333.63H479.69l.1.37c.19.72.39,1.46.61,2.19,3.94,13.5,11.09,25.9,19.6,34Zm-167.57-1H498.43c-8.25-8.24-15.14-20.41-19-33.6-.18-.62-.35-1.24-.52-1.85H333.34Z"/><rect class="cls-2" x="316.18" y="308.61" width="41.48" height="123.94"/><path class="cls-2" d="M358.16,433H315.68V308.11h42.48Zm-41.48-1h40.48V309.11H316.68Z"/><rect class="cls-5" x="357.16" y="308.61" width="1" height="123.94"/><polygon class="cls-5" points="339.38 354.16 334.45 354.16 300.1 354.16 305.57 370.58 334.45 370.58 339.38 370.58 368.27 370.58 373.74 354.16 339.38 354.16"/><path class="cls-2" d="M368.63,371.08H305.21l-5.81-17.42h75Zm-62.7-1h62L373,354.66H300.79Z"/><polyline class="cls-2" points="518.91 517.07 518.91 406.61 518.91 391.08 491.47 391.08 491.47 406.61 466.23 406.61 466.23 391.08 438.79 391.08 438.79 406.61 413.56 406.61 413.56 391.08 386.12 391.08 386.12 406.61 360.88 406.61 360.88 391.08 333.44 391.08 333.44 406.61 308.2 406.61 308.2 391.08 280.77 391.08 280.77 406.61 280.77 517.07"/><polygon class="cls-5" points="519.41 517.07 518.41 517.07 518.41 391.58 491.97 391.58 491.97 407.11 465.73 407.11 465.73 391.58 439.29 391.58 439.29 407.11 413.06 407.11 413.06 391.58 386.62 391.58 386.62 407.11 360.38 407.11 360.38 391.58 333.94 391.58 333.94 407.11 307.7 407.11 307.7 391.58 281.27 391.58 281.27 517.07 280.27 517.07 280.27 390.58 308.7 390.58 308.7 406.11 332.94 406.11 332.94 390.58 361.38 390.58 361.38 406.11 385.62 406.11 385.62 390.58 414.06 390.58 414.06 406.11 438.29 406.11 438.29 390.58 466.73 390.58 466.73 406.11 490.97 406.11 490.97 390.58 519.41 390.58 519.41 517.07"/><polygon class="cls-5" points="491.83 317.71 486.9 317.71 452.55 317.71 458.02 334.13 486.9 334.13 491.83 334.13 520.72 334.13 526.19 317.71 491.83 317.71"/><path class="cls-2" d="M521.08,334.63H457.66l-5.81-17.42h75Zm-62.7-1h62l5.14-15.42H453.24Z"/><path class="cls-5" d="M489.37,203.37c-6.67,32.16-21.71,59.16-41.48,75.82h83C511.07,262.53,496,235.53,489.37,203.37Z"/><path class="cls-2" d="M532.22,279.69h-85.7l1-.88c20-16.88,34.71-43.71,41.31-75.54l.49-2.36.49,2.36c6.61,31.83,21.28,58.66,41.31,75.54Zm-83-1H529.5c-19.2-16.65-33.38-42.43-40.13-72.93C482.62,236.26,468.44,262,449.24,278.69Z"/><path class="cls-4" d="M496.73,302.43a38.39,38.39,0,0,1-.39,5.51H482.41a38.38,38.38,0,0,1-.39-5.51c0-9.39,3.29-17,7.36-17S496.73,293,496.73,302.43Z"/><path class="cls-2" d="M496.77,308.44H482l-.06-.43a38.94,38.94,0,0,1-.4-5.58c0-9.82,3.45-17.51,7.86-17.51s7.86,7.69,7.86,17.51a38.94,38.94,0,0,1-.4,5.58Zm-13.93-1H495.9a38,38,0,0,0,.33-5c0-8.95-3.14-16.51-6.86-16.51s-6.86,7.56-6.86,16.51A38,38,0,0,0,482.84,307.44Z"/><rect class="cls-2" x="488.87" y="285.42" width="1" height="22.52"/><rect class="cls-2" x="482.31" y="297.12" width="14.13" height="1"/><path class="cls-4" d="M511.87,347.83v22.51h-7a38.33,38.33,0,0,1-.1-10.31C505.7,353,508.52,347.83,511.87,347.83Z"/><path class="cls-2" d="M512.37,370.84h-7.89l-.06-.43a38.89,38.89,0,0,1-.1-10.45c1-7.56,4-12.63,7.56-12.63h.5Zm-7-1h6V348.38c-2.79.5-5.24,5.18-6.06,11.72a36.5,36.5,0,0,0-.3,4.74A37.06,37.06,0,0,0,505.34,369.84Z"/><rect class="cls-2" x="504.81" y="359.53" width="7.06" height="1"/><path class="cls-4" d="M364.43,222.63a23.58,23.58,0,0,1-.24,3.38h-8.56a23.58,23.58,0,0,1-.24-3.38c0-5.77,2-10.45,4.52-10.45S364.43,216.86,364.43,222.63Z"/><path class="cls-2" d="M364.62,226.51h-9.42l-.06-.43a24.12,24.12,0,0,1-.25-3.46c0-6.14,2.21-10.95,5-10.95s5,4.81,5,10.95a24,24,0,0,1-.25,3.46Zm-8.55-1h7.68a23.26,23.26,0,0,0,.18-2.88c0-5.95-2.08-9.95-4-9.95s-4,4-4,9.95A23.16,23.16,0,0,0,356.06,225.51Z"/><rect class="cls-2" x="359.41" y="212.18" width="1" height="13.83"/><rect class="cls-2" x="355.57" y="219.18" width="8.68" height="1"/><path class="cls-4" d="M412,300.19a44.39,44.39,0,0,1-.46,6.37H395.39a44.38,44.38,0,0,1-.46-6.37c0-10.86,3.81-19.66,8.51-19.66S412,289.34,412,300.19Z"/><path class="cls-2" d="M411.93,307.06H395l-.06-.43a44.76,44.76,0,0,1-.46-6.44c0-11.31,4-20.16,9-20.16s9,8.86,9,20.16a45,45,0,0,1-.46,6.44Zm-16.11-1h15.24a44.11,44.11,0,0,0,.39-5.87c0-10.39-3.67-19.16-8-19.16s-8,8.78-8,19.16A43.89,43.89,0,0,0,395.83,306.06Z"/><rect class="cls-2" x="402.94" y="280.53" width="1" height="26.03"/><rect class="cls-2" x="395.29" y="294.14" width="16.32" height="1"/><path class="cls-4" d="M552.36,475.14a125.56,125.56,0,0,1-2.67,12.75H525.56a119.53,119.53,0,0,1,1.3-12.75c3.38-21.73,11.82-39.36,18.86-39.36S555.74,453.41,552.36,475.14Z"/><path class="cls-2" d="M550.08,488.4H525l0-.52a120.07,120.07,0,0,1,1.3-12.8c3.47-22.31,12-39.78,19.35-39.78a5.18,5.18,0,0,1,4,2c4.57,5.34,5.84,20.57,3.15,37.89h0a125.8,125.8,0,0,1-2.68,12.8Zm-24-1h23.22a124.84,124.84,0,0,0,2.56-12.33h0c2.61-16.79,1.41-32-2.92-37.09a4.23,4.23,0,0,0-3.23-1.69c-6.67,0-15.08,17.83-18.36,38.94A119.3,119.3,0,0,0,526.09,487.4Z"/><rect class="cls-2" x="515.3" y="461.34" width="52.73" height="1" transform="translate(1.8 925.79) rotate(-81.13)"/><rect class="cls-2" x="529.11" y="463.52" width="24.47" height="1"/><rect class="cls-2" x="258.05" y="479.73" width="9.02" height="1"/><path class="cls-1" d="M421.6,499.41c0,1.08,0,2.16,0,3.23a121.37,121.37,0,0,1-1.23,14.43H375.68a121.37,121.37,0,0,1-1.23-14.43c0-1.07,0-2.15,0-3.23,0-3.84.17-7.58.5-11.2a106,106,0,0,1,2.27-14.44A72.36,72.36,0,0,1,382,459.34a41.59,41.59,0,0,1,4.2-7.16c3.47-4.62,7.5-7.27,11.78-7.27h0c4.3,0,8.33,2.66,11.79,7.3a40,40,0,0,1,4.19,7.13,71.72,71.72,0,0,1,4.84,14.43,106,106,0,0,1,2.27,14.44C421.43,491.83,421.6,495.57,421.6,499.41Z"/><path class="cls-2" d="M420.76,517.57H375.25l-.06-.43a122.17,122.17,0,0,1-1.24-14.49c0-1.07,0-2.16,0-3.24,0-3.81.17-7.59.5-11.25a106.4,106.4,0,0,1,2.28-14.51,72.66,72.66,0,0,1,4.87-14.53,42.13,42.13,0,0,1,4.25-7.25c3.67-4.89,7.88-7.47,12.18-7.47s8.56,2.6,12.21,7.5a40.62,40.62,0,0,1,4.24,7.22,72.06,72.06,0,0,1,4.87,14.53,106.36,106.36,0,0,1,2.28,14.51c.33,3.65.5,7.44.5,11.25,0,1.08,0,2.17,0,3.24a121.87,121.87,0,0,1-1.24,14.49Zm-44.65-1h43.78a120.82,120.82,0,0,0,1.16-13.94c0-1.07,0-2.14,0-3.22,0-3.78-.17-7.53-.5-11.16a105.32,105.32,0,0,0-2.26-14.37,71,71,0,0,0-4.8-14.33,39.6,39.6,0,0,0-4.14-7c-3.46-4.64-7.4-7.09-11.39-7.1s-7.93,2.44-11.4,7.07a41.11,41.11,0,0,0-4.15,7.07,71.71,71.71,0,0,0-4.8,14.33,105.36,105.36,0,0,0-2.26,14.37c-.33,3.62-.5,7.38-.5,11.16,0,1.07,0,2.15,0,3.22A121.11,121.11,0,0,0,376.11,516.57Z"/><path class="cls-4" d="M345.44,341.91a44.39,44.39,0,0,1-.46,6.37H328.87a44.38,44.38,0,0,1-.46-6.37c0-10.86,3.81-19.66,8.51-19.66S345.44,331,345.44,341.91Z"/><path class="cls-2" d="M345.41,348.78h-17l-.06-.43a45,45,0,0,1-.46-6.44c0-11.31,4-20.16,9-20.16s9,8.86,9,20.16a44.91,44.91,0,0,1-.46,6.44Zm-16.11-1h15.24a44,44,0,0,0,.39-5.87c0-10.39-3.67-19.16-8-19.16s-8,8.78-8,19.16A44.11,44.11,0,0,0,329.3,347.78Z"/><rect class="cls-2" x="336.42" y="322.24" width="1" height="26.04"/><rect class="cls-2" x="328.77" y="335.85" width="16.32" height="1"/><rect class="cls-5" x="314.19" y="472.49" width="11.94" height="4.9"/><path class="cls-2" d="M326.63,477.89H313.69V472h12.94Zm-11.94-1h10.94V473H314.69Z"/><rect class="cls-5" x="440.58" y="444.91" width="11.94" height="4.9"/><path class="cls-2" d="M453,450.31H440.08v-5.9H453Zm-11.94-1H452v-3.9H441.08Z"/><rect class="cls-5" x="448.43" y="452.68" width="11.94" height="4.9"/><path class="cls-2" d="M460.87,458.09H447.93v-5.9h12.94Zm-11.94-1h10.94v-3.9H448.93Z"/><rect class="cls-5" x="489.37" y="484.25" width="11.94" height="4.9"/><path class="cls-2" d="M501.8,489.65H488.87v-5.9H501.8Zm-11.94-1H500.8v-3.9H489.87Z"/><rect class="cls-5" x="497.23" y="492.03" width="11.94" height="4.9"/><path class="cls-2" d="M509.67,497.43H496.73v-5.9h12.94Zm-11.94-1h10.94v-3.9H497.73Z"/><rect class="cls-5" x="456.95" y="444.91" width="11.94" height="4.9"/><path class="cls-2" d="M469.39,450.31H456.45v-5.9h12.94Zm-11.94-1h10.94v-3.9H457.45Z"/><rect class="cls-5" x="304.71" y="480.99" width="11.94" height="4.9"/><path class="cls-2" d="M317.14,486.39H304.21v-5.9h12.94Zm-11.94-1h10.94v-3.9H305.21Z"/><path class="cls-2" d="M611.58,378.12,624.42,428l11.43-8.25,2.72-18.15,1.55,16.7,19-11.71-31.45,32.68-1.75,26.79,20.58-5.63,15.72-23.3-4.34,17.67-7.7,9.2-24.27,19.14,6.42,33.91h-29l4.3-11.84L603.33,487l3.59,2,3.41,9.86,9.86-42.84-26.4-3.76-5.15-5.92,11.29,3.41,17.75-.18-5.56-12-7.35-7.71-2.51-14.88s3.94,5.2,3.94,5.74,3.94,9.32,3.94,9.32l7,2.87-3.76-19.18-22-19.36-.91-23.94L596,392.83l10.76,10.05,7.71,5.56-2.69-17.36Z"/><path class="cls-2" d="M633,517.57H602.61l4.5-12.37L602.58,486l4.74,2.61,2.9,8.39,9.35-40.61-26-3.71-6.41-7.36L600,449.17l16.9-.17-5.2-11.23-7.4-7.76-2.87-17,1.23,1.62c4,5.33,4,5.86,4,6,.1.52,2.36,5.68,3.82,8.93l5.95,2.44-3.55-18.1-22.07-19.39v-.21l-1.09-28.81,6.69,27.08,10.65,10,6.69,4.82-2.51-16.18L611,374l13.69,53.24,10.67-7.7,3.3-22,1.86,20,21.69-13.36-34.05,35.38-1.69,25.91,19.72-5.4,17.19-25.47-5,20.5-.07.09-7.77,9.27-24,19Zm-28.93-1h27.72L625.4,483l24.46-19.3,7.59-9.07,3.64-14.83-14.26,21.13-21.43,5.86,1.8-27.67,28.85-30L639.7,419.17l-1.25-13.39-2.14,14.28-12.19,8.81-12-46.58.12,8.78,2.87,18.47-8.68-6.26-10.91-10.2-4.42-17.9.72,18.85,22,19.33,0,.17,3.94,20.09-8-3.3-.08-.18c-1.82-4.05-4-9-4-9.53a40.84,40.84,0,0,0-2.61-3.78l2.14,12.69,7.34,7.73L618.45,450l-18.6.19-9.71-2.93,3.89,4.47,26.76,3.81-10.37,45.07-3.91-11.32-2.43-1.34,4.08,17.33Z"/><path class="cls-2" d="M565.94,269.1a2.62,2.62,0,0,0-1-.49c.78-2,.08-3.4-4-4.94l2.75,4.94a2.17,2.17,0,0,0-.94.52L560,264.2c-.83,4.26-.05,5.57,2.1,6a2.62,2.62,0,0,0-.11,1.1c-9.67-2.61-12.3.64-7.3,8.28-.49-2.9.29-3.57,3-2.82-1.1-2.39-.25-3.09,2.67-2.46-.43-1.44.36-1.94,1.87-2.2,0,.08.06.15.1.23a2.46,2.46,0,1,0,4.29-2.38c0-.07-.09-.14-.14-.21,1-1.14,1.86-1.56,2.86-.43,1-2.81,2.05-3.16,3.5-1,.78-2.69,1.76-3,4-1.05C573,259,568.82,259.51,565.94,269.1Z"/><path class="cls-2" d="M300.32,265.32a3.14,3.14,0,0,0-.9-1c1.76-1.94,1.57-3.76-2.29-7.25l.92,6.72a2.6,2.6,0,0,0-1.27.17l-.92-6.72c-2.78,4.39-2.48,6.2-.26,7.6a3.14,3.14,0,0,0-.6,1.18c-9.66-7.12-14-4.63-11.75,6.08.71-3.45,1.88-3.86,4.56-1.84-.19-3.15,1.07-3.56,4.05-1.59.14-1.79,1.25-2,3-1.64,0,.1,0,.2,0,.3a2.95,2.95,0,1,0,5.83-.8c0-.1,0-.19-.07-.29,1.64-.83,2.76-.93,3.38.76,2.34-2.7,3.66-2.64,4.33.44,2-2.66,3.28-2.58,4.89.55C312.57,257.09,307.7,255.86,300.32,265.32Z"/><path class="cls-2" d="M461.83,221.71c-1.25-2.24-4.41-4-5.63-3.55a.9.9,0,0,0-.49.51,2.11,2.11,0,0,0-.77-.56c.88-1.52.48-2.69-2.54-4.41L454,218a1.74,1.74,0,0,0-.81.3L451.59,214c-1.19,3.27-.73,4.41.92,5a2.11,2.11,0,0,0-.23.93.9.9,0,0,0-.7-.07c-1.23.45-2.49,3.83-2,6.35a5.8,5.8,0,0,0,1.81,3.5c-.56-3.64,2.23-4,2.23-4-1.18-1.52-1.82-3.32-1.05-4.66a1.95,1.95,0,0,0,3.64-1.34c1.46.53,2.14,2.31,2.22,4.23,0,0,2.37-1.52,4.3,1.62A5.8,5.8,0,0,0,461.83,221.71Z"/><path class="cls-2" d="M172.54,293.85a1.09,1.09,0,0,0-.85-.07,2.54,2.54,0,0,0-.07-1.15c2.09-.35,2.87-1.61,2.15-5.75L171,291.62a2.1,2.1,0,0,0-.9-.52l2.76-4.73c-4,1.41-4.67,2.71-3.95,4.7a2.54,2.54,0,0,0-1,.5,1.09,1.09,0,0,0-.48-.71c-1.36-.8-5.48.62-7.44,3a7,7,0,0,0-1.87,4.37c3-3.32,5.45-1,5.45-1,.5-2.27,1.69-4.24,3.53-4.56a2.35,2.35,0,0,0,4,2.35c.63,1.76-.51,3.77-2.24,5.32,0,0,3.23,1,1.8,5.24a7,7,0,0,0,2.89-3.77C174.69,298.93,173.9,294.65,172.54,293.85Z"/><path class="cls-2" d="M277.32,227a2.32,2.32,0,0,0-.25-.9c1.49-.12,2.1-.93,1.8-3.82l-2.22,3.26a1.66,1.66,0,0,0-.59-.4l2.22-3.26c-2.8.78-3.33,1.65-2.9,3.07a2.32,2.32,0,0,0-.93.09c2.32-6.19,2.17-9.4-5.17-14.57,0,0,2.58,4-.07,7,0,0,3.24,2.63,1.8,5.33a3.1,3.1,0,0,1,2.17,3.11l-.11.13a2.3,2.3,0,1,0,3.8,2.59s.05-.1.08-.15a3.1,3.1,0,0,1,3.69.89c2-2.32,5.62-.27,5.62-.27,1.82-3.56,6.49-2.62,6.49-2.62C285.28,221.57,282.24,222.6,277.32,227Z"/><path class="cls-2" d="M617.45,338.71a2.73,2.73,0,0,0-.3-1.06c1.75-.15,2.47-1.09,2.12-4.5L616.65,337a1.95,1.95,0,0,0-.69-.47l2.62-3.83c-3.3.92-3.91,1.93-3.41,3.62a2.73,2.73,0,0,0-1.09.11c2.73-7.28,2.55-11.06-6.08-17.14,0,0,3,4.72-.08,8.23,0,0,3.81,3.1,2.12,6.27,1.75.79,2.65,2,2.55,3.66l-.13.15a2.71,2.71,0,1,0,4.47,3c0-.06.06-.12.1-.17,1.53-.7,3-.3,4.34,1,2.34-2.73,6.61-.31,6.61-.31,2.14-4.18,7.64-3.08,7.64-3.08C626.81,332.3,623.23,333.51,617.45,338.71Z"/><polygon class="cls-5" points="369.56 266.18 350.24 266.18 350.24 249.75 351.24 249.75 351.24 265.18 368.56 265.18 368.56 249.75 369.56 249.75 369.56 266.18"/><path class="cls-5" d="M336.92,241.28c-6.67,30.95-21.71,56.93-41.48,73h83C358.62,298.21,343.59,272.23,336.92,241.28Z"/><path class="cls-2" d="M379.81,314.74H294l1.1-.89c20-16.24,34.7-42.05,41.31-72.68l.49-2.27.49,2.27c6.61,30.63,21.28,56.44,41.31,72.68Zm-83-1H377c-19.18-16-33.34-40.82-40.09-70.16C330.17,272.92,316,297.71,296.83,313.74Z"/><rect class="cls-5" x="247.62" y="390.72" width="1" height="11.39" transform="translate(-44.9 31.93) rotate(-6.75)"/><rect class="cls-5" x="254.73" y="452.6" width="1" height="7.64" transform="translate(-51.91 33.19) rotate(-6.75)"/><rect class="cls-2" x="179.72" y="516.57" width="455.9" height="1"/><path class="cls-2" d="M386.71,517.57H375.25l-.06-.43a122.17,122.17,0,0,1-1.24-14.49c0-1.07,0-2.16,0-3.24,0-3.81.17-7.59.5-11.25a106.4,106.4,0,0,1,2.28-14.51,72.66,72.66,0,0,1,4.87-14.53,42.13,42.13,0,0,1,4.25-7.25l.9-1.21Zm-10.6-1h9.6V453.75a43.15,43.15,0,0,0-3.25,5.8,71.71,71.71,0,0,0-4.8,14.33,105.36,105.36,0,0,0-2.26,14.37c-.33,3.62-.5,7.38-.5,11.16,0,1.07,0,2.15,0,3.22A121.11,121.11,0,0,0,376.11,516.57Z"/><path class="cls-2" d="M398.51,517.57h-12.8V452l.1-.13c3.67-4.89,7.88-7.47,12.18-7.47h.5l0,.5Zm-11.8-1h10.8V445.42c-3.77.19-7.49,2.57-10.8,6.93Z"/><path class="cls-2" d="M410.3,517.57H397.51V444.41h.5c4.32,0,8.54,2.6,12.19,7.5l.1.13Zm-11.79-1H409.3V452.38c-3.29-4.36-7-6.75-10.79-7Z"/><path class="cls-2" d="M420.76,517.57H409.3V450.71l.9,1.2a40.65,40.65,0,0,1,4.24,7.22,72.06,72.06,0,0,1,4.87,14.53,106.36,106.36,0,0,1,2.28,14.51c.33,3.65.5,7.44.5,11.25,0,1.08,0,2.17,0,3.24a121.87,121.87,0,0,1-1.24,14.49Zm-10.46-1h9.6a120.82,120.82,0,0,0,1.16-13.94c0-1.07,0-2.14,0-3.22,0-3.78-.17-7.53-.5-11.16a105.32,105.32,0,0,0-2.26-14.37,71,71,0,0,0-4.8-14.33,42,42,0,0,0-3.24-5.78Z"/><rect class="cls-2" x="394" y="482" width="8" height="10.03"/><path class="cls-2" d="M402.5,492.53h-9v-11h9Zm-8-1h7v-9h-7Z"/><rect class="cls-5" x="397.51" y="482" width="1" height="10.03"/><rect class="cls-2" x="661.75" y="369.03" width="1" height="18.19"/><rect class="cls-2" x="653.15" y="377.62" width="18.19" height="1"/><rect class="cls-2" x="661.75" y="371.49" width="1" height="13.27" transform="translate(-73.41 578.99) rotate(-45)"/><rect class="cls-2" x="655.62" y="377.62" width="13.27" height="1" transform="translate(-73.4 579.03) rotate(-45)"/><ellipse class="cls-2" cx="662.25" cy="366.01" rx="1.06" ry="1.48"/><ellipse class="cls-2" cx="662.25" cy="390.24" rx="1.06" ry="1.48"/><ellipse class="cls-2" cx="674.36" cy="378.12" rx="1.48" ry="1.06"/><ellipse class="cls-2" cx="650.14" cy="378.12" rx="1.48" ry="1.06"/><rect class="cls-2" x="149.73" y="478.8" width="1" height="18.19"/><rect class="cls-2" x="141.13" y="487.4" width="18.19" height="1"/><rect class="cls-2" x="149.73" y="481.26" width="1" height="13.27" transform="translate(-300.99 249.13) rotate(-45)"/><rect class="cls-2" x="143.6" y="487.4" width="13.27" height="1" transform="translate(-300.99 249.13) rotate(-45)"/><ellipse class="cls-2" cx="162.35" cy="487.9" rx="1.48" ry="1.06"/><ellipse class="cls-2" cx="138.12" cy="487.9" rx="1.48" ry="1.06"/><rect class="cls-2" x="691.5" y="428.24" width="1" height="15.09"/><rect class="cls-2" x="687.33" y="435.29" width="9.35" height="1"/><rect class="cls-2" x="106.4" y="403.96" width="1" height="11.54"/><rect class="cls-2" x="103.33" y="409.23" width="7.14" height="1"/><circle class="cls-5" cx="655.89" cy="499.14" r="4.37"/><circle class="cls-5" cx="673.04" cy="482.62" r="2.07"/><circle class="cls-5" cx="197.92" cy="422.92" r="3.22"/><circle class="cls-5" cx="142.6" cy="359.36" r="3.01"/><circle class="cls-5" cx="577.54" cy="466.21" r="4.37"/></svg>