<svg id="layer" xmlns="http://www.w3.org/2000/svg" viewBox="0 0 800 600"><defs><style>.cls-1{fill:#fff0dc;}.cls-2{fill:#4b0062;}.cls-3{fill:#a26bb4;}.cls-4{fill:#f48001;}.cls-5{fill:#f44b1b;}</style></defs><title>Halloween Frankenstein</title><rect class="cls-1" width="800" height="600"/><polygon class="cls-2" points="432.98 335.36 432.98 473.2 420.49 473.2 420.49 465.12 418.2 467.41 412.41 473.2 389.43 473.2 389.43 335.36 432.98 335.36"/><path class="cls-2" d="M433.48,473.7H420v-7.37l-7.37,7.37H388.93V334.86h44.55Zm-12.49-1h11.49V335.86H389.93V472.7H412.2l8.79-8.79Z"/><polygon class="cls-2" points="476.52 335.36 476.52 473.2 453.54 473.2 447.76 467.41 445.47 465.12 445.47 473.2 432.98 473.2 432.98 335.36 476.52 335.36"/><path class="cls-2" d="M477,473.7H453.33L446,466.33v7.37H432.48V334.86H477Zm-23.27-1H476V335.86H433.48V472.7H445v-8.79Z"/><rect class="cls-3" x="390.67" y="211.73" width="76.37" height="142.84"/><path class="cls-2" d="M467.54,355.08H390.17V211.23h77.37Zm-76.37-1h75.37V212.23H391.17Z"/><path class="cls-4" d="M366,200.94h-25.6v63.74H275.48a8,8,0,0,0-8,8v40.77H366v62.66h38.53V200.94Z"/><path class="cls-2" d="M405,376.64H365.51V314H267V272.71a8.54,8.54,0,0,1,8.53-8.53h64.43V200.44H405Zm-38.53-1H404V201.44H340.91v63.74H275.48a7.54,7.54,0,0,0-7.53,7.53V313h98.56Z"/><path class="cls-1" d="M303,264.68v48.8H267.45V272.71a8,8,0,0,1,8-8Z"/><path class="cls-2" d="M303.52,314H267V272.71a8.54,8.54,0,0,1,8.53-8.53h28ZM268,313h34.57v-47.8h-27a7.54,7.54,0,0,0-7.53,7.53Z"/><rect class="cls-2" x="365.51" y="231.06" width="1" height="145.08"/><rect class="cls-4" x="452.85" y="200.94" width="51.25" height="175.2"/><path class="cls-2" d="M504.6,376.64H452.35V200.44H504.6Zm-51.25-1H503.6V201.44H453.35Z"/><polygon class="cls-5" points="466.69 275.36 478.47 292.45 452.85 336.46 452.85 200.94 465.21 200.94 486.24 258.52 466.69 275.36"/><path class="cls-2" d="M452.35,338.31V200.44h13.21l21.27,58.23-19.47,16.77,11.71,17-.16.27Zm1-136.87V334.61l24.53-42.14L466,275.27l19.63-16.91-20.79-56.93Z"/><polygon class="cls-5" points="404.54 200.94 404.54 328.77 383.4 292.45 395.18 275.36 375.63 258.52 396.66 200.94 404.54 200.94"/><path class="cls-2" d="M405,330.62l-22.23-38.2,11.71-17L375,258.67l21.27-58.23H405Zm-21-38.15,20,34.45V201.44h-7l-20.79,56.93,19.63,16.91Z"/><path class="cls-1" d="M470.27,193.67h-1.32V153.38a7.63,7.63,0,0,0-.62-3,7.79,7.79,0,0,0-7.2-4.78H390.5a7.82,7.82,0,0,0-7.82,7.81V244.6a7.82,7.82,0,0,0,7.82,7.82h70.63a7.82,7.82,0,0,0,7.82-7.82V218.33h1.32a5.37,5.37,0,0,0,5.37-5.37V199A5.37,5.37,0,0,0,470.27,193.67Z"/><path class="cls-2" d="M461.13,252.92H390.5a8.33,8.33,0,0,1-8.32-8.32V153.38a8.32,8.32,0,0,1,8.32-8.31h70.63a8.27,8.27,0,0,1,7.66,5.09,8.14,8.14,0,0,1,.66,3.22v39.79h.82a5.88,5.88,0,0,1,5.87,5.87V213a5.88,5.88,0,0,1-5.87,5.87h-.82V244.6A8.33,8.33,0,0,1,461.13,252.92ZM390.5,146.07a7.32,7.32,0,0,0-7.32,7.31V244.6a7.33,7.33,0,0,0,7.32,7.32h70.63a7.33,7.33,0,0,0,7.32-7.32V217.83h1.82a4.88,4.88,0,0,0,4.87-4.87V199a4.88,4.88,0,0,0-4.87-4.87h-1.82V153.38a7.15,7.15,0,0,0-.58-2.83,7.27,7.27,0,0,0-6.74-4.48Z"/><polygon class="cls-4" points="414.06 195.17 408.85 216.48 419.27 216.48 414.06 195.17"/><path class="cls-2" d="M468.95,153.38v40.29h-7.48V150.35h6.86A7.63,7.63,0,0,1,468.95,153.38Z"/><path class="cls-2" d="M469.45,194.17H461V149.85h7.69l.13.3a8.13,8.13,0,0,1,.66,3.23Zm-7.48-1h6.48V153.38a7.12,7.12,0,0,0-.46-2.53h-6Z"/><path class="cls-2" d="M468.95,153.38v11l-7.12-4-.36.2-6.84,3.8-7.19-4-7.2,4-7.2-4-7.19,4-7.2-4-7.19,4-7.2-4-7.19,4-7.2-4-7.19,4V153.38a7.82,7.82,0,0,1,7.82-7.81h70.63a7.79,7.79,0,0,1,7.2,4.78A7.63,7.63,0,0,1,468.95,153.38Z"/><path class="cls-2" d="M382.18,165.31V153.38a8.32,8.32,0,0,1,8.32-8.31h70.63a8.27,8.27,0,0,1,7.66,5.09,8.14,8.14,0,0,1,.66,3.22v11.9L461.83,161l-7.2,4-7.19-4-7.2,4-7.2-4-7.19,4-7.2-4-7.19,4-7.2-4-7.19,4-7.2-4ZM433,159.9l7.2,4,7.2-4,7.19,4,7.2-4,6.62,3.68v-10.2a7.15,7.15,0,0,0-.58-2.83,7.27,7.27,0,0,0-6.74-4.48H390.5a7.32,7.32,0,0,0-7.32,7.31v10.23l6.69-3.71,7.2,4,7.19-4,7.2,4,7.19-4,7.2,4Z"/><rect class="cls-3" x="369.44" y="162.76" width="7.98" height="19.26"/><path class="cls-2" d="M377.92,182.52h-9V162.26h9Zm-8-1h7V163.26h-7Z"/><rect class="cls-3" x="377.42" y="169.21" width="5.27" height="6.36"/><path class="cls-2" d="M383.18,176.07h-6.27v-7.36h6.27Zm-5.27-1h4.27v-5.36h-4.27Z"/><rect class="cls-3" x="464.46" y="162.76" width="7.98" height="19.26" transform="translate(936.9 344.79) rotate(-180)"/><path class="cls-2" d="M472.94,182.52h-9V162.26h9Zm-8-1h7V163.26h-7Z"/><rect class="cls-3" x="456.11" y="169.21" width="8.35" height="6.36" transform="translate(920.57 344.79) rotate(-180)"/><path class="cls-2" d="M465,176.07h-9.35v-7.36H465Zm-8.35-1H464v-5.36h-7.35Z"/><rect class="cls-2" x="382.68" y="172.38" width="70.16" height="1"/><rect class="cls-2" x="444.99" y="169.21" width="1" height="6.97"/><rect class="cls-2" x="431.13" y="169.21" width="1" height="6.97"/><rect class="cls-2" x="417.27" y="169.21" width="1" height="6.97"/><rect class="cls-2" x="403.41" y="169.21" width="1" height="6.97"/><rect class="cls-2" x="389.54" y="169.21" width="1" height="6.97"/><rect class="cls-2" x="386.5" y="180.24" width="60.54" height="5.61"/><path class="cls-2" d="M447.54,186.34H386v-6.61h61.54Zm-60.54-1h59.54v-4.61H387Z"/><path class="cls-1" d="M406.41,187.08a8.86,8.86,0,1,1-17.72,0,8.28,8.28,0,0,1,.09-1.23h17.54A8.28,8.28,0,0,1,406.41,187.08Z"/><path class="cls-2" d="M397.55,196.44a9.37,9.37,0,0,1-9.36-9.36,8.87,8.87,0,0,1,.1-1.3l.06-.43h18.4l.06.43a8.85,8.85,0,0,1,.1,1.3A9.37,9.37,0,0,1,397.55,196.44Zm-8.33-10.09c0,.24,0,.48,0,.73a8.36,8.36,0,0,0,16.72,0c0-.25,0-.49,0-.73Z"/><path class="cls-5" d="M398.8,187a4,4,0,1,1-7.94,0,4.07,4.07,0,0,1,.17-1.16h7.6A4.07,4.07,0,0,1,398.8,187Z"/><path class="cls-2" d="M394.83,191.48a4.47,4.47,0,0,1-4.47-4.47,4.58,4.58,0,0,1,.19-1.3l.11-.36H399l.11.36a4.58,4.58,0,0,1,.19,1.3A4.47,4.47,0,0,1,394.83,191.48Zm-3.41-5.13a3.54,3.54,0,0,0-.06.66,3.47,3.47,0,0,0,6.94,0,3.54,3.54,0,0,0-.06-.66Z"/><path class="cls-1" d="M440.12,187.08a8.86,8.86,0,0,1-17.72,0,8.28,8.28,0,0,1,.09-1.23H440A8.28,8.28,0,0,1,440.12,187.08Z"/><path class="cls-2" d="M431.26,196.44a9.37,9.37,0,0,1-9.36-9.36,8.75,8.75,0,0,1,.1-1.31l.06-.42h18.4l.06.43a8.85,8.85,0,0,1,.1,1.3A9.37,9.37,0,0,1,431.26,196.44Zm-8.33-10.09c0,.24,0,.48,0,.73a8.36,8.36,0,0,0,16.72,0c0-.25,0-.49,0-.73Z"/><path class="cls-5" d="M432.51,187a4,4,0,1,1-7.93,0,4.07,4.07,0,0,1,.17-1.16h7.59A4.07,4.07,0,0,1,432.51,187Z"/><path class="cls-2" d="M428.54,191.48a4.47,4.47,0,0,1-4.46-4.47,4.57,4.57,0,0,1,.19-1.3l.11-.36h8.34l.11.36A4.57,4.57,0,0,1,433,187,4.47,4.47,0,0,1,428.54,191.48Zm-3.4-5.13a3.46,3.46,0,1,0,6.8,0Z"/><rect class="cls-2" x="390.86" y="229.28" width="55.03" height="1"/><rect class="cls-1" x="398.15" y="225.37" width="9.64" height="4.41"/><path class="cls-2" d="M408.29,230.28H397.65v-5.41h10.64Zm-9.64-1h8.64v-3.41h-8.64Z"/><rect class="cls-1" x="425.82" y="225.37" width="9.64" height="4.41"/><path class="cls-2" d="M436,230.28H425.32v-5.41H436Zm-9.64-1H435v-3.41h-8.64Z"/><rect class="cls-2" x="431.36" y="238.62" width="34.39" height="1" transform="translate(-54.15 314.41) rotate(-36.58)"/><rect class="cls-2" x="457.14" y="228.02" width="1" height="8.8" transform="translate(-44.1 340.65) rotate(-39.1)"/><rect class="cls-2" x="449.25" y="234.08" width="1" height="8.8" transform="translate(-49.67 337.07) rotate(-39.1)"/><rect class="cls-2" x="441.37" y="240.13" width="1" height="8.8" transform="translate(-55.27 333.38) rotate(-39.09)"/><path class="cls-3" d="M433,440.84V473.2H420.49v-8.08l-2.29,2.29-5.79,5.79H361.86v-18a6.08,6.08,0,0,1,6.08-6.08h21.49v-8.24Z"/><path class="cls-2" d="M433.48,473.7H420v-7.37l-7.37,7.37H361.36V455.16a6.59,6.59,0,0,1,6.58-6.58h21v-8.24h44.55Zm-12.49-1h11.49V441.34H389.93v8.24h-22a5.59,5.59,0,0,0-5.58,5.58V472.7H412.2l8.79-8.79Z"/><path class="cls-3" d="M504.09,455.16v18H453.54l-5.78-5.79-2.29-2.29v8.08H433V440.84h43.54v8.24H498A6.08,6.08,0,0,1,504.09,455.16Z"/><path class="cls-2" d="M504.59,473.7H453.33L446,466.33v7.37H432.48V440.34H477v8.24h21a6.59,6.59,0,0,1,6.58,6.58Zm-50.84-1h49.84V455.16a5.59,5.59,0,0,0-5.58-5.58H476v-8.24H433.48V472.7H445v-8.79Z"/><path class="cls-2" d="M531.09,269.61a13.09,13.09,0,0,0-11.23-8.53l-26.74-72.54h0a13.1,13.1,0,0,0-8.23-22.3l4.56,12.37-10.35,3.82-4.56-12.37a13.11,13.11,0,0,0,8.22,22.31h0l26.74,72.54h0a13.1,13.1,0,0,0,8.23,22.3l-4.56-12.37L523.52,271l4.56,12.37A13.07,13.07,0,0,0,531.09,269.61Z"/><path class="cls-2" d="M518.47,287.77l-.78-.06a13.6,13.6,0,0,1-8.76-22.93L482.4,192.84a13.61,13.61,0,0,1-8.21-23.13l.55-.55,4.66,12.63,9.41-3.47-4.66-12.64.78.06a13.6,13.6,0,0,1,8.76,22.93l26.53,71.94a13.61,13.61,0,0,1,8.21,23.13l-.55.55-4.66-12.63-9.41,3.47ZM474.35,171a12.61,12.61,0,0,0,8.45,20.88l.32,0,27,73.13-.23.23A12.6,12.6,0,0,0,517,286.62l-4.45-12.08,11.29-4.17,4.45,12.08a12.61,12.61,0,0,0,2.35-12.67h0a12.63,12.63,0,0,0-10.8-8.2l-.32,0-27-73.14.3-.29a12.61,12.61,0,0,0-7.2-21.3l4.45,12.08-11.29,4.17Z"/><path class="cls-4" d="M580.19,200.94v41.92A10.17,10.17,0,0,1,570,253H497.64a10.17,10.17,0,0,1-10.17-10.17V200.94Z"/><path class="cls-2" d="M570,253.53H497.64A10.68,10.68,0,0,1,487,242.86V200.44h93.72v42.42A10.68,10.68,0,0,1,570,253.53Zm-82-52.09v41.42a9.68,9.68,0,0,0,9.67,9.67H570a9.68,9.68,0,0,0,9.67-9.67V201.44Z"/><path class="cls-1" d="M524.87,200.94V253H497.64a10.17,10.17,0,0,1-10.17-10.17V200.94Z"/><path class="cls-2" d="M525.37,253.53H497.64A10.68,10.68,0,0,1,487,242.86V200.44h38.4ZM488,201.44v41.42a9.68,9.68,0,0,0,9.67,9.67h26.73V201.44Z"/><rect class="cls-3" x="432.48" y="354.58" width="1" height="86.26"/><rect class="cls-2" x="487.47" y="213.47" width="19.81" height="1"/><rect class="cls-2" x="487.47" y="226.49" width="19.81" height="1"/><rect class="cls-2" x="487.47" y="239.51" width="19.81" height="1"/><rect class="cls-2" x="267.45" y="276.38" width="19.81" height="1"/><rect class="cls-2" x="267.45" y="288.58" width="19.81" height="1"/><rect class="cls-2" x="267.45" y="300.78" width="19.81" height="1"/><path class="cls-2" d="M462.66,200.78h5.19a2.89,2.89,0,0,1,2.89,2.89v4.66a2.89,2.89,0,0,1-2.89,2.89h-5.19a0,0,0,0,1,0,0V200.78A0,0,0,0,1,462.66,200.78Z"/><path class="cls-2" d="M467.84,211.72h-5.69V200.28h5.69a3.39,3.39,0,0,1,3.39,3.39v4.66A3.39,3.39,0,0,1,467.84,211.72Zm-4.69-1h4.69a2.39,2.39,0,0,0,2.39-2.39v-4.66a2.39,2.39,0,0,0-2.39-2.39h-4.69Z"/><polygon class="cls-2" points="361.86 467.41 418.2 467.41 412.41 473.2 361.86 473.2 361.86 467.41"/><path class="cls-2" d="M412.62,473.7H361.36v-6.79h58Zm-50.26-1H412.2l4.79-4.79H362.36Z"/><rect class="cls-2" x="420.49" y="467.41" width="12.49" height="5.79"/><path class="cls-2" d="M433.48,473.7H420v-6.79h13.49Zm-12.49-1h11.49v-4.79H421Z"/><rect class="cls-2" x="432.98" y="467.41" width="12.49" height="5.79"/><path class="cls-2" d="M446,473.7H432.48v-6.79H446Zm-12.49-1H445v-4.79H433.48Z"/><polygon class="cls-2" points="504.09 467.41 504.09 473.2 453.54 473.2 447.76 467.41 504.09 467.41"/><path class="cls-2" d="M504.59,473.7H453.33l-6.78-6.79h58Zm-50.84-1h49.84v-4.79H449Z"/><rect class="cls-3" x="432.48" y="467.41" width="1" height="5.79"/><rect class="cls-2" x="300.18" y="472.69" width="260.09" height="1"/><rect class="cls-2" x="281.51" y="247.73" width="10.98" height="72.72"/><path class="cls-2" d="M293,321H281V247.23h12Zm-11-1h10V248.23H282Z"/><ellipse class="cls-2" cx="287" cy="209.46" rx="30.23" ry="43.99"/><path class="cls-2" d="M287,254c-16.95,0-30.73-20-30.73-44.49S270.06,165,287,165s30.73,20,30.73,44.49S303.95,254,287,254Zm0-88c-16.39,0-29.73,19.51-29.73,43.49S270.61,253,287,253s29.73-19.51,29.73-43.49S303.4,166,287,166Z"/><ellipse class="cls-1" cx="287" cy="209.46" rx="24.41" ry="35.52"/><path class="cls-2" d="M287,245.48c-13.73,0-24.91-16.16-24.91-36s11.17-36,24.91-36,24.91,16.16,24.91,36S300.74,245.48,287,245.48Zm0-71c-13.18,0-23.91,15.71-23.91,35s10.73,35,23.91,35,23.91-15.71,23.91-35S300.19,174.45,287,174.45Z"/><rect class="cls-2" x="267.53" y="207.28" width="37.75" height="1" transform="translate(-45.68 329.93) rotate(-56.15)"/><rect class="cls-2" x="274.14" y="198.36" width="16.98" height="1" transform="translate(-46.98 302.69) rotate(-52.62)"/><ellipse class="cls-2" cx="220.06" cy="178.36" rx="1.18" ry="1.64"/><ellipse class="cls-2" cx="220.06" cy="205.23" rx="1.18" ry="1.64"/><ellipse class="cls-2" cx="233.5" cy="191.8" rx="1.64" ry="1.18"/><ellipse class="cls-2" cx="206.63" cy="191.8" rx="1.64" ry="1.18"/><rect class="cls-2" x="219.56" y="181.71" width="1" height="20.18"/><rect class="cls-2" x="209.97" y="191.29" width="20.18" height="1"/><line class="cls-1" x1="225.27" y1="197" x2="214.86" y2="186.59"/><rect class="cls-2" x="219.56" y="184.44" width="1" height="14.71" transform="translate(-71.16 211.78) rotate(-45)"/><line class="cls-1" x1="214.86" y1="197" x2="225.27" y2="186.59"/><rect class="cls-2" x="212.71" y="191.29" width="14.71" height="1" transform="translate(-71.16 211.78) rotate(-45)"/><rect class="cls-2" x="326.03" y="126.8" width="1" height="18.76"/><rect class="cls-2" x="320.63" y="135.68" width="11.81" height="1"/><rect class="cls-2" x="345.61" y="157.93" width="1" height="13.08"/><rect class="cls-2" x="341.81" y="163.97" width="8.6" height="1"/><circle class="cls-3" cx="326.53" cy="347.43" r="4.37"/><circle class="cls-3" cx="313.48" cy="357.95" r="2.07"/><circle class="cls-3" cx="524.67" cy="171.21" r="4.97"/><circle class="cls-3" cx="592.92" cy="205.69" r="2.1"/><circle class="cls-3" cx="526.94" cy="448.55" r="4.97"/><circle class="cls-3" cx="508.62" cy="439.22" r="2.57"/></svg>