<svg id="layer" xmlns="http://www.w3.org/2000/svg" viewBox="0 0 800 600"><defs><style>.cls-1{fill:transparent;}.cls-2{fill:#a26bb4;}.cls-3{fill:#4b0062;}.cls-4{fill:#f48001;}.cls-5{fill:#f44b1b;}</style></defs><title>Halloween Party at home</title><rect class="cls-1" width="800" height="600"/><path class="cls-2" d="M596.9,338.12l-5.36,25.81H488.39V340.81a2.68,2.68,0,0,1,2.68-2.68Z"/><path class="cls-3" d="M592,364.43H487.89V340.81a3.19,3.19,0,0,1,3.18-3.18H597.52Zm-103.06-1H591.14l5.15-24.81H491.08a2.19,2.19,0,0,0-2.18,2.18Z"/><path class="cls-1" d="M507.14,338.12v25.81H488.39V340.81a2.68,2.68,0,0,1,2.68-2.68Z"/><path class="cls-3" d="M507.64,364.43H487.89V340.81a3.19,3.19,0,0,1,3.18-3.18h16.57Zm-18.75-1h17.75V338.62H491.08a2.19,2.19,0,0,0-2.18,2.18Z"/><path class="cls-3" d="M529.06,378.11,482.26,266a10.21,10.21,0,1,0-18.38,8.81L522.23,382a6.14,6.14,0,1,0,6.83-3.86Z"/><path class="cls-3" d="M528,390.79a6.65,6.65,0,0,1-6.64-6.64,6.58,6.58,0,0,1,.36-2.14l-58.24-107a10.71,10.71,0,1,1,19.28-9.24l46.7,111.86A6.64,6.64,0,0,1,528,390.79ZM472.84,260.23a9.71,9.71,0,0,0-8.52,14.35l58.46,107.35-.08.21A5.64,5.64,0,1,0,529,378.6l-.27,0-.1-.25L481.8,266.2a9.71,9.71,0,0,0-9-6Z"/><polygon class="cls-1" points="589.53 447.92 586.81 458.08 584.62 466.24 582.63 473.66 580.44 481.82 578.45 489.24 576.26 497.4 572.58 511.13 568.38 511.13 568.38 503.96 560.58 511.13 541.04 511.13 557.24 497.4 557.24 446.68 589.53 447.92"/><path class="cls-3" d="M573,511.63h-5.08V505.1l-7.1,6.53h-21.1l17.06-14.46v-51l33.43,1.28Zm-4.08-1h3.32l16.69-62.23-31.15-1.2v50.43l-15.34,13h18l8.5-7.81Z"/><polygon class="cls-1" points="619.25 289.14 619.25 350.93 555.62 350.93 555.62 311.46 535.87 311.46 542.75 299.75 559.14 271.88 559.82 270.72 559.83 270.72 582.92 277.88 619.25 289.14"/><path class="cls-3" d="M619.75,351.43H555.12V312H535l24.54-41.74.44,0,59.77,18.53Zm-63.63-1h62.63V289.51l-58.7-18.2L536.75,311h19.38Z"/><path class="cls-4" d="M619.25,289.14v45.92c-15-3.68-30-22.87-34.85-46a72.28,72.28,0,0,1-1.48-11.2Z"/><path class="cls-3" d="M619.75,335.7l-.62-.15c-15.54-3.8-30.35-23.3-35.22-46.36a72.8,72.8,0,0,1-1.49-11.28l0-.71,37.37,11.58Zm-36.29-57.13A72.47,72.47,0,0,0,584.89,289c4.73,22.4,18.9,41.36,33.86,45.44V289.51Z"/><polygon class="cls-3" points="619.25 169.63 619.25 289.14 559.83 270.72 562.91 265.47 567.93 256.93 619.25 169.63"/><path class="cls-3" d="M619.75,289.82,559.08,271l8.42-14.33,52.25-88.88Zm-59.17-19.39,58.17,18v-117Z"/><polygon class="cls-5" points="619.25 317.64 592.82 311.46 542.75 299.75 559.14 271.88 611.13 311.46 619.25 317.64"/><path class="cls-3" d="M621.42,318.66,542,300.09l17-28.94Zm-77.89-19.24,73.56,17.2-57.8-44Z"/><polygon class="cls-2" points="619.25 272.82 619.25 282.91 562.91 265.47 567.93 256.93 619.25 272.82"/><path class="cls-3" d="M619.75,283.59l-57.59-17.83,5.54-9.43,52.05,16.12Zm-56.09-18.41,55.09,17.05v-9l-50.59-15.66Z"/><polygon class="cls-1" points="151.47 219.77 151.47 267.76 110.95 267.76 110.95 219.77 121.09 219.77 121.09 234.31 141.33 234.31 141.33 219.77 151.47 219.77"/><path class="cls-3" d="M152,268.26H110.45v-49h11.14v14.54h19.24V219.27H152Zm-40.52-1H151v-47h-9.14v14.54H120.59V220.27h-9.14Z"/><line class="cls-1" x1="121.08" y1="246.24" x2="121.09" y2="234.31"/><rect class="cls-3" x="120.59" y="234.31" width="1" height="11.93"/><line class="cls-1" x1="141.33" y1="234.31" x2="141.34" y2="246.24"/><rect class="cls-3" x="140.84" y="234.31" width="1" height="11.93"/><rect class="cls-3" x="130.71" y="234.31" width="1" height="11.93"/><rect class="cls-3" x="483.48" y="88.87" width="1" height="116.16"/><path class="cls-4" d="M499.05,176.61a33.9,33.9,0,0,0-7.43.83,19.83,19.83,0,0,0-15.28,0,33.9,33.9,0,0,0-7.43-.83c-19.32,0-35,16.24-35,36.27s15.66,36.27,35,36.27A33.82,33.82,0,0,0,484,245.62a33.82,33.82,0,0,0,15.07,3.53c19.32,0,35-16.24,35-36.27S518.37,176.61,499.05,176.61Z"/><polygon class="cls-3" points="237.84 391.56 237.84 509.75 248.55 509.75 248.55 502.82 250.51 504.79 255.47 509.75 275.18 509.75 275.18 391.56 237.84 391.56"/><path class="cls-3" d="M275.68,510.25H255.27L249,504v6.22H237.34V391.06h38.34Zm-20-1h19V392.06H238.34V509.25H248v-7.64Z"/><rect class="cls-3" x="362.66" y="197.98" width="8.3" height="9.71"/><path class="cls-3" d="M371.45,208.19h-9.3V197.48h9.3Zm-8.3-1h7.3v-8.71h-7.3Z"/><rect class="cls-1" x="341.67" y="197.98" width="8.3" height="9.71"/><path class="cls-3" d="M350.47,208.19h-9.3V197.48h9.3Zm-8.3-1h7.3v-8.71h-7.3Z"/><rect class="cls-1" x="329.33" y="197.98" width="8.3" height="9.71"/><path class="cls-3" d="M338.13,208.19h-9.3V197.48h9.3Zm-8.3-1h7.3v-8.71h-7.3Z"/><rect class="cls-1" x="317" y="197.98" width="8.3" height="9.71"/><path class="cls-3" d="M325.79,208.19h-9.3V197.48h9.3Zm-8.3-1h7.3v-8.71h-7.3Z"/><rect class="cls-1" x="289.08" y="197.98" width="8.3" height="9.71"/><path class="cls-3" d="M297.87,208.19h-9.3V197.48h9.3Zm-8.3-1h7.3v-8.71h-7.3Z"/><rect class="cls-1" x="276.74" y="197.98" width="8.3" height="9.71"/><path class="cls-3" d="M285.54,208.19h-9.3V197.48h9.3Zm-8.3-1h7.3v-8.71h-7.3Z"/><path class="cls-1" d="M379.37,182.25v36.83H251.26V182.25H379.37m7-7H244.26v50.83H386.37V175.25Z"/><path class="cls-3" d="M386.87,226.58H243.76V174.75H386.87Zm-142.11-1H385.87V175.75H244.76Zm135.11-6H250.76V181.75H379.87Zm-128.11-1H378.87V182.75H251.76Z"/><polygon class="cls-3" points="203.55 386.12 157.35 494.9 175.48 502.61 181.99 499.97 184.56 498.93 181.85 505.31 191.71 509.5 237.91 400.71 203.55 386.12"/><path class="cls-3" d="M192,510.15l-10.78-4.58,2.43-5.73-8.15,3.3-18.79-8,46.59-109.71,35.28,15ZM182.51,505l8.94,3.8L237.25,401l-33.44-14.2L158,494.64l17.49,7.43,10-4Z"/><path class="cls-2" d="M141.63,471.42l-6,14.24,39.9,16.94L182,500l2.57-1-2.71,6.38,9.86,4.19L202.56,484l-34.36-14.59-2.76,6.5-17-7.2A5.21,5.21,0,0,0,141.63,471.42Z"/><path class="cls-3" d="M192,510.15l-10.78-4.58,2.43-5.73-8.15,3.3-40.55-17.22,6.24-14.7.46.2-.46-.2a5.71,5.71,0,0,1,7.49-3l16.5,7,2.76-6.5,35.28,15ZM182.51,505l8.94,3.8,10.46-24.62L168.46,470l-2.76,6.5-17.42-7.4a4.71,4.71,0,0,0-6.18,2.5l-5.85,13.78,39.25,16.67,10-4Z"/><rect class="cls-3" x="185.27" y="499.76" width="4.96" height="10.71" transform="matrix(0.39, -0.92, 0.92, 0.39, -350.57, 480.48)"/><path class="cls-3" d="M192,510.15l-10.78-4.58,2.33-5.49,10.78,4.58ZM182.51,505l8.94,3.8,1.55-3.65-8.94-3.8Z"/><polygon class="cls-3" points="137.53 481.09 135.59 485.66 175.48 502.61 181.99 499.97 137.53 481.09"/><path class="cls-3" d="M175.48,503.15l-40.55-17.22,2.33-5.49,46,19.55ZM136.24,485.4l39.25,16.67,5.19-2.1-42.89-18.21Z"/><rect class="cls-2" x="208.63" y="285.56" width="65.48" height="122.48" transform="translate(482.75 693.6) rotate(-180)"/><path class="cls-3" d="M274.62,408.54H208.13V285.06h66.48Zm-65.48-1h64.48V286.06H209.13Z"/><path class="cls-4" d="M151.47,276.3V260.09H111v54.22a7.35,7.35,0,0,0,7.35,7.35h58.55V426.53H220.8V276.3Z"/><path class="cls-3" d="M221.3,427H176.36V322.16H118.3a7.86,7.86,0,0,1-7.85-7.85V259.58H152V275.8H221.3Zm-43.94-1H220.3V276.8H151V260.58H111.45v53.72a6.86,6.86,0,0,0,6.85,6.85h59.05Z"/><polygon class="cls-4" points="354.71 276.31 354.71 323.09 295.26 323.09 295.26 426.53 262.22 426.53 262.22 276.3 354.71 276.31"/><path class="cls-3" d="M295.76,427h-34V275.8h93.48v47.78H295.76Zm-33-1h32V322.59h59.45V276.81H262.72Z"/><rect class="cls-1" x="244.26" y="201.91" width="142.11" height="84.54"/><path class="cls-3" d="M386.87,287H243.76V201.41H386.87Zm-142.11-1H385.87V202.41H244.76Z"/><rect class="cls-1" x="295.96" y="214.65" width="46.81" height="71.81"/><path class="cls-3" d="M343.27,287H295.46V214.15h47.81Zm-46.81-1h45.81V215.15H296.46Z"/><rect class="cls-3" x="294.76" y="302.13" width="1" height="124.4"/><polygon class="cls-5" points="208.93 340.12 198.83 354.77 220.8 392.5 220.8 276.3 210.2 276.3 192.17 325.68 208.93 340.12"/><path class="cls-3" d="M221.3,394.36l-23.06-39.61,10-14.54-16.69-14.37.12-.33,18.15-49.7H221.3Zm-21.88-39.57,20.88,35.86V276.8h-9.75l-17.79,48.72L209.6,340Z"/><polygon class="cls-5" points="262.22 276.3 262.22 385.91 280.35 354.77 270.25 340.12 287.01 325.68 268.98 276.3 262.22 276.3"/><path class="cls-3" d="M261.72,387.76v-112h7.61l18.27,50L270.92,340.2l10,14.54-.16.27Zm1-111V384.06l17-29.27L269.58,340l16.84-14.51L268.63,276.8Z"/><path class="cls-1" d="M205.86,270.07H207V235.52a6.54,6.54,0,0,1,.53-2.6,6.68,6.68,0,0,1,6.17-4.1h60.56a6.7,6.7,0,0,1,6.71,6.7v78.22a6.7,6.7,0,0,1-6.71,6.71H213.7a6.7,6.7,0,0,1-6.71-6.71V291.22h-1.13a4.61,4.61,0,0,1-4.61-4.61V274.68A4.61,4.61,0,0,1,205.86,270.07Z"/><path class="cls-3" d="M274.26,320.95H213.7a7.21,7.21,0,0,1-7.21-7.21v-22h-.63a5.11,5.11,0,0,1-5.11-5.11V274.68a5.11,5.11,0,0,1,5.11-5.11h.63v-34a7,7,0,0,1,.57-2.8,7.15,7.15,0,0,1,6.63-4.4h60.56a7.21,7.21,0,0,1,7.21,7.2v78.22A7.21,7.21,0,0,1,274.26,320.95Zm-68.4-50.37a4.11,4.11,0,0,0-4.11,4.11v11.93a4.11,4.11,0,0,0,4.11,4.11h1.63v23a6.21,6.21,0,0,0,6.21,6.21h60.56a6.21,6.21,0,0,0,6.21-6.21V235.52a6.21,6.21,0,0,0-6.21-6.2H213.7a6.16,6.16,0,0,0-5.71,3.79,6,6,0,0,0-.49,2.41v35Z"/><polygon class="cls-4" points="254.06 271.36 258.53 289.63 249.59 289.63 254.06 271.36"/><path class="cls-3" d="M207,235.52v34.55h6.41V232.93h-5.88A6.54,6.54,0,0,0,207,235.52Z"/><path class="cls-3" d="M213.91,270.57H206.5v-35a7,7,0,0,1,.57-2.8l.13-.3h6.71Zm-6.41-1h5.41V233.43h-5a6.06,6.06,0,0,0-.37,2.1Z"/><path class="cls-3" d="M207,235.52V245l6.11-3.4.31.17,5.86,3.26,6.17-3.43,6.17,3.43,6.17-3.43L244,245l6.17-3.43,6.17,3.43,6.17-3.43,6.17,3.43,6.17-3.43L281,245v-9.5a6.7,6.7,0,0,0-6.71-6.7H213.7a6.68,6.68,0,0,0-6.17,4.1A6.54,6.54,0,0,0,207,235.52Z"/><path class="cls-3" d="M281.47,245.87l-6.67-3.7-6.17,3.43-6.17-3.43-6.17,3.43-6.17-3.43L244,245.61l-6.17-3.43-6.17,3.43-6.17-3.43-6.17,3.43-6.17-3.43-6.61,3.67V235.52a7,7,0,0,1,.57-2.8,7.15,7.15,0,0,1,6.63-4.4h60.56a7.21,7.21,0,0,1,7.21,7.2Zm-56-4.84,6.17,3.43,6.17-3.43,6.17,3.43,6.17-3.43,6.17,3.43,6.17-3.43,6.17,3.43L274.8,241l5.67,3.14v-8.65a6.21,6.21,0,0,0-6.21-6.2H213.7a6.16,6.16,0,0,0-5.71,3.79,6,6,0,0,0-.49,2.41v8.62L213.1,241l6.17,3.43Z"/><rect class="cls-2" x="285.48" y="243.57" width="6.85" height="16.51" transform="translate(577.8 503.66) rotate(-180)"/><path class="cls-3" d="M292.82,260.58H285V243.07h7.84Zm-6.84-1h5.84V244.07H286Z"/><rect class="cls-2" x="280.96" y="249.1" width="4.51" height="5.46" transform="translate(566.44 503.66) rotate(-180)"/><path class="cls-3" d="M286,255.06h-5.51V248.6H286Zm-4.51-1H285V249.6h-3.51Z"/><rect class="cls-2" x="204" y="243.57" width="6.85" height="16.51"/><path class="cls-3" d="M211.34,260.58H203.5V243.07h7.84Zm-6.84-1h5.84V244.07H204.5Z"/><rect class="cls-2" x="210.84" y="249.1" width="7.16" height="5.46"/><path class="cls-3" d="M218.5,255.06h-8.16V248.6h8.16Zm-7.16-1h6.16V249.6h-6.16Z"/><rect class="cls-3" x="220.8" y="251.75" width="60.16" height="1"/><rect class="cls-3" x="226.61" y="249.1" width="1" height="5.98"/><rect class="cls-3" x="238.5" y="249.1" width="1" height="5.98"/><rect class="cls-3" x="250.38" y="249.1" width="1" height="5.98"/><rect class="cls-3" x="262.27" y="249.1" width="1" height="5.98"/><rect class="cls-3" x="274.15" y="249.1" width="1" height="5.98"/><rect class="cls-3" x="225.78" y="258.56" width="51.91" height="4.81" transform="translate(503.48 521.92) rotate(-180)"/><path class="cls-3" d="M278.2,263.86H225.28v-5.81H278.2Zm-51.91-1H277.2v-3.81H226.28Z"/><path class="cls-1" d="M260.62,264.42a7.6,7.6,0,1,0,15.19,0,7.1,7.1,0,0,0-.08-1.05h-15A7.1,7.1,0,0,0,260.62,264.42Z"/><path class="cls-3" d="M268.22,272.52a8.11,8.11,0,0,1-8.1-8.1,7.62,7.62,0,0,1,.08-1.13l.06-.43h15.9l.06.43a7.6,7.6,0,0,1,.08,1.13A8.11,8.11,0,0,1,268.22,272.52Zm-7.07-8.65c0,.18,0,.37,0,.55a7.1,7.1,0,0,0,14.19,0c0-.19,0-.37,0-.55Z"/><path class="cls-5" d="M267.15,264.36a3.4,3.4,0,1,0,6.81,0,3.49,3.49,0,0,0-.15-1h-6.52A3.49,3.49,0,0,0,267.15,264.36Z"/><path class="cls-3" d="M270.55,268.26a3.91,3.91,0,0,1-3.9-3.9,4,4,0,0,1,.17-1.14l.11-.36h7.26l.11.36a4,4,0,0,1,.17,1.14A3.91,3.91,0,0,1,270.55,268.26Zm-2.86-4.4a3,3,0,0,0,0,.49,2.9,2.9,0,1,0,5.81,0,3,3,0,0,0,0-.49Z"/><path class="cls-1" d="M231.72,264.42a7.6,7.6,0,0,0,15.19,0,7.1,7.1,0,0,0-.08-1.05h-15A7.1,7.1,0,0,0,231.72,264.42Z"/><path class="cls-3" d="M239.31,272.52a8.11,8.11,0,0,1-8.1-8.1,7.62,7.62,0,0,1,.08-1.13l.06-.43h15.9l.06.43a7.62,7.62,0,0,1,.08,1.13A8.11,8.11,0,0,1,239.31,272.52Zm-7.07-8.65c0,.18,0,.37,0,.55a7.1,7.1,0,1,0,14.19,0c0-.19,0-.37,0-.55Z"/><path class="cls-5" d="M238.24,264.36a3.4,3.4,0,1,0,6.8,0,3.49,3.49,0,0,0-.15-1h-6.51A3.49,3.49,0,0,0,238.24,264.36Z"/><path class="cls-3" d="M241.64,268.26a3.91,3.91,0,0,1-3.9-3.9,4,4,0,0,1,.17-1.14l.11-.36h7.25l.11.36a4,4,0,0,1,.17,1.14A3.9,3.9,0,0,1,241.64,268.26Zm-2.86-4.4a3,3,0,0,0,0,.49,2.9,2.9,0,1,0,5.8,0,3,3,0,0,0,0-.49Z"/><rect class="cls-3" x="223.98" y="294.3" width="1" height="29.49" transform="translate(-157.46 304.93) rotate(-53.39)"/><rect class="cls-3" x="212.92" y="302.8" width="7.54" height="1" transform="translate(-155.33 279.97) rotate(-50.87)"/><rect class="cls-3" x="219.68" y="307.99" width="7.54" height="1" transform="translate(-156.86 287.13) rotate(-50.87)"/><rect class="cls-3" x="226.44" y="313.18" width="7.54" height="1" transform="translate(-158.4 294.29) rotate(-50.87)"/><path class="cls-2" d="M237.84,482v27.75h10.71v-6.93l2,2,5,5h43.34V494.28a5.21,5.21,0,0,0-5.21-5.21H275.18V482Z"/><path class="cls-3" d="M299.32,510.25H255.27L249,504v6.22H237.34V481.5h38.34v7.07h17.93a5.72,5.72,0,0,1,5.71,5.71Zm-43.64-1h42.64v-15a4.72,4.72,0,0,0-4.71-4.71H274.68V482.5H238.34v26.75H248v-7.64Z"/><rect class="cls-2" x="237.34" y="408.04" width="1" height="73.96"/><path class="cls-3" d="M205.47,276.17h4a2.89,2.89,0,0,1,2.89,2.89v3.17a2.89,2.89,0,0,1-2.89,2.89h-4a0,0,0,0,1,0,0v-9A0,0,0,0,1,205.47,276.17Z" transform="translate(417.86 561.29) rotate(-180)"/><path class="cls-3" d="M212.89,285.62h-4.54a3.39,3.39,0,0,1-3.39-3.39v-3.17a3.39,3.39,0,0,1,3.39-3.39h4.54Zm-4.54-9a2.39,2.39,0,0,0-2.39,2.39v3.17a2.39,2.39,0,0,0,2.39,2.39h3.54v-8Z"/><polygon class="cls-3" points="298.82 504.79 250.51 504.79 255.47 509.75 298.82 509.75 298.82 504.79"/><path class="cls-3" d="M299.32,510.25H255.27l-6-6h50Zm-43.64-1h42.64v-4h-46.6Z"/><rect class="cls-3" x="237.84" y="504.79" width="10.71" height="4.96"/><path class="cls-3" d="M249,510.25H237.34v-6H249Zm-10.71-1H248v-4h-9.71Z"/><rect class="cls-2" x="237.34" y="504.79" width="1" height="4.96"/><rect class="cls-3" x="128.69" y="509.25" width="223.02" height="1"/><rect class="cls-3" x="150.97" y="276.3" width="1" height="13.33"/><rect class="cls-3" x="176.86" y="321.16" width="7.43" height="1"/><rect class="cls-3" x="507.88" y="144.96" width="1" height="16.09"/><rect class="cls-3" x="503.32" y="152.51" width="10.12" height="1"/><rect class="cls-3" x="533.27" y="164.02" width="1" height="11.22"/><rect class="cls-3" x="530.08" y="169.13" width="7.37" height="1"/><polyline class="cls-1" points="148.03 254.56 127.04 254.56 127.04 246.24 148.03 246.24"/><polygon class="cls-3" points="148.03 255.06 126.54 255.06 126.54 245.74 148.03 245.74 148.03 246.74 127.54 246.74 127.54 254.06 148.03 254.06 148.03 255.06"/><path class="cls-3" d="M274.64,298.25v.14a8.47,8.47,0,0,1-5.1,7.77,8.29,8.29,0,0,1-3.38.71H236.38a7.72,7.72,0,0,1-7.72-8,7.38,7.38,0,0,1,2.19-4.8c4.06-4.22,8.8-2.9,10.63.3a5.06,5.06,0,0,0,4.36,2.67h12.61a4.8,4.8,0,0,0,4.27-2.42A6.08,6.08,0,0,1,270,291.7,6.78,6.78,0,0,1,274.64,298.25Z"/><path class="cls-3" d="M266.16,307.37H236.38a8.22,8.22,0,0,1-8.22-8.51,7.88,7.88,0,0,1,2.33-5.13,8,8,0,0,1,6.68-2.77,6.4,6.4,0,0,1,4.74,3.17,4.54,4.54,0,0,0,3.93,2.42h12.61a4.32,4.32,0,0,0,3.83-2.15,6.58,6.58,0,0,1,7.82-3.17,7.29,7.29,0,0,1,5,7v.14a9,9,0,0,1-5.4,8.23A8.74,8.74,0,0,1,266.16,307.37Zm-29.78-15.46a7.31,7.31,0,0,0-5.17,2.51,6.88,6.88,0,0,0-2,4.47,7.22,7.22,0,0,0,7.22,7.47h29.78a7.73,7.73,0,0,0,3.18-.67,8,8,0,0,0,4.8-7.31v-.14a6.29,6.29,0,0,0-4.33-6.07,5.59,5.59,0,0,0-6.65,2.69,5.26,5.26,0,0,1-4.71,2.68H245.84a5.53,5.53,0,0,1-4.79-2.92,5.36,5.36,0,0,0-4.66-2.71Z"/><rect class="cls-1" x="236.9" y="302.91" width="8.77" height="3.96"/><path class="cls-3" d="M246.17,307.37H236.4v-5h9.77Zm-8.77-1h7.77v-3H237.4Z"/><rect class="cls-1" x="257.26" y="302.91" width="8.77" height="3.96"/><path class="cls-3" d="M266.53,307.37h-9.77v-5h9.77Zm-8.77-1h7.77v-3h-7.77Z"/><circle class="cls-1" cx="253.27" cy="215.28" r="4.43"/><path class="cls-3" d="M253.27,220.22a4.93,4.93,0,1,1,4.94-4.94A4.94,4.94,0,0,1,253.27,220.22Zm0-8.87a3.93,3.93,0,1,0,3.94,3.93A3.94,3.94,0,0,0,253.27,211.35Z"/><circle class="cls-1" cx="377.35" cy="215.28" r="4.43"/><path class="cls-3" d="M377.35,220.22a4.93,4.93,0,1,1,4.93-4.94A4.94,4.94,0,0,1,377.35,220.22Zm0-8.87a3.93,3.93,0,1,0,3.93,3.93A3.94,3.94,0,0,0,377.35,211.35Z"/><path class="cls-2" d="M364.57,272.86c-7.87,0-14-8.33-14-19s6.16-19,14-19,14,8.33,14,19S372.44,272.86,364.57,272.86Z"/><path class="cls-3" d="M364.57,273.36c-8.15,0-14.53-8.55-14.53-19.47s6.38-19.47,14.53-19.47S379.1,243,379.1,253.89,372.72,273.36,364.57,273.36Zm0-37.94c-7.59,0-13.53,8.11-13.53,18.47s5.94,18.47,13.53,18.47,13.53-8.11,13.53-18.47S372.16,235.42,364.57,235.42Z"/><rect class="cls-1" x="262.41" y="210.85" width="105.8" height="8.87"/><path class="cls-3" d="M368.71,220.22H261.91v-9.87h106.8Zm-105.8-1h104.8v-7.87H262.91Z"/><rect class="cls-1" x="262.41" y="210.85" width="39.34" height="8.87"/><path class="cls-3" d="M302.25,220.22H261.91v-9.87h40.34Zm-39.34-1h38.34v-7.87H262.91Z"/><rect class="cls-1" x="302.43" y="232.85" width="33.87" height="19.19"/><path class="cls-3" d="M336.8,252.55H301.93V232.35H336.8Zm-33.87-1H335.8V233.35H302.93Z"/><rect class="cls-3" x="307.51" y="239.19" width="23.71" height="6.52"/><path class="cls-3" d="M331.72,246.21H307v-7.52h24.71Zm-23.71-1h22.71v-5.52H308Z"/><circle class="cls-1" cx="312.16" cy="242.45" r="2.24"/><path class="cls-3" d="M312.16,245.19a2.74,2.74,0,1,1,2.74-2.74A2.75,2.75,0,0,1,312.16,245.19Zm0-4.48a1.74,1.74,0,1,0,1.74,1.74A1.74,1.74,0,0,0,312.16,240.71Z"/><circle class="cls-1" cx="326.56" cy="242.45" r="2.24"/><path class="cls-3" d="M326.56,245.19a2.74,2.74,0,1,1,2.74-2.74A2.75,2.75,0,0,1,326.56,245.19Zm0-4.48a1.74,1.74,0,1,0,1.74,1.74A1.74,1.74,0,0,0,326.56,240.71Z"/><rect class="cls-3" x="305.5" y="260.24" width="1" height="14.78"/><rect class="cls-3" x="323.32" y="260.24" width="1" height="14.78"/><rect class="cls-3" x="314.41" y="260.24" width="1" height="14.78"/><rect class="cls-3" x="332.23" y="260.24" width="1" height="14.78"/><rect class="cls-3" x="304.29" y="267.02" width="3.41" height="4.94"/><path class="cls-3" d="M308.2,272.46h-4.41v-5.94h4.41Zm-3.41-1h2.41v-3.94h-2.41Z"/><rect class="cls-3" x="313.2" y="260.04" width="3.41" height="4.94"/><path class="cls-3" d="M317.11,265.48H312.7v-5.94h4.41Zm-3.41-1h2.41v-3.94H313.7Z"/><rect class="cls-3" x="331.02" y="260.04" width="3.41" height="4.94"/><path class="cls-3" d="M334.94,265.48h-4.41v-5.94h4.41Zm-3.41-1h2.41v-3.94h-2.41Z"/><rect class="cls-3" x="322.11" y="263.07" width="3.41" height="4.94"/><path class="cls-3" d="M326,268.52h-4.41v-5.94H326Zm-3.41-1H325v-3.94h-2.41Z"/><rect class="cls-3" x="393.55" y="241.44" width="13.03" height="1" transform="translate(-64.73 191.44) rotate(-24.96)"/><rect class="cls-3" x="399.56" y="256.86" width="1" height="12.42" transform="translate(26.69 562.82) rotate(-72.09)"/><rect class="cls-3" x="394.15" y="251.88" width="15.2" height="1" transform="translate(-10.93 18.3) rotate(-2.57)"/><polygon class="cls-3" points="483.98 191.48 477.72 213.51 490.24 213.51 483.98 191.48"/><polygon class="cls-3" points="497.64 194.82 494.38 205.54 505.07 203.22 497.64 194.82"/><polygon class="cls-3" points="470.32 194.82 473.59 205.54 462.9 203.22 470.32 194.82"/><polygon class="cls-3" points="451.62 207.1 457.86 227.34 464.7 225.16 470.74 233.88 479.64 228.47 488.02 234.91 497.63 227.03 504.07 230.82 509.08 221.72 513.89 224.17 516.34 203.42 510.72 214.15 506.63 212.88 500.8 221.31 492.93 218.65 486.9 224.38 478.51 218.24 470.23 223.35 464.92 214.97 460.52 216.81 451.62 207.1"/><rect class="cls-3" x="589.72" y="211.78" width="1" height="136.73" transform="translate(147.82 760.89) rotate(-72.77)"/><circle class="cls-3" cx="401.69" cy="167" r="3.32"/><path class="cls-3" d="M401.69,170.81A3.82,3.82,0,1,1,405.5,167,3.82,3.82,0,0,1,401.69,170.81Zm0-6.63A2.82,2.82,0,1,0,404.5,167,2.82,2.82,0,0,0,401.69,164.18Z"/><circle class="cls-3" cx="411.22" cy="167" r="3.32"/><path class="cls-3" d="M411.22,170.81A3.82,3.82,0,1,1,415,167,3.82,3.82,0,0,1,411.22,170.81Zm0-6.63A2.82,2.82,0,1,0,414,167,2.82,2.82,0,0,0,411.22,164.18Z"/><polygon class="cls-3" points="415.04 167 414.04 167 414.04 155.88 405.5 155.88 405.5 167 404.5 167 404.5 154.88 415.04 154.88 415.04 167"/><circle class="cls-3" cx="378.32" cy="141.2" r="3.32" transform="translate(-22.95 96.02) rotate(-14.04)"/><path class="cls-3" d="M378.32,145a3.82,3.82,0,0,1-.93-7.52,3.82,3.82,0,1,1,.93,7.52Zm0-6.63a2.83,2.83,0,0,0-.69.08,2.8,2.8,0,1,0,.69-.08Z"/><polygon class="cls-3" points="381.06 140.51 378.11 128.75 384.31 127.2 384.55 128.17 379.33 129.48 382.03 140.27 381.06 140.51"/><rect class="cls-3" x="379.59" y="131.76" width="5.3" height="1" transform="translate(-20.72 97.32) rotate(-14.13)"/><path class="cls-5" d="M630.61,308.7c.2,2.33-1.14,5.07-3.66,7s-5.52,2.43-7.7,1.6Z"/><path class="cls-3" d="M621.43,318.14a6.57,6.57,0,0,1-2.35-.41l-.84-.32,12.8-9.65.08.9c.22,2.57-1.29,5.47-3.85,7.41A9.92,9.92,0,0,1,621.43,318.14ZM620.37,317a9.06,9.06,0,0,0,9.74-7.34Z"/><path class="cls-5" d="M619.26,317.92c2.22-.72,5.19,0,7.6,2s3.61,4.83,3.28,7.15Z"/><path class="cls-3" d="M630.51,328l-12.27-10.31.86-.28c2.45-.79,5.62,0,8.08,2.1s3.81,5,3.45,7.6Zm-10.16-9.85,9.33,7.85a9.06,9.06,0,0,0-9.33-7.85Z"/><ellipse class="cls-4" cx="625.72" cy="331.83" rx="6.46" ry="6.02"/><path class="cls-3" d="M625.72,338.35a6.54,6.54,0,1,1,7-6.52A6.76,6.76,0,0,1,625.72,338.35Zm0-12a5.54,5.54,0,1,0,6,5.52A5.76,5.76,0,0,0,625.72,326.31Z"/><ellipse class="cls-4" cx="638.64" cy="331.83" rx="6.46" ry="6.02"/><path class="cls-3" d="M638.64,338.35a6.54,6.54,0,1,1,7-6.52A6.76,6.76,0,0,1,638.64,338.35Zm0-12a5.54,5.54,0,1,0,6,5.52A5.76,5.76,0,0,0,638.64,326.31Z"/><ellipse class="cls-4" cx="651.56" cy="331.83" rx="6.46" ry="6.02"/><path class="cls-3" d="M651.56,338.35a6.54,6.54,0,1,1,7-6.52A6.76,6.76,0,0,1,651.56,338.35Zm0-12a5.54,5.54,0,1,0,6,5.52A5.76,5.76,0,0,0,651.56,326.31Z"/><ellipse class="cls-4" cx="664.48" cy="331.83" rx="6.46" ry="6.02"/><path class="cls-3" d="M664.48,338.35a6.54,6.54,0,1,1,7-6.52A6.76,6.76,0,0,1,664.48,338.35Zm0-12a5.54,5.54,0,1,0,6,5.52A5.76,5.76,0,0,0,664.48,326.31Z"/><polygon class="cls-4" points="670.94 331.83 683.58 344.79 683.08 337.04 689.05 335.71 683.01 331.07 689.05 326.24 682.3 325.81 684.29 319.28 670.94 331.83"/><path class="cls-3" d="M684.16,346.1l-13.94-14.29,15.09-14.19L683,325.35l7.41.48-6.55,5.24,6.38,4.9-6.59,1.47Zm-12.51-14.26L683,343.47l-.44-6.82,5.34-1.19-5.7-4.38,5.53-4.42-6.09-.39,1.63-5.34Z"/><path class="cls-3" d="M555.64,328.18l0-1L560,327a9.35,9.35,0,0,0,8.94-8.85l.13-2.38,1,.06-.13,2.38A10.35,10.35,0,0,1,560,328Z"/><circle class="cls-2" cx="659.82" cy="233.76" r="3.14"/><circle class="cls-2" cx="672.1" cy="244.93" r="2.48"/><circle class="cls-2" cx="323.69" cy="347.65" r="2.68"/><circle class="cls-2" cx="358.64" cy="369.04" r="4.72"/><circle class="cls-2" cx="366.13" cy="354.19" r="2.77"/><circle class="cls-2" cx="199.11" cy="176.23" r="5.92"/><circle class="cls-2" cx="181.65" cy="168.39" r="3.15"/><polygon class="cls-4" points="414.17 490.27 414.6 487.39 417.38 486.43 409.5 476.74 409.27 489.23 412.05 488.27 414.17 490.27"/><path class="cls-3" d="M414.52,491.29l-2.6-2.45-3.17,1.09.26-14.57,9.2,11.31-3.17,1.09Zm-2.35-3.6,1.64,1.55.34-2.24,2.39-.82L410,478.11l-.19,10.41Z"/><polygon class="cls-4" points="405.25 460.3 403.13 458.3 402.7 461.18 399.92 462.14 407.81 471.83 408.03 459.34 405.25 460.3"/><path class="cls-3" d="M408.28,473.21l-9.2-11.31,3.17-1.09.53-3.53,2.6,2.45,3.17-1.09Zm-7.52-10.83,6.57,8.08.19-10.41-2.39.83-1.64-1.55-.34,2.24Z"/><circle class="cls-4" cx="408.65" cy="474.28" r="5.81" transform="translate(-132.39 159.3) rotate(-19.04)"/><path class="cls-3" d="M408.66,480.6a6.32,6.32,0,1,1,2.06-.35A6.32,6.32,0,0,1,408.66,480.6Zm0-11.63a5.32,5.32,0,0,0-1.74.29h0a5.28,5.28,0,1,0,1.74-.29Z"/><polygon class="cls-2" points="412.72 337.84 415.27 336.43 417.72 338.05 420.63 325.9 410.57 333.31 413.02 334.94 412.72 337.84"/><path class="cls-3" d="M418,338.86,415.25,337l-3.13,1.73.37-3.55-2.79-1.85,11.73-8.65Zm-2.75-3,2.11,1.4,2.42-10.12-8.38,6.18,2.11,1.39-.23,2.25Z"/><polygon class="cls-2" points="431.1 312.54 431.4 309.63 428.84 311.04 426.39 309.42 423.49 321.57 433.55 314.16 431.1 312.54"/><path class="cls-3" d="M422.69,322.79l3.38-14.18,2.79,1.85,3.13-1.73-.37,3.55,2.79,1.85Zm4-12.55-2.42,10.13,8.38-6.18-2.11-1.39.23-2.25-2,1.09Z"/><circle class="cls-2" cx="422.06" cy="323.74" r="5.81" transform="translate(-80.89 496.88) rotate(-56.49)"/><path class="cls-3" d="M422,330a6.31,6.31,0,1,1,3.5-11.58h0A6.31,6.31,0,0,1,422,330Zm0-11.63a5.31,5.31,0,1,0,2.93.88h0A5.28,5.28,0,0,0,422.07,318.42Z"/><polygon class="cls-1" points="455.15 381.4 450.75 382.24 453.01 386.1 450.88 389.24 459.25 386.1 456.12 377.73 455.15 381.4"/><path class="cls-3" d="M449.58,390.26l2.85-4.18-2.46-4.2,4.78-.91,1.28-4.89,3.86,10.32Zm2-7.66,2.06,3.52-1.43,2.1,6.43-2.41-2.41-6.43-.64,2.45Z"/><polygon class="cls-1" points="492.49 401.24 490.23 397.37 492.37 394.23 483.99 397.37 487.13 405.74 488.09 402.07 492.49 401.24"/><path class="cls-3" d="M487.21,407.39l-3.86-10.32,10.32-3.86-2.85,4.18,2.46,4.2-4.78.91Zm-2.57-9.73,2.41,6.43.64-2.45,4-.76-2.06-3.52,1.43-2.1Z"/><path class="cls-1" d="M486.28,396.63l-1.34,2.94a2.62,2.62,0,0,1-3.47,1.3l-23.21-10.57a2.63,2.63,0,0,1-1.3-3.47l1.34-2.94a2.62,2.62,0,0,1,3.47-1.3L485,393.16a2.63,2.63,0,0,1,1.3,3.47Z"/><path class="cls-3" d="M482.55,401.61a3.1,3.1,0,0,1-1.29-.28l-23.21-10.57a3.13,3.13,0,0,1-1.55-4.13l1.34-2.94a3.12,3.12,0,0,1,4.13-1.55l23.21,10.57a3.06,3.06,0,0,1,1.43,1.32,3.11,3.11,0,0,1,.12,2.82l-.46-.21.46.21-1.34,2.94A3.13,3.13,0,0,1,482.55,401.61Zm-21.86-18.75a2.12,2.12,0,0,0-1.93,1.24L457.42,387a2.13,2.13,0,0,0,1.05,2.81l23.21,10.57a2.12,2.12,0,0,0,2.81-1.05l1.34-2.94a2.11,2.11,0,0,0-.08-1.92,2.08,2.08,0,0,0-1-.89L461.57,383A2.12,2.12,0,0,0,460.69,382.86Z"/><path class="cls-5" d="M463.11,383.2,456.94,389a2.59,2.59,0,0,1,0-2.13l1.34-2.94a2.62,2.62,0,0,1,3.47-1.3Z"/><path class="cls-3" d="M456.77,389.81l-.28-.65a3.11,3.11,0,0,1,0-2.54l1.34-2.94a3.12,3.12,0,0,1,4.13-1.55l2,.92Zm3.92-7a2.13,2.13,0,0,0-1.93,1.24L457.42,387a2.11,2.11,0,0,0-.19,1l5-4.67-.66-.3A2.12,2.12,0,0,0,460.69,382.86Z"/><polygon class="cls-5" points="470.94 386.76 464.23 393.03 460.01 391.11 466.72 384.85 470.94 386.76"/><path class="cls-3" d="M464.33,393.62l-5.2-2.37,7.5-7,5.2,2.37ZM460.9,391l3.23,1.47,5.91-5.52-3.23-1.47Z"/><polygon class="cls-5" points="478.76 390.32 472.05 396.59 467.84 394.67 474.55 388.41 478.76 390.32"/><path class="cls-3" d="M472.15,397.18l-5.2-2.37,7.5-7,5.19,2.37Zm-3.42-2.66L472,396l5.91-5.52L474.64,389Z"/><path class="cls-5" d="M486.18,394.26l-6.3,5.89-4.22-1.92,6.71-6.26,2.61,1.19A2.58,2.58,0,0,1,486.18,394.26Z"/><path class="cls-3" d="M480,400.74l-5.2-2.37,7.5-7,2.92,1.33a3.06,3.06,0,0,1,1.43,1.32l.19.34Zm-3.42-2.66,3.23,1.47,5.75-5.37a2.09,2.09,0,0,0-.75-.57l-2.31-1.05Z"/><polygon class="cls-2" points="669.22 458.08 536.93 458.08 560.33 344.78 638.64 344.78 621.38 364.28 669.22 458.08"/><path class="cls-3" d="M670,458.58H536.32l.13-.6,23.48-113.7h79.83L622,364.36Zm-132.49-1H668.41l-47.62-93.38L621,364l16.52-18.67H560.74Z"/><path class="cls-2" d="M608.2,344.78l-5.36,25.81H499.69V347.47a2.68,2.68,0,0,1,2.68-2.68Z"/><path class="cls-3" d="M603.25,371.09H499.19V347.47a3.19,3.19,0,0,1,3.18-3.18H608.82Zm-103.06-1H602.44l5.15-24.81H502.38a2.19,2.19,0,0,0-2.18,2.18Z"/><polygon class="cls-3" points="576.26 497.4 572.58 511.13 568.38 511.13 568.38 503.96 560.58 511.13 541.04 511.13 557.24 497.4 576.26 497.4"/><path class="cls-3" d="M573,511.63h-5.08V505.1l-7.1,6.53h-21.1l17.38-14.73h19.85Zm-4.08-1h3.32l3.41-12.73H557.43l-15,12.73h18l8.5-7.81Z"/><polygon class="cls-5" points="578.45 489.24 576.26 497.4 557.24 497.4 557.24 489.24 578.45 489.24"/><path class="cls-3" d="M576.65,497.9h-19.9v-9.16h22.36Zm-18.9-1h18.14l1.92-7.16H557.74Z"/><polygon class="cls-5" points="582.63 473.66 580.44 481.82 557.24 481.82 557.24 473.66 582.63 473.66"/><path class="cls-3" d="M580.83,482.32H556.74v-9.16h26.54Zm-23.08-1h22.32l1.92-7.16H557.74Z"/><polygon class="cls-5" points="586.81 458.08 584.62 466.24 557.24 466.24 557.24 458.08 586.81 458.08"/><path class="cls-3" d="M585,466.74H556.74v-9.16h30.72Zm-27.26-1h26.5l1.92-7.16H557.74Z"/><polygon class="cls-1" points="655.7 431.57 660.5 440.92 664.36 448.44 667.87 455.27 671.72 462.79 675.23 469.63 679.08 477.15 685.57 489.79 682.46 492.61 677.65 487.3 676.68 497.85 662.2 510.97 664.99 489.92 630.93 452.32 655.7 431.57"/><path class="cls-3" d="M661.52,512.25l2.94-22.17-34.25-37.8,25.64-21.49,30.33,59.12-3.77,3.41L678,488.48l-.88,9.61Zm-29.87-59.88,33.86,37.38-2.64,19.93,13.33-12.07,1.05-11.49,5.24,5.79,2.46-2.23-29.41-57.33Z"/><polygon class="cls-3" points="679.08 477.15 685.57 489.79 682.46 492.61 677.65 487.3 676.68 497.85 662.2 510.97 664.99 489.92 679.08 477.15"/><path class="cls-3" d="M661.52,512.25l3-22.58,14.71-13.33,7,13.57-3.77,3.41L678,488.48l-.88,9.61Zm3.94-22.09-2.59,19.52,13.33-12.07,1.05-11.49,5.24,5.79,2.46-2.23-6-11.73Z"/><polygon class="cls-5" points="675.23 469.63 679.08 477.15 664.99 489.92 659.51 483.87 675.23 469.63"/><path class="cls-3" d="M665,490.62l-6.15-6.79,16.57-15,4.33,8.44Zm-4.74-6.72,4.81,5.31L678.46,477l-3.38-6.6Z"/><polygon class="cls-5" points="667.87 455.27 671.72 462.79 654.53 478.37 649.05 472.32 667.87 455.27"/><path class="cls-3" d="M654.49,479.07l-6.15-6.79L668,454.47l4.33,8.44Zm-4.74-6.72,4.81,5.31,16.54-15-3.38-6.6Z"/><polygon class="cls-5" points="660.5 440.92 664.36 448.44 644.07 466.82 638.59 460.77 660.5 440.92"/><path class="cls-3" d="M644,467.53l-6.15-6.79,22.77-20.63,4.33,8.44Zm-4.74-6.72,4.81,5.31,19.64-17.79-3.38-6.6Z"/><polygon class="cls-3" points="669.22 458.08 630.19 458.08 590.61 344.78 638.64 344.78 621.38 364.28 669.22 458.08"/><path class="cls-3" d="M670,458.58h-40.2l-.12-.33-39.81-114h49.84L622,364.36Zm-39.49-1h37.86l-47.62-93.38L621,364l16.52-18.67H591.32Z"/><circle class="cls-3" cx="571.13" cy="378.01" r="4.44"/><circle class="cls-3" cx="571.13" cy="392.13" r="4.44"/><path class="cls-1" d="M518.44,344.78v25.81H499.69V347.47a2.68,2.68,0,0,1,2.68-2.68Z"/><path class="cls-3" d="M518.94,371.09H499.19V347.47a3.19,3.19,0,0,1,3.18-3.18h16.57Zm-18.75-1h17.75V345.28H502.38a2.19,2.19,0,0,0-2.18,2.18Z"/><rect class="cls-3" x="499.69" y="352.89" width="11.88" height="1"/><rect class="cls-3" x="499.69" y="361.49" width="11.88" height="1"/><rect class="cls-3" x="488.39" y="346.23" width="11.88" height="1"/><rect class="cls-3" x="488.39" y="354.83" width="11.88" height="1"/><path class="cls-2" d="M364.57,240c-4.84,0-8.92,6.35-8.92,13.86s4.09,13.86,8.92,13.86,8.92-6.35,8.92-13.86S369.41,240,364.57,240Z"/><path class="cls-3" d="M364.57,268.26c-5.11,0-9.42-6.58-9.42-14.36s4.32-14.36,9.42-14.36,9.42,6.58,9.42,14.36S369.68,268.26,364.57,268.26Zm0-27.72c-4.57,0-8.42,6.12-8.42,13.36s3.86,13.36,8.42,13.36,8.42-6.12,8.42-13.36S369.13,240.53,364.57,240.53Z"/><path class="cls-3" d="M443.33,180.88l-.83-.56a20.57,20.57,0,0,1,1.24-1.66,19.2,19.2,0,0,1,12.73-6.94l.1,1a18.19,18.19,0,0,0-12.06,6.58A19.48,19.48,0,0,0,443.33,180.88Z"/><path class="cls-3" d="M531,237.8l-.62-.78a18.35,18.35,0,0,0,6-9,19.07,19.07,0,0,0,.83-4.63l1,.05a20.05,20.05,0,0,1-.87,4.88A19.34,19.34,0,0,1,531,237.8Z"/></svg>