<svg id="layer" xmlns="http://www.w3.org/2000/svg" viewBox="0 0 800 600"><defs><style>.cls-1{fill:#fff0dc;}.cls-2{fill:#4b0062;}.cls-3{fill:#f48001;}.cls-4{fill:#a26bb4;}.cls-5{fill:#f44b1b;}</style></defs><title>Halloween Mummy</title><rect class="cls-1" width="800" height="600"/><polygon class="cls-1" points="302.99 371.61 337.91 395.64 355.02 389.96 318.25 366.24 302.99 371.61"/><path class="cls-2" d="M337.83,396.19,301.9,371.46l16.41-5.77,37.86,24.42Zm-33.74-24.44L338,395.09l15.89-5.27-35.69-23Z"/><path class="cls-1" d="M499.57,447.42l-41.84-99.64L426.6,367l36.49,74h0a15.6,15.6,0,0,0-5.32,18.37l.19.49Z"/><path class="cls-2" d="M457.67,460.47l-.36-.91a16.09,16.09,0,0,1,5.15-18.7l-36.5-74L458,347l42.28,100.69Zm-30.42-93.28,36.47,74-.34.25a15.1,15.1,0,0,0-5.15,17.78l0,.06L498.9,447.1,457.5,348.51Z"/><path class="cls-1" d="M298.66,374.44h105l-5-36.33-93.19,2,0-.07a16.44,16.44,0,0,0-21.91-7h0Z"/><path class="cls-2" d="M404.2,374.94H298.31l-15.46-42.13.4-.2a17,17,0,0,1,22.47,7l93.33-2Zm-105.2-1h104l-4.88-35.32-93.05,2-.14-.27a16.05,16.05,0,0,0-20.88-7Z"/><polygon class="cls-1" points="250.77 278.11 249.22 249.83 373.51 250.7 375.06 278.98 250.77 278.11"/><path class="cls-2" d="M375.59,279.48l-125.3-.87-1.61-29.28,125.3.87Zm-124.35-1.87,123.29.86L373,251.19l-123.29-.86Z"/><polygon class="cls-1" points="468.94 374.44 388.33 374.44 347.4 250.55 416.92 250.55 420.12 258.17 425.52 271.02 468.94 374.44"/><path class="cls-2" d="M469.69,374.94H388L346.7,250.05h70.54L426,270.83Zm-81-1h79.5l-51.6-122.89h-68.5Z"/><rect class="cls-2" x="397.54" y="260.49" width="23.12" height="1" transform="translate(-36.91 69.8) rotate(-9.33)"/><path class="cls-1" d="M425.52,271l-5.46,88.28-.94,15.14-.48,7.79H395.51a4.88,4.88,0,0,1-4.87-5.18l.16-2.61.94-15.14L398,258.17"/><path class="cls-2" d="M419.11,382.73h-23.6a5.38,5.38,0,0,1-5.37-5.71l7.35-118.88,1,.06-7.35,118.88a4.38,4.38,0,0,0,4.37,4.65h22.66L425,271l1,.06Z"/><path class="cls-3" d="M420.06,359.3l-.94,15.14-.48,7.79H395.51a4.88,4.88,0,0,1-4.87-5.18l.16-2.61.94-15.14Z"/><path class="cls-2" d="M419.11,382.73h-23.6a5.38,5.38,0,0,1-5.37-5.71l1.13-18.22h29.32Zm-26.9-22.93-1.07,17.28a4.38,4.38,0,0,0,4.37,4.65h22.66l1.36-21.93Z"/><polygon class="cls-1" points="585.74 391.75 578.25 398.43 582.51 407.53 539.26 396.75 550.36 366.8 588.98 375.96 581.48 382.65 585.74 391.75"/><path class="cls-2" d="M583.4,408.27,538.59,397.1,550,366.21l40,9.48-7.94,7.08,4.26,9.1-7.49,6.68ZM539.92,396.4l41.69,10.39-4-8.49,7.49-6.68-4.26-9.1,7.06-6.3-37.26-8.84Z"/><polygon class="cls-1" points="465.36 265.66 426.36 222.73 418.56 240.31 443.41 270.1 465.36 265.66"/><path class="cls-2" d="M443.22,270.64,418,240.39l8.24-18.57L466.32,266Zm-24.08-30.42,24.46,29.32,20.79-4.2-37.89-41.71Z"/><circle class="cls-1" cx="375.33" cy="216.19" r="54.02"/><path class="cls-2" d="M375.33,270.71a54.52,54.52,0,1,1,54.52-54.52A54.59,54.59,0,0,1,375.33,270.71Zm0-108a53.52,53.52,0,1,0,53.52,53.52A53.58,53.58,0,0,0,375.33,162.67Z"/><polygon class="cls-3" points="357.57 226.04 347.4 213.44 349.07 204.47 379.94 197.32 393.28 222.25 357.57 226.04"/><path class="cls-2" d="M357.35,226.57l-10.49-13,1.78-9.51,31.56-7.31,13.87,25.92Zm-9.42-13.26,9.85,12.21,34.71-3.68L379.68,197.9l-30.18,7Z"/><polygon class="cls-2" points="411.07 256.54 379.5 197.56 380.38 197.09 411.95 256.07 411.07 256.54"/><path class="cls-4" d="M354.88,203.13c-3,10.89-13.69,13.06-13.69,13.06l1.93-10.34Z"/><path class="cls-2" d="M340.56,216.83l2.13-11.39,12.89-3-.22.81c-3,11.06-14,13.4-14.07,13.42Zm3-10.56-1.72,9.24c2.35-.7,9.7-3.51,12.33-11.69Z"/><path class="cls-4" d="M383.66,201.57a25.07,25.07,0,0,0,8.7,2.48c-5.65,5.65-16.29,2.68-25.12-3.79L390.1,195l7.37,3.76C392.19,203.24,383.66,201.57,383.66,201.57Z"/><path class="cls-2" d="M384.49,207.52c-5.59,0-12.14-2.89-17.55-6.85l-.88-.64,24.1-5.58,8.2,4.18-.57.49c-3.38,2.88-8,3.34-11,3.26a28.19,28.19,0,0,0,5.6,1.18l1.07.09-.76.76A11.22,11.22,0,0,1,384.49,207.52Zm-16.06-7c7.63,5.3,17.2,8.31,22.77,3.92a23.8,23.8,0,0,1-7.79-2.41l-2.7-1.52,3,.59c.08,0,7.73,1.45,12.79-2.26L390,195.5Z"/><path class="cls-2" d="M367.54,240.92v0a3,3,0,0,1,0,.51,5.23,5.23,0,0,1-5.28,4.51,5.41,5.41,0,0,1-3.58-1.33A4.86,4.86,0,0,1,358,244a5.72,5.72,0,0,0-7.31,0,4.08,4.08,0,0,0-.65.67A5.41,5.41,0,0,1,346.5,246a5.19,5.19,0,0,1-5.31-5v0a4.92,4.92,0,0,1,0-.55,7.51,7.51,0,0,1,.78-2.73,10.6,10.6,0,0,1,4.35-4.3,15.52,15.52,0,0,1,4.79-1.68,17.77,17.77,0,0,1,3.22-.29,18.21,18.21,0,0,1,2.69.2,15.88,15.88,0,0,1,4,1.14,11.94,11.94,0,0,1,4.77,3.56,7.88,7.88,0,0,1,1.66,4.1A4.93,4.93,0,0,1,367.54,240.92Z"/><path class="cls-2" d="M362.23,246.49a5.9,5.9,0,0,1-3.91-1.46,5.4,5.4,0,0,1-.68-.71,5.24,5.24,0,0,0-6.6.06,3.55,3.55,0,0,0-.58.6,5.91,5.91,0,0,1-4,1.5,5.7,5.7,0,0,1-5.81-5.52,5.28,5.28,0,0,1,0-.64,8,8,0,0,1,.83-2.92,11.07,11.07,0,0,1,4.55-4.51,16,16,0,0,1,4.95-1.74,18.63,18.63,0,0,1,6.07-.09,16.33,16.33,0,0,1,4.15,1.18,12.44,12.44,0,0,1,5,3.71,8.33,8.33,0,0,1,1.76,4.36,5.47,5.47,0,0,1,0,.59v0a3.57,3.57,0,0,1,0,.6A5.71,5.71,0,0,1,362.23,246.49Zm-7.86-4.3a6.08,6.08,0,0,1,4,1.44,5.31,5.31,0,0,0,.62.64,4.91,4.91,0,0,0,3.26,1.21,4.72,4.72,0,0,0,4.78-4.07,2.63,2.63,0,0,0,0-.45v0a4.57,4.57,0,0,0,0-.5,7.35,7.35,0,0,0-1.56-3.85,11.45,11.45,0,0,0-4.57-3.4,15.35,15.35,0,0,0-3.9-1.1,17.71,17.71,0,0,0-5.74.09,15,15,0,0,0-4.64,1.63,10.09,10.09,0,0,0-4.15,4.09,7,7,0,0,0-.73,2.55,4.66,4.66,0,0,0,0,.51,4.71,4.71,0,0,0,4.81,4.57,4.9,4.9,0,0,0,3.23-1.19,3.86,3.86,0,0,1,.67-.68A6.07,6.07,0,0,1,354.37,242.19Z"/><rect class="cls-2" x="497.37" y="240.56" width="2.29" height="18.11" transform="translate(24.7 -44.19) rotate(5.2)"/><path class="cls-2" d="M329.42,172.17l-.72-.69c1.2-1.25,2.47-2.47,3.77-3.62l.66.75C331.86,169.74,330.61,170.94,329.42,172.17Z"/><path class="cls-2" d="M314,199.43l-1-.26a64,64,0,0,1,12.24-23.77l.78.63A63,63,0,0,0,314,199.43Z"/><rect class="cls-2" x="320.25" y="198.8" width="102.35" height="1" transform="translate(-35.48 89.28) rotate(-13.09)"/><rect class="cls-2" x="324.46" y="187.19" width="91.19" height="1" transform="translate(-27.96 70.41) rotate(-10.48)"/><rect class="cls-2" x="362.84" y="157.41" width="1" height="43.65" transform="translate(93.96 481.86) rotate(-74.58)"/><rect class="cls-2" x="344.06" y="173.97" width="1" height="26.58" transform="translate(90.32 485.84) rotate(-78.11)"/><rect class="cls-2" x="349.11" y="168.54" width="32.28" height="1" transform="translate(-37.21 166.42) rotate(-24.46)"/><rect class="cls-2" x="364.32" y="173.5" width="36.82" height="1" transform="translate(-35.22 128.41) rotate(-18.22)"/><rect class="cls-2" x="415.9" y="187.82" width="1" height="41.79" transform="translate(-43.91 279.9) rotate(-35.41)"/><rect class="cls-2" x="410.2" y="190.16" width="1" height="54.57" transform="translate(-53.87 205.93) rotate(-26.48)"/><rect class="cls-2" x="322.81" y="225.48" width="70.67" height="1" transform="translate(-21.84 39.05) rotate(-6.06)"/><rect class="cls-2" x="330.4" y="239.81" width="69.56" height="1" transform="translate(-40.23 76.75) rotate(-11.38)"/><path class="cls-2" d="M359.1,267.93l-.37-.33-.49.13c-.08-.29-.08-.29,15.33-16.55l15.22-16.06.73.69C389.21,236.13,359.56,267.4,359.1,267.93Z"/><rect class="cls-2" x="370.48" y="253.44" width="39.51" height="1" transform="translate(-41.78 427.52) rotate(-54.94)"/><rect class="cls-2" x="393.54" y="255.01" width="18.97" height="1" transform="translate(23.32 544.55) rotate(-69.65)"/><rect class="cls-2" x="340.9" y="253.87" width="34.37" height="1" transform="translate(-47.34 85.37) rotate(-12.76)"/><rect class="cls-2" x="409.28" y="196.55" width="17.18" height="1" transform="matrix(0.54, -0.84, 0.84, 0.54, 27.25, 443.74)"/><rect class="cls-2" x="412.86" y="203.98" width="19.41" height="1" transform="translate(115.27 559.35) rotate(-74.93)"/><rect class="cls-2" x="415.95" y="211.12" width="21.3" height="1" transform="translate(191.96 626) rotate(-86.86)"/><polygon class="cls-2" points="321.79 222 321.35 221.1 341.82 211.17 342.26 212.07 321.79 222"/><polygon class="cls-2" points="341.69 228.04 330.73 217.29 331.43 216.58 342.39 227.33 341.69 228.04"/><path class="cls-1" d="M384.78,214a10.87,10.87,0,1,1-19-9.42l3,1.49,9.25,4.59Z"/><path class="cls-2" d="M374.22,222.81a11.38,11.38,0,0,1-8.85-18.52l.25-.31,19.74,9.78-.1.39A11.34,11.34,0,0,1,374.22,222.81Zm-8.31-17.58a10.38,10.38,0,0,0,8.31,16.58,10.34,10.34,0,0,0,10-7.52Z"/><path class="cls-5" d="M378,210.68a5.55,5.55,0,1,1-9.25-4.59Z"/><path class="cls-2" d="M372.51,216.24a6.06,6.06,0,0,1-6.06-6,6,6,0,0,1,2-4.47l.25-.23,9.86,4.89,0,.34A6.07,6.07,0,0,1,372.51,216.24Zm-3.64-9.55a5,5,0,0,0-1.42,3.5,5.05,5.05,0,0,0,10,.78Z"/><rect class="cls-2" x="374.85" y="193.95" width="1" height="30.81" transform="translate(21.11 452.73) rotate(-63.64)"/><rect class="cls-2" x="406.31" y="143.97" width="9.64" height="1" transform="translate(100.71 450.31) rotate(-63.94)"/><rect class="cls-2" x="416.44" y="149.33" width="11.59" height="1" transform="translate(5.62 314.66) rotate(-41.12)"/><rect class="cls-2" x="426.34" y="158.05" width="11.09" height="1" transform="translate(-27.73 138.18) rotate(-17.62)"/><path class="cls-1" d="M357.06,231.57V236h-5.91v-4.34a17.77,17.77,0,0,1,3.22-.29A18.21,18.21,0,0,1,357.06,231.57Z"/><path class="cls-2" d="M357.56,236.5h-6.91v-5.26l.41-.08a18.59,18.59,0,0,1,6.08-.09l.43.06Zm-5.91-1h4.91V232a17.6,17.6,0,0,0-4.91.08Z"/><path class="cls-1" d="M348.41,236.89l-5.12,3L342,237.64a10.6,10.6,0,0,1,4.35-4.3Z"/><path class="cls-2" d="M343.1,240.54l-1.67-2.88.12-.24a11.07,11.07,0,0,1,4.55-4.51l.43-.24,2.55,4.41Zm-.53-2.9.89,1.54,4.25-2.46L346.17,234A10,10,0,0,0,342.58,237.63Z"/><path class="cls-1" d="M365.85,236.27l-1.94,3.36-5.12-3,2.29-4A11.94,11.94,0,0,1,365.85,236.27Z"/><path class="cls-2" d="M364.09,240.32l-6-3.45,2.76-4.79.41.18a12.45,12.45,0,0,1,5,3.71l.2.26Zm-4.62-3.82,4.25,2.45,1.52-2.63a11.44,11.44,0,0,0-4-3Z"/><rect class="cls-2" x="445.42" y="293.66" width="1" height="8.51" transform="translate(-80.57 195.9) rotate(-22.78)"/><rect class="cls-2" x="352.68" y="288.73" width="1" height="22.68" transform="translate(-76.3 125.92) rotate(-18.28)"/><rect class="cls-2" x="359.15" y="315.85" width="1" height="7.62" transform="translate(-82.14 128.99) rotate(-18.29)"/><rect class="cls-2" x="458.31" y="307.79" width="1" height="41.62" transform="translate(-91.44 203.25) rotate(-22.78)"/><rect class="cls-2" x="458.64" y="368.45" width="1" height="22" transform="translate(-87.83 615.3) rotate(-62.9)"/><rect class="cls-2" x="440.88" y="392.05" width="34.72" height="1" transform="translate(-143.56 348.75) rotate(-36.42)"/><rect class="cls-2" x="443.96" y="373.35" width="1" height="27.25" transform="translate(-119.06 559.44) rotate(-58.06)"/><rect class="cls-2" x="443.63" y="399.79" width="36.53" height="1" transform="translate(-144.31 478.3) rotate(-48.25)"/><rect class="cls-2" x="451.28" y="415.99" width="36.05" height="1" transform="translate(-150.37 515.04) rotate(-50.62)"/><rect class="cls-2" x="462.46" y="436.12" width="31.37" height="1" transform="translate(-102.86 150.8) rotate(-16.21)"/><rect class="cls-2" x="462.28" y="420.81" width="25.39" height="1" transform="translate(-91.44 134.47) rotate(-14.72)"/><rect class="cls-2" x="480.05" y="433.78" width="1" height="21.39" transform="translate(-156.54 594.85) rotate(-56.05)"/><rect class="cls-2" x="479.69" y="440.72" width="16.58" height="1" transform="translate(-128.96 212.79) rotate(-21.8)"/><rect class="cls-2" x="465.66" y="441.86" width="1" height="17.69" transform="translate(-156.91 630.22) rotate(-60.11)"/><rect class="cls-2" x="372.02" y="365.74" width="17.06" height="1" transform="translate(-76.36 631.17) rotate(-74.01)"/><rect class="cls-2" x="367.66" y="338.77" width="1" height="35.68" transform="translate(-8.92 9.44) rotate(-1.45)"/><rect class="cls-2" x="340.69" y="356.15" width="36.82" height="1" transform="translate(-77.55 612.55) rotate(-75.18)"/><rect class="cls-2" x="325.21" y="356.3" width="37.22" height="1" transform="translate(-103.92 569.04) rotate(-71.42)"/><rect class="cls-2" x="327.37" y="338.06" width="1" height="38.12" transform="translate(-118.96 169.03) rotate(-24.62)"/><rect class="cls-2" x="315.16" y="339.6" width="1" height="35.2" transform="translate(-65.09 70.38) rotate(-11.54)"/><rect class="cls-2" x="307.31" y="339.93" width="1" height="34.67" transform="translate(-46.29 45.82) rotate(-7.92)"/><rect class="cls-2" x="289.87" y="357.9" width="23.41" height="1" transform="translate(-150.3 481.72) rotate(-65.19)"/><rect class="cls-2" x="284.8" y="346.34" width="24.75" height="1" transform="translate(-132.71 501.15) rotate(-69.16)"/><rect class="cls-2" x="284.4" y="336.81" width="13.63" height="1" transform="translate(-153.94 357.8) rotate(-51.83)"/><rect class="cls-2" x="324.69" y="347.28" width="23.95" height="1" transform="translate(-89.91 119.03) rotate(-17.73)"/><rect class="cls-2" x="330.35" y="360.56" width="13.48" height="1" transform="translate(-115.18 162.45) rotate(-23.26)"/><rect class="cls-2" x="394.61" y="376.42" width="10.66" height="1" transform="translate(-7.09 746.17) rotate(-85.52)"/><rect class="cls-2" x="404.23" y="376.42" width="10.66" height="1" transform="translate(1.77 755.75) rotate(-85.52)"/><rect class="cls-2" x="392.5" y="346.34" width="28.32" height="1"/><path class="cls-2" d="M420.79,341.61c-26.49-31.91-26.48-32-26.47-32.24l1,.06-.5,0,.42-.27c.47.67,17.42,21.12,26.32,31.84Z"/><rect class="cls-2" x="408.8" y="284.28" width="1" height="39.89" transform="translate(-98.76 348.37) rotate(-41.59)"/><rect class="cls-2" x="409.75" y="273.08" width="1" height="31.51" transform="translate(-44.05 501.77) rotate(-60.26)"/><rect class="cls-2" x="403.31" y="283.73" width="21.45" height="1" transform="translate(-16.45 25.59) rotate(-3.47)"/><rect class="cls-2" x="396.61" y="274.54" width="28.98" height="1" transform="translate(-38.77 69.45) rotate(-9.22)"/><rect class="cls-2" x="393.75" y="323.81" width="12.58" height="1" transform="translate(-47.79 70.03) rotate(-9.44)"/><rect class="cls-2" x="392.52" y="335.97" width="22.52" height="1" transform="translate(-76.67 123.36) rotate(-15.88)"/><rect class="cls-2" x="289.86" y="243.33" width="1" height="41.85" transform="translate(-100.86 297.16) rotate(-47.11)"/><rect class="cls-2" x="317.57" y="241.1" width="1" height="46.7" transform="translate(-85.6 354.73) rotate(-52.35)"/><rect class="cls-2" x="330.91" y="268.24" width="20.07" height="1" transform="translate(35.33 577.06) rotate(-83.5)"/><rect class="cls-2" x="316.72" y="259.67" width="19.78" height="1" transform="translate(23.1 546.95) rotate(-81.92)"/><rect class="cls-2" x="309.47" y="254.35" width="12.13" height="1" transform="translate(-84.71 320.53) rotate(-48.25)"/><rect class="cls-2" x="294.45" y="267.13" width="1" height="11.45" transform="translate(-54.96 75.34) rotate(-13.33)"/><rect class="cls-2" x="281.98" y="254.97" width="1" height="23.54" transform="translate(-40.06 50.15) rotate(-9.48)"/><rect class="cls-2" x="293.63" y="243.48" width="12.07" height="1"/><rect class="cls-2" x="279.16" y="243.48" width="7.75" height="1"/><rect class="cls-2" x="279.16" y="459.36" width="72.4" height="1"/><rect class="cls-2" x="577.93" y="459.36" width="23.09" height="1"/><rect class="cls-2" x="378.2" y="459.36" width="125.89" height="1"/><rect class="cls-2" x="354.3" y="280.87" width="24.78" height="1" transform="translate(-41.26 498.63) rotate(-65.54)"/><rect class="cls-2" x="369.33" y="279.68" width="24.45" height="1" transform="translate(-30.87 512.53) rotate(-65.69)"/><rect class="cls-2" x="360.83" y="288.84" width="38.32" height="1" transform="translate(-93.35 225.62) rotate(-29.62)"/><rect class="cls-2" x="380.03" y="304.82" width="1" height="32" transform="translate(-101.92 443.17) rotate(-54.36)"/><rect class="cls-2" x="368.97" y="305.97" width="28.71" height="1" transform="translate(-104.38 251.66) rotate(-32.23)"/><rect class="cls-2" x="378.93" y="317.16" width="15.84" height="1" transform="translate(-74.49 123.44) rotate(-16.56)"/><rect class="cls-2" x="382.84" y="325.77" width="1" height="22.39" transform="translate(-107.73 476.06) rotate(-57.13)"/><rect class="cls-2" x="381.57" y="353.52" width="10.49" height="1"/><rect class="cls-2" x="406.54" y="348.36" width="56.91" height="1" transform="translate(-69.1 587.22) rotate(-64.04)"/><rect class="cls-2" x="436.11" y="347.85" width="25.24" height="1" transform="translate(-30.73 653.02) rotate(-70.26)"/><rect class="cls-2" x="446.19" y="343.55" width="1" height="33.62" transform="translate(58.93 783.49) rotate(-86.39)"/><rect class="cls-2" x="413.51" y="319.14" width="34.39" height="1" transform="translate(-68.34 516.19) rotate(-58.08)"/><rect class="cls-2" x="423.65" y="285.46" width="7.93" height="1" transform="translate(-86 314.76) rotate(-36.98)"/><rect class="cls-2" x="424.09" y="293.3" width="10.91" height="1" transform="translate(-10.06 15.27) rotate(-2.01)"/><rect class="cls-2" x="422.38" y="303.76" width="16.41" height="1" transform="translate(-90.26 222.41) rotate(-26.31)"/><path class="cls-1" d="M565.44,388.1l-20.62-22.35-22.6,20.89c-1.66,1.93,1.38,8.21,6.94,14.24s11.58,9.57,13.64,8.07Z"/><path class="cls-2" d="M541.58,409.77c-3.21,0-8.61-4-12.78-8.55-5-5.38-9.08-12.43-7-14.91l23-21.27,21.3,23.09-23,21.18A2.59,2.59,0,0,1,541.58,409.77Zm3.21-43.31L522.56,387c-1.26,1.47,1.21,7.29,7,13.54s11.35,9.18,13,8l22.22-20.47Z"/><path class="cls-1" d="M278.32,265h0l-10.87-29.84L234.83,247l10.81,29.67h0l.06.17h0c1.21,2.34,9.09,1.69,17.91-1.52S278.9,267.56,278.32,265Z"/><path class="cls-2" d="M250,278.76c-2.12,0-3.75-.39-4.51-1.29l-.11,0-.26-.62-11-30.14,33.59-12.24L279,265.28l-.14,0c0,3.26-7.58,7.76-15.05,10.48C259,277.55,253.78,278.76,250,278.76Zm-3.94-2.24.07.12c1,1.84,8.13,1.57,17.29-1.76s14.83-7.75,14.37-9.78l0-.21-10.61-29.11-31.71,11.56Z"/><rect class="cls-2" x="570.91" y="289.15" width="15.4" height="1"/><polygon class="cls-4" points="542.9 237.62 545.49 237.23 547.04 239.36 553.28 230.06 542.51 233.14 544.06 235.27 542.9 237.62"/><path class="cls-2" d="M547.05,240.24l-1.79-2.47-3.23.48,1.45-2.93-1.79-2.46,12.77-3.65Zm-1.34-3.54,1.31,1.8,5.09-7.57-8.77,2.5,1.31,1.8-.87,1.76Z"/><polygon class="cls-4" points="566.27 222.12 567.43 219.77 564.85 220.16 563.3 218.03 557.05 227.33 567.82 224.25 566.27 222.12"/><path class="cls-2" d="M555.87,228.18l7.41-11,1.79,2.46,3.24-.48-1.46,2.93,1.79,2.46Zm7.44-9.28-5.09,7.57L567,224l-1.31-1.8.87-1.76-1.94.29Z"/><circle class="cls-4" cx="555.17" cy="228.7" r="5.21" transform="translate(-28.34 370.24) rotate(-36.02)"/><path class="cls-2" d="M555.17,234.41a5.71,5.71,0,1,1,4.61-9.07h0a5.71,5.71,0,0,1-4.61,9.07Zm0-10.42a4.71,4.71,0,1,0,3.82,1.94A4.69,4.69,0,0,0,555.16,224Z"/><rect class="cls-2" x="574.39" y="297.93" width="1" height="12.66" transform="translate(59.7 701.31) rotate(-65.51)"/><path class="cls-2" d="M516.65,325a37.2,37.2,0,0,1-32.28-18.75,37.89,37.89,0,0,1-3.74-28.71c5.35-20.21,25.94-32.34,45.89-27.06s31.84,26,26.49,46.22a37.89,37.89,0,0,1-17.46,23.1A37.11,37.11,0,0,1,516.65,325Zm.4-74.77a37.1,37.1,0,0,0-31.82,55.51A36.11,36.11,0,0,0,535,318.9a36.9,36.9,0,0,0,17-22.5c5.21-19.67-6.36-39.86-25.78-45A35.93,35.93,0,0,0,517.05,250.21Z"/><path class="cls-3" d="M552.52,296.53a36.94,36.94,0,1,1-71.41-18.9,38,38,0,0,1,2.76-7.31l69.87,18.49A38,38,0,0,1,552.52,296.53Z"/><path class="cls-2" d="M516.58,325a36.91,36.91,0,0,1-9.46-1.23c-20-5.28-31.84-26-26.5-46.22a38.58,38.58,0,0,1,2.8-7.41l.18-.36.39.1,70.26,18.59,0,.41a38.48,38.48,0,0,1-1.23,7.82h0A37.89,37.89,0,0,1,516.58,325Zm-32.44-54.05a37.59,37.59,0,0,0-2.54,6.85c-5.21,19.67,6.36,39.86,25.79,45s39.45-6.68,44.66-26.36h0a37.61,37.61,0,0,0,1.18-7.21Z"/><path class="cls-3" d="M541.75,293.68c-5.29,20-20.73,33.21-34.5,29.56s-20.65-22.79-15.36-42.76a53.41,53.41,0,0,1,2.53-7.37L543.2,286A53.41,53.41,0,0,1,541.75,293.68Z"/><path class="cls-2" d="M511.88,324.34a18.57,18.57,0,0,1-4.76-.62c-14-3.71-21.07-23.17-15.72-43.37a54.18,54.18,0,0,1,2.55-7.44l.17-.4,49.62,13.13,0,.43a54,54,0,0,1-1.46,7.73h0C537.49,311.75,524.53,324.34,511.88,324.34ZM494.71,273.7a53.33,53.33,0,0,0-2.34,6.91c-5.21,19.67,1.53,38.58,15,42.15s28.68-9.53,33.89-29.21h0a53.06,53.06,0,0,0,1.39-7.16Z"/><rect class="cls-2" x="490.44" y="300.9" width="45.18" height="1" transform="translate(90.4 720.25) rotate(-75.18)"/><polygon class="cls-2" points="503.44 285.7 494.12 291.93 508.46 295.73 503.44 285.7"/><path class="cls-2" d="M509.4,296.49l-16.48-4.36L503.64,285Zm-14.09-4.76,12.2,3.23-4.27-8.53Z"/><polygon class="cls-2" points="529.12 292.49 519.8 298.73 534.14 302.52 529.12 292.49"/><path class="cls-2" d="M535.09,303.29l-16.48-4.36,10.72-7.16ZM521,298.53l12.2,3.23-4.27-8.53Z"/><path class="cls-2" d="M529,318.48c-3.78-4.19-10.16-7.9-17.85-9.94s-15.06-2-20.42-.19c2.09-3.91,6.36-6.57,11.56-7.49a23.85,23.85,0,0,1,6-.26,26.56,26.56,0,0,1,9.2,2.44,23.51,23.51,0,0,1,5.12,3.23C526.71,309.62,529.1,314.06,529,318.48Z"/><path class="cls-3" d="M508,304.6l-6-.42.23-3.32a23.85,23.85,0,0,1,6-.26Z"/><path class="cls-3" d="M522.64,306.26l-1.44,3-5.42-2.6,1.74-3.61A23.51,23.51,0,0,1,522.64,306.26Z"/><circle class="cls-5" cx="499.98" cy="233.6" r="9.32" transform="translate(221.98 710.32) rotate(-84.8)"/><path class="cls-2" d="M500,243.42c-.3,0-.6,0-.9,0a9.82,9.82,0,1,1,10.67-8.89h0A9.84,9.84,0,0,1,500,243.42Zm0-18.65a8.82,8.82,0,1,0,8.79,9.62h0a8.82,8.82,0,0,0-8-9.59C500.51,224.79,500.24,224.78,500,224.78Z"/><path class="cls-2" d="M501.47,243.21c-3.82-1.93-6.59-5.43-6.72-8.52a5.49,5.49,0,0,1,3-5,3.89,3.89,0,0,1,5.41.9c1.46,1.79,2,4.83.39,6.49a2.83,2.83,0,0,1-2.8,1,2.68,2.68,0,0,1-1.92-1.89,2.92,2.92,0,0,1,.82-2.88l.71.7a1.9,1.9,0,0,0-.57,1.91A1.71,1.71,0,0,0,501,237a1.92,1.92,0,0,0,1.84-.71c1.19-1.26.72-3.73-.44-5.17a3,3,0,0,0-4.11-.68,4.54,4.54,0,0,0-2.5,4.15c.12,2.7,2.72,5.93,6.17,7.67Z"/><path class="cls-1" d="M562.4,264.17a4.34,4.34,0,0,1,0,.72,9.13,9.13,0,0,1-2.06,5.45c-.15.18-.3.36-.46.53l-.6.64-2.8,3-.21.21-.29-.28-3.47-3.27,1.51-1.61.86-.91,1.24-1.31a4.23,4.23,0,0,0,.92-1.55.84.84,0,0,0,0-.15,3.84,3.84,0,0,0,.17-1.31,4.13,4.13,0,0,0-1.32-2.93l-.09-.08a3,3,0,0,0-.65-.48,4.17,4.17,0,0,0-3.14-.45,3.9,3.9,0,0,0-1.37.6,3.48,3.48,0,0,0-.69.59l-2.82,3-.93,1-2,2.14-2.76,2.93-1.16,1.23-3.51,3.73-.08-.08-3.51-3.65,2.39-2.54,2.79-3,.78-.83,3.92-4.16.47-.5L546.2,258a9.7,9.7,0,0,1,1.46-1.27,8.9,8.9,0,0,1,1.82-1,9.43,9.43,0,0,1,2.9-.68,9.32,9.32,0,0,1,5.87,1.57c.09,0,.18.12.27.18a9.6,9.6,0,0,1,.94.77,9.37,9.37,0,0,1,2,2.82h0A9.25,9.25,0,0,1,562.4,264.17Z"/><path class="cls-2" d="M536.77,276.32l-.44-.44-3.85-4,13.36-14.19a10.29,10.29,0,0,1,1.53-1.33,9.41,9.41,0,0,1,1.93-1,9.83,9.83,0,0,1,9.23.94l.19.12.09.07a10.35,10.35,0,0,1,1,.81,9.9,9.9,0,0,1,2,2.69h0l.15.28a9.74,9.74,0,0,1,.94,3.93,5,5,0,0,1,0,.8,9.55,9.55,0,0,1-2.17,5.71c-.16.19-.32.38-.48.56l-4,4.2-.64-.62-3.83-3.61,4-4.2a3.7,3.7,0,0,0,.81-1.36l0-.14a3.33,3.33,0,0,0,.15-1.14,3.62,3.62,0,0,0-1.16-2.59l-.1-.09a2.54,2.54,0,0,0-.53-.39,3.68,3.68,0,0,0-2.78-.41,3.44,3.44,0,0,0-1.21.53,3,3,0,0,0-.6.52Zm-2.91-4.45,2.89,3,12.85-13.65a4,4,0,0,1,.79-.67,4.41,4.41,0,0,1,1.53-.67,4.68,4.68,0,0,1,3.5.51,3.54,3.54,0,0,1,.74.55l.1.09a4.6,4.6,0,0,1,1.47,3.27,4.33,4.33,0,0,1-.19,1.47.88.88,0,0,1-.05.19,4.68,4.68,0,0,1-1,1.71l-3.27,3.47,3,2.87,3.26-3.48c.15-.16.3-.34.44-.51a8.6,8.6,0,0,0,1.95-5.15,4.18,4.18,0,0,0,0-.68h0a8.77,8.77,0,0,0-.73-3.29l-.12-.25a8.86,8.86,0,0,0-1.93-2.67,9.12,9.12,0,0,0-.89-.73l-.09-.06-.13-.09a8.84,8.84,0,0,0-8.34-.87,8.44,8.44,0,0,0-1.72.93,9.3,9.3,0,0,0-1.38,1.2Z"/><path class="cls-5" d="M562.38,264.89a9.13,9.13,0,0,1-2.06,5.45c-.15.18-.3.36-.46.53l-.6.64-4.4-2.87,1.24-1.31a4.23,4.23,0,0,0,.92-1.55.84.84,0,0,0,0-.15Z"/><path class="cls-2" d="M559.33,272.16l-5.25-3.43,1.65-1.75a3.7,3.7,0,0,0,.81-1.36l.07-.35.38-.14,5.91-.82,0,.6a9.6,9.6,0,0,1-2.17,5.75c-.16.19-.32.38-.48.56Zm-3.7-3.61,3.55,2.31.31-.33c.15-.16.3-.34.44-.51a8.57,8.57,0,0,0,1.9-4.55l-4.39.61a4.68,4.68,0,0,1-1,1.59Z"/><path class="cls-5" d="M558.25,256.67l-2.43,4.64a3,3,0,0,0-.65-.48,4.17,4.17,0,0,0-3.14-.45,3.9,3.9,0,0,0-1.37.6l-1.18-5.2a9.43,9.43,0,0,1,2.9-.68A9.32,9.32,0,0,1,558.25,256.67Z"/><path class="cls-2" d="M556,262.13l-.48-.45a2.56,2.56,0,0,0-.54-.4,3.68,3.68,0,0,0-2.78-.41,3.44,3.44,0,0,0-1.21.53l-.61.42-1.44-6.33.39-.16a9.83,9.83,0,0,1,9.24.94l.37.25ZM553,259.75a4.71,4.71,0,0,1,2.38.65l.23.14,1.94-3.7a8.83,8.83,0,0,0-7.53-.75l.93,4.12a4.41,4.41,0,0,1,.92-.32A4.53,4.53,0,0,1,553,259.75Z"/><polygon class="cls-5" points="546.22 265.57 544.19 267.71 541.43 270.64 538.35 266.37 539.13 265.54 543.05 261.38 543.52 260.88 546.22 265.57"/><path class="cls-2" d="M541.38,271.43l-3.68-5.09,5.91-6.28,3.22,5.6Zm-2.38-5,2.48,3.44,4.12-4.36-2.18-3.78h0Z"/><ellipse class="cls-1" cx="555.13" cy="376.93" rx="4.73" ry="15.36" transform="translate(-108.48 476.3) rotate(-42.69)"/><path class="cls-2" d="M564.2,389.17a9.49,9.49,0,0,1-4.41-1.56,39,39,0,0,1-8.5-7.14c-5.21-5.65-9.41-12.9-6.91-15.2s9.38,2.46,14.6,8.11a39,39,0,0,1,6.43,9c1.43,3,1.6,5.12.48,6.16A2.39,2.39,0,0,1,564.2,389.17Zm-18.14-23.49a1.45,1.45,0,0,0-1,.32c-1.47,1.36,1,7.35,7,13.79a38,38,0,0,0,8.27,7c2.35,1.37,4.19,1.78,4.92,1.11h0c.73-.67.47-2.54-.71-5a38,38,0,0,0-6.26-8.8C553.24,368.65,548.36,365.68,546.06,365.68Z"/><ellipse class="cls-2" cx="555.13" cy="376.93" rx="1.94" ry="6.25" transform="translate(-108.48 476.3) rotate(-42.69)"/><ellipse class="cls-1" cx="251.15" cy="241.09" rx="17.49" ry="4.88" transform="translate(-67.37 100.56) rotate(-20.02)"/><path class="cls-2" d="M239.1,249.13c-2.73,0-4.4-.64-4.85-1.88-.54-1.47.78-3.4,3.81-5.57A48.63,48.63,0,0,1,249.31,236c8.2-3,17.55-4.39,18.75-1.11h0c1.2,3.28-6.87,8.23-15.06,11.21a48.57,48.57,0,0,1-12.24,2.92Q239.87,249.13,239.1,249.13ZM263.23,234A42.88,42.88,0,0,0,249.65,237a47.66,47.66,0,0,0-11,5.51c-2.51,1.8-3.8,3.45-3.45,4.42s2.4,1.4,5.49,1.16a47.59,47.59,0,0,0,12-2.86c9.41-3.43,15.17-8,14.47-9.93C266.83,234.48,265.43,234,263.23,234Z"/><ellipse class="cls-2" cx="251.15" cy="241.09" rx="7.14" ry="2" transform="translate(-67.37 100.56) rotate(-20.02)"/><path class="cls-1" d="M257.54,303.74l.53-7.36-6.54,1.22.61-8.4-6.54,1.23.6-8.41-4.47,1.43c4-6.35,19.61-29.58,26.08-47.43l10.49,28.79S279.56,270.06,257.54,303.74Z"/><path class="cls-2" d="M256.9,305.63l.62-8.64L251,298.21l.61-8.4L245.05,291l.59-8.32-5.06,1.62.72-1.15c.53-.85,1.27-2,2.18-3.42,5.93-9.25,18.27-28.51,23.85-43.91l.47-1.29,11,30.08c.07.28,1.08,5.9-20.81,39.38Zm1.71-9.86-.44,6.08c20.23-31.17,19.65-36.87,19.64-36.92l-10-27.46c-5.82,15.27-17.69,33.8-23.48,42.83l-1.44,2.25,3.87-1.24-.61,8.5,6.54-1.23-.61,8.4Z"/><rect class="cls-2" x="216.4" y="312.32" width="1" height="23.99"/><rect class="cls-2" x="204.9" y="323.81" width="23.99" height="1"/><rect class="cls-2" x="216.4" y="315.57" width="1" height="17.5" transform="translate(-165.8 248.36) rotate(-45)"/><rect class="cls-2" x="208.15" y="323.81" width="17.5" height="1" transform="translate(-165.8 248.36) rotate(-45)"/><ellipse class="cls-2" cx="216.9" cy="308.34" rx="1.4" ry="1.95"/><ellipse class="cls-2" cx="216.9" cy="340.29" rx="1.4" ry="1.95"/><ellipse class="cls-2" cx="232.88" cy="324.31" rx="1.95" ry="1.4"/><ellipse class="cls-2" cx="200.92" cy="324.31" rx="1.95" ry="1.4"/><rect class="cls-2" x="477.64" y="175.95" width="1" height="18.19"/><rect class="cls-2" x="469.05" y="184.54" width="18.19" height="1"/><rect class="cls-2" x="477.64" y="178.41" width="1" height="13.27" transform="translate(9.2 392.3) rotate(-45)"/><rect class="cls-2" x="471.51" y="184.54" width="13.27" height="1" transform="translate(9.2 392.3) rotate(-45)"/><ellipse class="cls-2" cx="490.26" cy="185.04" rx="1.48" ry="1.06"/><ellipse class="cls-2" cx="466.03" cy="185.04" rx="1.48" ry="1.06"/><rect class="cls-2" x="407.95" y="410.81" width="1" height="15.09"/><rect class="cls-2" x="403.78" y="417.85" width="9.35" height="1"/><rect class="cls-2" x="420.86" y="422.38" width="1" height="9.44"/><rect class="cls-2" x="418.44" y="426.6" width="5.85" height="1"/><circle class="cls-4" cx="489.22" cy="340.53" r="4.96"/><circle class="cls-4" cx="504.21" cy="359.27" r="2.88"/><circle class="cls-4" cx="288.31" cy="207.03" r="3.89"/><circle class="cls-4" cx="382.84" cy="398.49" r="2.85"/></svg>