<svg id="layer" xmlns="http://www.w3.org/2000/svg" viewBox="0 0 800 600"><defs><style>.cls-1{fill:transparent;}.cls-2{fill:#4b0062;}.cls-3{fill:#f44b1b;}.cls-4{fill:#f48001;}.cls-5{fill:#a26bb4;}</style></defs><title>Halloween Pumpkins</title><rect class="cls-1" width="800" height="600"/><rect class="cls-2" x="622.39" y="344.83" width="1" height="9.59"/><polygon class="cls-1" points="628.54 374.12 617.58 372.75 617.58 352.08 628.54 353.45 628.54 374.12"/><path class="cls-2" d="M629,374.69l-12-1.49V351.52L629,353Zm-11-2.37,10,1.24V353.89l-10-1.24Z"/><path class="cls-1" d="M651.9,388.92c0-14.73-12.76-26.66-28.5-26.66s-28.5,11.94-28.5,26.66a26.11,26.11,0,0,0,11.57,21.45v8.1a3.09,3.09,0,0,0,3.09,3.09h0a3.09,3.09,0,0,0,3.09-3.09h0a3.09,3.09,0,0,0,6.18,0h0a3.09,3.09,0,1,0,6.18,0h0a3.09,3.09,0,1,0,6.18,0h0a3.09,3.09,0,0,0,6.18,0v-6.4C646.12,407.48,651.9,398.84,651.9,388.92Z"/><path class="cls-2" d="M634.45,422.06a3.59,3.59,0,0,0-6.22,0,3.59,3.59,0,0,0-6.22,0,3.59,3.59,0,0,1-3.11-1.8,3.59,3.59,0,0,1-6.22,0,3.59,3.59,0,0,1-6.7-1.79v-7.84a26.74,26.74,0,0,1-11.57-21.71c0-15,13-27.16,29-27.16s29,12.19,29,27.16A27,27,0,0,1,638,412.37v6.1A3.59,3.59,0,0,1,634.45,422.06ZM630.82,418h1l0,.5a2.59,2.59,0,0,0,5.18,0v-6.7l.26-.14a26,26,0,0,0,14.1-22.71c0-14.43-12.56-26.16-28-26.16s-28,11.74-28,26.16a25.76,25.76,0,0,0,11.35,21l.22.15v8.37a2.59,2.59,0,1,0,5.18,0V418h1l0,.5a2.59,2.59,0,0,0,5.18,0V418h1l0,.5a2.59,2.59,0,0,0,5.18,0V418h1l0,.5a2.59,2.59,0,1,0,5.18,0Z"/><path class="cls-2" d="M609.58,422.06a3.6,3.6,0,0,1-3.61-3.59v-8.1h1v8.1a2.61,2.61,0,0,0,5.21,0V415h1v3.44A3.6,3.6,0,0,1,609.58,422.06Z"/><path class="cls-2" d="M615.8,422.07a3.59,3.59,0,0,1-2.55-1.06,3.55,3.55,0,0,1-1.06-2.54h1a2.56,2.56,0,0,0,.77,1.83,2.61,2.61,0,0,0,4.45-1.83V415h1v3.45A3.6,3.6,0,0,1,615.8,422.07Z"/><path class="cls-2" d="M622,422.07a3.6,3.6,0,0,1-3.6-3.59h1a2.6,2.6,0,0,0,5.21,0V415h1v3.45A3.6,3.6,0,0,1,622,422.07Z"/><path class="cls-2" d="M628.22,422.07a3.6,3.6,0,0,1-3.61-3.59h1a2.6,2.6,0,0,0,5.21,0V415h1v3.45A3.6,3.6,0,0,1,628.22,422.07Z"/><path class="cls-2" d="M634.43,422.07a3.6,3.6,0,0,1-3.61-3.59h1a2.61,2.61,0,0,0,5.22,0V415h1v3.45A3.6,3.6,0,0,1,634.43,422.07Z"/><rect class="cls-2" x="240.22" y="318.13" width="1" height="17.96"/><rect class="cls-2" x="218.88" y="302.71" width="1" height="17.96"/><path class="cls-3" d="M240.34,304.32l-4.27,13.06a4.49,4.49,0,0,0,4.27,5.88h0a4.49,4.49,0,0,0,4.27-5.88Z"/><path class="cls-2" d="M240.34,323.77a5,5,0,0,1-4.74-6.54l4.74-14.51,4.74,14.51a5,5,0,0,1-4.74,6.54Zm0-17.84-3.79,11.61a4,4,0,1,0,7.58,0Z"/><path class="cls-3" d="M219.38,283.44l-5.13,15.71a5.4,5.4,0,0,0,5.13,7.08h0a5.4,5.4,0,0,0,5.13-7.08Z"/><path class="cls-2" d="M219.38,306.73a5.9,5.9,0,0,1-5.61-7.73l5.61-17.16L225,299a5.9,5.9,0,0,1-5.61,7.73Zm0-21.68-4.66,14.26a4.9,4.9,0,1,0,9.32,0Z"/><rect class="cls-1" x="207.78" y="315.58" width="25.27" height="43.28"/><path class="cls-2" d="M233.56,359.37H207.28V315.08h26.27Zm-25.27-1h24.27V316.08H208.28Z"/><rect class="cls-1" x="233.06" y="327.51" width="15.88" height="26.33"/><path class="cls-2" d="M249.43,354.34H232.56V327h16.88Zm-15.88-1h14.88V328H233.56Z"/><polygon class="cls-2" points="519.32 305.94 525.41 275 535.33 272.05 540.84 276.58 533.95 278.94 536.9 310.43 519.32 305.94"/><path class="cls-2" d="M537.46,311.09l-18.73-4.78,6.24-31.7,10.46-3.11,6.41,5.26-7.36,2.52Zm-17.56-5.52,16.44,4.2-2.92-31.18,6.41-2.2-4.61-3.79-9.37,2.79Z"/><path class="cls-4" d="M535.09,304.47,528.31,399a21.52,21.52,0,0,0,21.47,23.06h2.64a39.12,39.12,0,0,0,38.43-46.6c-3.48-17.71-7.56-35.15-12.06-50.24a31.31,31.31,0,0,0-34.54-22.09Z"/><path class="cls-2" d="M552.42,422.56h-2.64a22,22,0,0,1-22-23.6L534.62,304l9.55-1.4a32,32,0,0,1,35.09,22.44c4.27,14.3,8.33,31.22,12.07,50.29a39.62,39.62,0,0,1-38.92,47.2ZM535.56,304.91,528.81,399a21,21,0,0,0,21,22.53h2.64a38.62,38.62,0,0,0,37.93-46c-3.74-19-7.79-35.93-12.05-50.2a31,31,0,0,0-34-21.73Z"/><path class="cls-4" d="M335.68,329.57C328.57,380.1,356.5,421.51,398,422s81-40,88.1-90.53S465.32,239.58,423.77,239,342.78,279,335.68,329.57Z"/><path class="cls-2" d="M398.86,422.55H398a59.64,59.64,0,0,1-45-21.3c-15.28-17.81-21.81-44-17.9-71.75,7.13-50.7,46.89-91.48,88.6-91a59.64,59.64,0,0,1,45,21.3c15.28,17.81,21.81,44,17.9,71.75C479.56,382,440.29,422.55,398.86,422.55Zm24.09-183c-40.95,0-79.77,40.21-86.79,90.1-3.87,27.5,2.57,53.37,17.67,71a58.66,58.66,0,0,0,44.21,21h.81c40.95,0,79.77-40.21,86.79-90.1,3.87-27.5-2.57-53.37-17.67-71a58.66,58.66,0,0,0-44.21-21Z"/><path class="cls-4" d="M523.22,304.47V397a20.23,20.23,0,0,1-23.9,19.89l-3.94-.73A35.69,35.69,0,0,1,466.92,374a453.88,453.88,0,0,1,12.29-48.5,32.39,32.39,0,0,1,35.58-22.31Z"/><path class="cls-2" d="M503,417.74a20.81,20.81,0,0,1-3.79-.35l-3.94-.73a36.19,36.19,0,0,1-28.86-42.72,456.29,456.29,0,0,1,12.3-48.56,32.77,32.77,0,0,1,36.13-22.65l8.85,1.3v93A20.73,20.73,0,0,1,503,417.74Zm7-114.36a31.77,31.77,0,0,0-30.32,22.31,455.29,455.29,0,0,0-12.28,48.45,35.2,35.2,0,0,0,28.06,41.54l3.94.73A19.73,19.73,0,0,0,522.72,397V304.9l-8-1.17A32.38,32.38,0,0,0,510,303.38Z"/><path class="cls-4" d="M561.46,358.28c-.77,33.67-18,61-38.48,61s-36.47-27.3-35.71-61,18-61,38.48-61S562.22,324.61,561.46,358.28Z"/><path class="cls-2" d="M523,419.75c-6.94,0-13.65-3.11-19.4-9-11-11.26-17.29-30.89-16.8-52.49.77-33.89,18.26-61.46,39-61.46,6.94,0,13.65,3.11,19.4,9,11,11.26,17.29,30.89,16.8,52.49h0C561.19,392.18,543.7,419.75,523,419.75Zm2.77-121.94c-20.18,0-37.22,27.13-38,60.48-.49,21.34,5.69,40.69,16.52,51.77,5.56,5.69,12,8.69,18.69,8.69,20.18,0,37.22-27.13,38-60.48.48-21.34-5.69-40.69-16.52-51.77C538.88,300.82,532.42,297.81,525.75,297.81Z"/><path class="cls-4" d="M273,326.68c1.63,49,35.47,88.8,75.58,88.8s71.29-39.76,69.66-88.8-35.47-88.8-75.58-88.8S271.39,277.64,273,326.68Z"/><path class="cls-2" d="M348.6,416c-40.31,0-74.44-40.05-76.08-89.28-.9-26.9,8-52.1,24.54-69.16,12.58-13,28.78-20.16,45.62-20.16,40.31,0,74.44,40.05,76.08,89.28.9,26.9-8,52.1-24.54,69.16C381.64,408.82,365.44,416,348.6,416Zm-75.08-89.32c1.62,48.7,35.3,88.32,75.08,88.32,16.57,0,32.51-7.05,44.9-19.86,16.31-16.86,25.15-41.8,24.26-68.43-1.62-48.7-35.3-88.32-75.08-88.32-16.57,0-32.51,7.05-44.9,19.86C281.48,275.09,272.63,300,273.52,326.66Z"/><path class="cls-4" d="M286.94,370.2a52,52,0,0,1-52.06,52.06c-.51,0-1,0-1.52,0a52.06,52.06,0,0,1-42.3-80.15H278.7A51.86,51.86,0,0,1,286.94,370.2Z"/><path class="cls-2" d="M234.88,422.76c-.52,0-1,0-1.54,0a52.56,52.56,0,0,1-42.7-80.92l.15-.23H279l.15.23a52.54,52.54,0,0,1-44.24,81Zm-43.55-80.18a51.52,51.52,0,0,0,42,79.15,49.58,49.58,0,0,0,13.5-1.38,51.58,51.58,0,0,0,31.55-77.77Z"/><path class="cls-4" d="M269.59,368.18c0,25.48-15.26,47-36.23,54a45.42,45.42,0,0,1-6.56,1.69,46.39,46.39,0,0,1-8.29.74c-28.21,0-51.07-25.29-51.07-56.48a61.14,61.14,0,0,1,5.76-26.1h90.62A61,61,0,0,1,269.59,368.18Z"/><path class="cls-2" d="M218.51,425.16c-28.44,0-51.57-25.56-51.57-57a61.23,61.23,0,0,1,5.81-26.31l.13-.29h91.25l.14.29a61.11,61.11,0,0,1,5.82,26.31c0,25.28-14.7,47.19-36.57,54.52a46.07,46.07,0,0,1-6.63,1.71A47,47,0,0,1,218.51,425.16Zm-45-82.58a60.26,60.26,0,0,0-5.58,25.6c0,30.87,22.69,56,50.57,56a46,46,0,0,0,8.2-.73,45.08,45.08,0,0,0,6.49-1.67c21.47-7.2,35.89-28.73,35.89-53.58a60.14,60.14,0,0,0-5.59-25.6Z"/><path class="cls-4" d="M271.56,368.18c0,24-10.19,44.47-24.57,52.66a27.88,27.88,0,0,1-13.94,3.82,26.59,26.59,0,0,1-6.25-.74,30.49,30.49,0,0,1-11.09-5.3c-12.55-9.3-21.16-28.4-21.16-50.44a78.1,78.1,0,0,1,4.35-26.1h68.31A78.1,78.1,0,0,1,271.56,368.18Z"/><path class="cls-2" d="M233.05,425.16a27.18,27.18,0,0,1-6.37-.75A31,31,0,0,1,215.42,419c-13.18-9.76-21.36-29.25-21.36-50.84a78.1,78.1,0,0,1,4.38-26.27l.12-.33h69l.12.33a78.11,78.11,0,0,1,4.38,26.27c0,23.67-9.74,44.51-24.82,53.09A28.32,28.32,0,0,1,233.05,425.16Zm-33.8-82.58a77.21,77.21,0,0,0-4.2,25.6c0,21.29,8,40.46,21,50a30,30,0,0,0,10.91,5.21,26.15,26.15,0,0,0,6.13.73,27.34,27.34,0,0,0,13.69-3.75c14.54-8.29,24.32-29.27,24.32-52.23a77.22,77.22,0,0,0-4.2-25.6Z"/><path class="cls-4" d="M306.7,325.3c-.43,52.92,28,95.62,63.46,95.36s64.59-43.36,65-96.28-28-95.62-63.46-95.36S307.13,272.37,306.7,325.3Z"/><path class="cls-2" d="M369.85,421.16c-12.82,0-25.13-5.55-35.64-16.07-17.8-17.82-28.27-47.65-28-79.8.43-53.11,29.82-96.52,65.52-96.78H372c12.82,0,25.13,5.55,35.64,16.07,17.8,17.82,28.27,47.65,28,79.8-.43,53.11-29.82,96.52-65.52,96.78ZM306.7,325.29h.5c-.26,31.89,10.1,61.45,27.72,79.09,10.31,10.32,22.39,15.77,34.93,15.77h.31c35.15-.25,64.1-43.22,64.52-95.78.26-31.89-10.1-61.45-27.72-79.09C396.65,235,384.58,229.51,372,229.51h-.31c-35.15.25-64.1,43.22-64.52,95.78Z"/><path class="cls-2" d="M453,316.48c-.89,30.11-21.29,55.69-49.84,66.17a83.08,83.08,0,0,1-24.25,5c-1.52.09-3.06.13-4.6.13a83.69,83.69,0,0,1-26.83-4.37,80.25,80.25,0,0,1-20.22-10.17c-17.91-12.44-29.94-31.83-31.5-53.87a83.74,83.74,0,0,0,15.41,13.48,97.28,97.28,0,0,0,16.09,8.86,109.87,109.87,0,0,0,23.82,7.28,119,119,0,0,0,22.1,2H374a117.73,117.73,0,0,0,27.32-3.32,107.54,107.54,0,0,0,17.21-5.72C432.63,335.89,444.54,327.09,453,316.48Z"/><path class="cls-2" d="M374.35,388.23a84.09,84.09,0,0,1-27-4.4A80.7,80.7,0,0,1,327,373.6c-18.63-12.94-30.19-32.71-31.71-54.24l-.1-1.47,1,1.1a83.35,83.35,0,0,0,15.32,13.4,97,97,0,0,0,16,8.81,109.51,109.51,0,0,0,23.71,7.25,118.76,118.76,0,0,0,22,2c.25,0,.5,0,.75,0a117.3,117.3,0,0,0,27.22-3.31,107.31,107.31,0,0,0,17.13-5.69c14-6,25.87-14.74,34.33-25.3l.93-1.17,0,1.49c-.87,29.61-20.57,55.76-50.17,66.63a83.58,83.58,0,0,1-24.4,5C377.52,388.18,376,388.23,374.35,388.23Zm-77.93-67.48c1.91,20.66,13.21,39.56,31.17,52a79.68,79.68,0,0,0,20.09,10.11,83.1,83.1,0,0,0,26.67,4.34c1.58,0,3.12,0,4.57-.13A82.6,82.6,0,0,0,403,382.18c28.72-10.54,48-35.64,49.45-64.23-8.49,10.17-20.13,18.6-33.76,24.44a108.43,108.43,0,0,1-17.29,5.75A118.25,118.25,0,0,1,374,351.47h-.77a119.74,119.74,0,0,1-22.19-2,110.44,110.44,0,0,1-23.93-7.31,98,98,0,0,1-16.17-8.91A85.12,85.12,0,0,1,296.42,320.75Z"/><circle class="cls-2" cx="389.12" cy="313.01" r="9.25"/><circle class="cls-2" cx="326.5" cy="313.01" r="9.25"/><rect class="cls-2" x="412.3" y="141.4" width="1" height="211.99" transform="translate(9.38 509.82) rotate(-63.98)"/><polygon class="cls-5" points="503.65 156.99 472.87 182.9 466.26 243.62 464.31 261.58 463.18 271.99 375.88 229.38 383.11 222.24 395.96 209.55 449.18 156.99 503.65 156.99"/><path class="cls-2" d="M463.6,272.75,375,229.52l73.95-73h56l-31.67,26.66Zm-86.87-43.51,86,42,9.63-88.58,29.89-25.16H449.38Z"/><polygon class="cls-2" points="466.26 243.62 464.31 261.58 383.11 222.24 395.96 209.55 466.26 243.62"/><path class="cls-2" d="M464.73,262.34l-82.48-40,13.6-13.44,70.94,34.38ZM384,222.1l79.92,38.72,1.84-16.9-69.67-33.76Z"/><rect class="cls-2" x="503.15" y="156.99" width="1" height="68.38"/><path class="cls-2" d="M505.76,222.93a6.15,6.15,0,0,0,2.58-5.24c0-3.24-2.1-5.87-4.69-5.87S499,214.46,499,217.7a6.15,6.15,0,0,0,2.58,5.24,3.1,3.1,0,0,0-1.22,2.43,3.33,3.33,0,0,0,6.64,0A3.1,3.1,0,0,0,505.76,222.93Z"/><path class="cls-2" d="M503.65,215.63c-4.13,0-7.7-2.58-8.29-6l1-.17c.51,2.95,3.66,5.17,7.31,5.17s6.8-2.22,7.32-5.17l1,.17C511.36,213.05,507.79,215.63,503.65,215.63Z"/><path class="cls-2" d="M511.66,229.48c-.41-3-3.93-5.41-8-5.41s-7.61,2.37-8,5.41l-1-.13c.48-3.58,4.35-6.27,9-6.27s8.53,2.7,9,6.27Z"/><path class="cls-2" d="M491.76,225.26l-.87-.49c1.67-3,6.8-5,12.77-5s11.11,2,12.77,5l-.87.49c-1.46-2.64-6.35-4.48-11.89-4.48S493.23,222.62,491.76,225.26Z"/><path class="cls-2" d="M503.65,218.48c-5.08,0-9.64-1.47-11.89-3.82l.72-.69c2,2.14,6.42,3.52,11.17,3.52s9.13-1.38,11.17-3.52l.72.69C513.29,217,508.73,218.48,503.65,218.48Z"/><circle class="cls-2" cx="610.14" cy="391.87" r="6.19"/><circle class="cls-2" cx="629.6" cy="391.87" r="6.19"/><path class="cls-1" d="M636.82,365.41a4.46,4.46,0,0,1-4.15,2.17c-3.61-.16-2.08,2-5,2.73s-4.09-2-7.62-2.73-5.29,2.49-8.42,1.12c-1.4-.61-1.58-1.94-1.12-3.53a30.19,30.19,0,0,1,26.36.24Z"/><path class="cls-2" d="M626.66,370.93a6.09,6.09,0,0,1-3.35-1.3,9.56,9.56,0,0,0-3.41-1.56,6.08,6.08,0,0,0-3.88.69c-1.38.59-2.8,1.2-4.64.39-1.05-.46-2.15-1.55-1.4-4.13l.06-.21.2-.1a30,30,0,0,1,13.16-3A30.4,30.4,0,0,1,637,365l.48.24-.28.46a4.92,4.92,0,0,1-4.6,2.41c-1.69-.06-2,.38-2.46,1a3.66,3.66,0,0,1-2.44,1.71A4.53,4.53,0,0,1,626.66,370.93Zm-7.7-4a5.68,5.68,0,0,1,1.14.12,10.52,10.52,0,0,1,3.75,1.7c1.22.78,2.18,1.4,3.65,1a2.7,2.7,0,0,0,1.86-1.31c.62-.9,1.23-1.54,3.33-1.44a4,4,0,0,0,3.39-1.48,29.45,29.45,0,0,0-12.68-2.84,29.08,29.08,0,0,0-12.52,2.76c-.48,1.87.28,2.45.9,2.72,1.44.63,2.56.15,3.85-.4A8.25,8.25,0,0,1,619,367Z"/><polygon class="cls-2" points="355.31 315.58 347.52 341.38 363.09 341.38 355.31 315.58"/><polygon class="cls-2" points="238.12 366.85 232.32 376.55 243.92 376.55 238.12 366.85"/><polygon class="cls-2" points="515.35 368.43 523.02 360.15 509.56 358.74 515.35 368.43"/><polygon class="cls-2" points="502.33 338.97 488.52 350.89 506.87 356.63 502.33 338.97"/><polygon class="cls-2" points="263.76 355.75 245.57 357.09 256.88 372.64 263.76 355.75"/><polygon class="cls-2" points="210.05 355.64 228.24 356.99 216.93 372.54 210.05 355.64"/><polygon class="cls-2" points="533.03 339.57 544.34 353.88 525.23 356.06 533.03 339.57"/><polygon class="cls-2" points="619.73 400.52 617.06 409.36 622.4 409.36 619.73 400.52"/><path class="cls-3" d="M622.69,331.4l-3.63,12a3.79,3.79,0,0,0,3.63,4.89h0a3.79,3.79,0,0,0,3.63-4.89Z"/><path class="cls-2" d="M622.69,348.81a4.29,4.29,0,0,1-4.11-5.53l4.11-13.62,4.11,13.62a4.29,4.29,0,0,1-4.11,5.53Zm0-15.69-3.15,10.44a3.29,3.29,0,1,0,6.3,0Z"/><rect class="cls-2" x="578.8" y="262.95" width="1" height="18.19"/><rect class="cls-2" x="570.2" y="271.55" width="18.19" height="1"/><rect class="cls-2" x="578.8" y="265.42" width="1" height="13.27" transform="translate(-22.7 489.31) rotate(-45)"/><rect class="cls-2" x="572.66" y="271.55" width="13.27" height="1" transform="translate(-22.7 489.31) rotate(-45)"/><ellipse class="cls-2" cx="579.3" cy="259.94" rx="1.06" ry="1.48"/><ellipse class="cls-2" cx="579.3" cy="284.16" rx="1.06" ry="1.48"/><ellipse class="cls-2" cx="591.41" cy="272.05" rx="1.48" ry="1.06"/><ellipse class="cls-2" cx="567.18" cy="272.05" rx="1.48" ry="1.06"/><rect class="cls-2" x="200.71" y="206" width="1" height="18.19"/><rect class="cls-2" x="192.11" y="214.6" width="18.19" height="1"/><rect class="cls-2" x="200.71" y="208.46" width="1" height="13.27" transform="translate(-93.16 205.27) rotate(-45)"/><rect class="cls-2" x="194.58" y="214.6" width="13.27" height="1" transform="translate(-93.16 205.28) rotate(-45)"/><ellipse class="cls-2" cx="213.32" cy="215.1" rx="1.48" ry="1.06"/><ellipse class="cls-2" cx="189.09" cy="215.1" rx="1.48" ry="1.06"/><rect class="cls-2" x="256.23" y="222.37" width="1" height="15.1"/><rect class="cls-2" x="252.05" y="229.42" width="9.35" height="1"/><rect class="cls-2" x="239.84" y="242.24" width="1" height="11.54"/><rect class="cls-2" x="236.77" y="247.5" width="7.14" height="1"/><circle class="cls-5" cx="309.7" cy="172.52" r="4.37"/><circle class="cls-5" cx="656.28" cy="316.97" r="4.37"/><circle class="cls-5" cx="164.79" cy="273.11" r="4.37"/><circle class="cls-5" cx="324.07" cy="187.54" r="2.42"/><circle class="cls-5" cx="628.91" cy="298.22" r="2.42"/><circle class="cls-5" cx="285.37" cy="213.68" r="2.07"/><circle class="cls-5" cx="181.95" cy="256.6" r="2.07"/><polygon class="cls-2" points="189.6 375.11 211.63 391.08 223.68 386.12 230.91 393.42 238.77 386.4 248.13 392.18 256.12 382.68 260.39 385.44 271.56 371.7 260.53 393.42 255.41 393.42 248.93 402.52 240.34 399.21 232.32 405.68 220.42 398.79 207.78 399.9 189.6 375.11"/><polygon class="cls-5" points="313.56 427.11 310.35 424.8 310.91 420.85 294.33 424.36 309.27 432.37 309.83 428.42 313.56 427.11"/><path class="cls-2" d="M309.66,433.15l-16.77-9,18.62-3.94-.62,4.36,3.75,2.69-4.35,1.54Zm-13.89-8.58,13.1,7,.5-3.54,3.12-1.1L309.81,425l.51-3.54Z"/><polygon class="cls-5" points="271.86 419.3 268.13 420.62 271.34 422.93 270.78 426.88 287.36 423.37 272.42 415.35 271.86 419.3"/><path class="cls-2" d="M270.18,427.51l.62-4.36-3.75-2.69,4.35-1.54.62-4.36,16.77,9Zm-1-6.74,2.68,1.93-.51,3.54,14.54-3.08-13.1-7-.5,3.54Z"/><circle class="cls-5" cx="290.84" cy="423.86" r="7.89" transform="translate(-169.87 651.88) rotate(-81.88)"/><path class="cls-2" d="M290.85,432.25a8.5,8.5,0,0,1-1.19-.08,8.38,8.38,0,1,1,1.19.08Zm0-15.78a7.39,7.39,0,0,0-7.3,6.35h0a7.39,7.39,0,1,0,8.36-6.27A7.48,7.48,0,0,0,290.83,416.47Z"/><polygon class="cls-1" points="422.46 427.74 416.92 433.06 423.79 436.5 423.66 443.01 432.76 430.65 420.39 421.56 422.46 427.74"/><path class="cls-2" d="M423.13,444.58l.15-7.77-7.22-3.61,5.82-5.6-2.46-7.38,14,10.32Zm-5.35-11.64,6.52,3.26-.1,5.25,7.86-10.69-10.69-7.86,1.66,5Z"/><polygon class="cls-1" points="494.72 421.22 487.85 417.78 487.98 411.27 478.88 423.63 491.25 432.72 489.18 426.54 494.72 421.22"/><path class="cls-2" d="M492.22,434.06l-14-10.32,10.32-14-.15,7.78,7.22,3.61-5.82,5.6Zm-12.63-10.54,10.69,7.86-1.66-5,5.25-5.05-6.52-3.26.1-5.26Z"/><path class="cls-1" d="M481.49,420.42l.84,5.49a4.49,4.49,0,0,1-3.77,5.13l-43.27,6.59a4.51,4.51,0,0,1-5.13-3.77l-.84-5.49a4.49,4.49,0,0,1,3.77-5.13l43.27-6.59a4.51,4.51,0,0,1,5.13,3.77Z"/><path class="cls-2" d="M434.6,438.18a5,5,0,0,1-4.94-4.25l-.83-5.49a5,5,0,0,1,4.19-5.7l43.27-6.59a4.89,4.89,0,0,1,3.06.51,5,5,0,0,1,2.63,3.68l.84,5.49a5,5,0,0,1-4.19,5.7l-43.27,6.59A5,5,0,0,1,434.6,438.18ZM477,417.1a4.15,4.15,0,0,0-.61,0l-43.27,6.59a4,4,0,0,0-3.35,4.56l.83,5.49a4,4,0,0,0,4.56,3.35l43.27-6.59a4,4,0,0,0,3.35-4.56L481,420.5a4,4,0,0,0-2.11-2.94A3.9,3.9,0,0,0,477,417.1Z"/><path class="cls-3" d="M435.59,422.86l-3.46,14.07a4.45,4.45,0,0,1-2-3.08l-.84-5.49a4.49,4.49,0,0,1,3.77-5.13Z"/><path class="cls-2" d="M432.45,437.73l-.59-.38a5,5,0,0,1-2.2-3.42l-.83-5.49a5,5,0,0,1,4.19-5.7l3.24-.49Zm2.48-14.27-1.76.27a4,4,0,0,0-3.35,4.56l.83,5.49a4,4,0,0,0,1.18,2.28Z"/><polygon class="cls-3" points="450.17 420.64 446.41 435.93 438.55 437.13 442.31 421.83 450.17 420.64"/><path class="cls-2" d="M437.89,437.73l4-16.34,8.93-1.36-4,16.34Zm4.83-15.45-3.5,14.24,6.79-1,3.5-14.24Z"/><polygon class="cls-3" points="464.75 418.42 460.99 433.71 453.13 434.9 456.9 419.61 464.75 418.42"/><path class="cls-2" d="M452.47,435.51l4-16.34,8.92-1.36-4,16.34Zm4.84-15.46L453.8,434.3l6.79-1,3.5-14.24Z"/><path class="cls-3" d="M479.11,417.11l-3.54,14.38-7.86,1.2,3.77-15.29,4.87-.74A4.43,4.43,0,0,1,479.11,417.11Z"/><path class="cls-2" d="M467,433.29l4-16.34,5.2-.79a4.89,4.89,0,0,1,3.06.51l.34.18L476,431.93Zm4.84-15.45-3.51,14.24,6.79-1,3.36-13.65a3.92,3.92,0,0,0-2.09-.25Z"/><path class="cls-2" d="M568.36,358.21c-1.65,20.15-20,36-42.48,36s-40.82-15.88-42.48-36a49,49,0,0,0,17.08,12,60.54,60.54,0,0,0,12.9,3.93,65.77,65.77,0,0,0,12.14,1.17h.36A66.76,66.76,0,0,0,540,373.8C551.69,371.27,561.68,365.66,568.36,358.21Z"/><path class="cls-2" d="M525.88,394.74c-22.41,0-41.29-16-43-36.48l-.12-1.48,1,1.11a48.68,48.68,0,0,0,16.91,11.84,60.07,60.07,0,0,0,12.79,3.9,65.58,65.58,0,0,0,12,1.16h.36a66.38,66.38,0,0,0,14-1.48c11.41-2.47,21.39-7.95,28.1-15.44l1-1.11-.12,1.48C567.19,378.71,548.31,394.74,525.88,394.74Zm-41.83-35.09c2.41,19.23,20.47,34.09,41.83,34.09s39.43-14.86,41.83-34.1c-6.82,7.08-16.56,12.26-27.61,14.64a67.27,67.27,0,0,1-14.22,1.5h-.36a66.52,66.52,0,0,1-12.23-1.18,61.11,61.11,0,0,1-13-4A50.33,50.33,0,0,1,484.06,359.65Z"/><path class="cls-4" d="M513.38,374.12v7.47l-12.9-4.72v-6.68A60.54,60.54,0,0,0,513.38,374.12Z"/><path class="cls-2" d="M513.88,382.3,500,377.22v-7.79l.7.3a60,60,0,0,0,12.79,3.9l.41.08ZM501,376.52l11.9,4.35v-6.34a61.11,61.11,0,0,1-11.9-3.59Z"/><path class="cls-4" d="M540,373.8v4.94L525.52,382v-6.75h.36A66.76,66.76,0,0,0,540,373.8Z"/><path class="cls-2" d="M525,382.66v-7.88h.86a66.38,66.38,0,0,0,14-1.48l.61-.13v6Zm1-6.88v5.62l13.47-3.07v-3.92A67.46,67.46,0,0,1,526,375.79Z"/><path class="cls-4" d="M327.3,341.66v11.29L311.21,345V332.8A97.28,97.28,0,0,0,327.3,341.66Z"/><path class="cls-2" d="M327.8,353.75l-17.09-8.43V331.85l.78.53a97,97,0,0,0,16,8.82l.3.13Zm-16.09-9.06,15.09,7.45V342a98.26,98.26,0,0,1-15.09-8.25Z"/><path class="cls-4" d="M374,351v9H351.12v-11a119,119,0,0,0,22.1,2Z"/><path class="cls-2" d="M374.49,360.45H350.62V348.33l.59.11a118.74,118.74,0,0,0,22,2c.25,0,.5,0,.75,0l.52,0Zm-22.87-1h21.87v-8h-.27a119.91,119.91,0,0,1-21.6-1.94Z"/><path class="cls-4" d="M419.48,350.57l-17.15,6.2-1-9.12a107.54,107.54,0,0,0,17.21-5.72Z"/><path class="cls-2" d="M401.91,357.45l-1.14-10.19.43-.1a107.23,107.23,0,0,0,17.13-5.69l.62-.27,1.08,9.7Zm0-9.42.9,8.05,16.18-5.85-.84-7.58A108.44,108.44,0,0,1,401.86,348Z"/><path class="cls-4" d="M347.52,373.09v10.27a80.25,80.25,0,0,1-20.22-10.17v-7.42Z"/><path class="cls-2" d="M348,384.05l-.66-.22A80.7,80.7,0,0,1,327,373.6l-.21-.15v-8.39L348,372.74ZM327.8,372.92A79.65,79.65,0,0,0,347,382.66v-9.22l-19.22-7Z"/><path class="cls-4" d="M403.2,373.66v9a83.08,83.08,0,0,1-24.25,5V377.08Z"/><path class="cls-2" d="M378.45,388.12V376.64l25.25-3.56V383l-.33.12a83.58,83.58,0,0,1-24.4,5Zm1-10.61v9.56a82.61,82.61,0,0,0,23.25-4.77v-8.06Z"/><path class="cls-3" d="M174,371.93a16.6,16.6,0,0,1-.94,3.22l-3,7.42-3.75,9.22-3.42,8.38-3.75,9.22-3.41,8.37h0L151.92,427h0l-.1.25-.35-.14-8-3.25,1.35-3.32,3.41-8.38,3.75-9.21,3.41-8.38,3.75-9.22L162,378.4l2.71-6.65a7.07,7.07,0,0,0,.4-4.12,7.26,7.26,0,0,0-3-4.64,6.85,6.85,0,0,0-1.41-.77,7.28,7.28,0,0,0-7.75,1.43,7.13,7.13,0,0,0-1.79,2.58l-2,4.93-1.45,3.56L140,371.59l-.65-.26.19-.48,3.27-8c.15-.38.32-.75.5-1.11a16.31,16.31,0,0,1,14.81-9h0a16.19,16.19,0,0,1,5.94,1.2,16.67,16.67,0,0,1,1.9.92,16.39,16.39,0,0,1,8,17.13Z"/><path class="cls-2" d="M152.1,427.89l-.82-.33-8.44-3.44,21.39-52.56a6.58,6.58,0,0,0,.37-3.83,6.79,6.79,0,0,0-2.79-4.33,6.3,6.3,0,0,0-1.32-.72,6.74,6.74,0,0,0-5.21,0,6.91,6.91,0,0,0-3.67,3.71l-3.64,9-9.26-3.76.37-.94,3.27-8c.15-.39.33-.77.52-1.14a16.74,16.74,0,0,1,8.52-8,16.41,16.41,0,0,1,6.74-1.32,16.65,16.65,0,0,1,6.13,1.24,16.87,16.87,0,0,1,10.2,18.6h0a17.09,17.09,0,0,1-1,3.32Zm-8-4.32,7.4,3,21-51.63a16.19,16.19,0,0,0,.91-3.12,15.88,15.88,0,0,0-7.75-16.61,16.12,16.12,0,0,0-1.84-.89,15.82,15.82,0,0,0-20.12,7.61c-.17.35-.34.71-.48,1.07L140,371l7.42,3,3.26-8a7.9,7.9,0,0,1,4.21-4.25,7.75,7.75,0,0,1,6,0,7.27,7.27,0,0,1,1.51.83,7.78,7.78,0,0,1,3.2,5,7.56,7.56,0,0,1-.43,4.4Z"/><polygon class="cls-1" points="143.49 423.85 151.47 427.1 151.92 426.99 151.92 426.98 155.68 417.77 144.84 420.53 143.49 423.85"/><path class="cls-2" d="M151.43,427.62l-8.59-3.5,1.63-4,12-3.07-4.1,10v.3Zm-7.29-4,7.37,3h0l3.29-8.07-9.63,2.45Z"/><polygon class="cls-1" points="148.25 412.15 159.09 409.39 162.84 400.17 152 402.94 148.25 412.15"/><path class="cls-2" d="M147.42,412.88l4.22-10.36,12-3.08-4.22,10.37Zm5-9.52-3.28,8.06,9.63-2.45L162,400.9Z"/><polygon class="cls-1" points="155.41 394.56 166.26 391.79 170.01 382.57 159.16 385.34 155.41 394.56"/><path class="cls-2" d="M154.58,395.29l4.22-10.37,12.05-3.08-4.22,10.37Zm5-9.53-3.28,8.07,9.64-2.46,3.28-8.07Z"/><path class="cls-1" d="M173.18,363.26l-8.09,4.37a7.07,7.07,0,0,1-.4,4.12L162,378.4l12-6.47A16.32,16.32,0,0,0,173.18,363.26Z"/><path class="cls-2" d="M161,379.5l3.24-7.94a6.58,6.58,0,0,0,.37-3.83l-.07-.36,8.92-4.82.2.54a16.81,16.81,0,0,1,.81,8.94l0,.24Zm4.65-11.6a7.56,7.56,0,0,1-.49,4L163,377.29l10.55-5.69a15.79,15.79,0,0,0-.61-7.63Z"/><path class="cls-1" d="M160.68,362.22a6.85,6.85,0,0,1,1.41.77L166,354.8a16.67,16.67,0,0,0-1.9-.92,16.19,16.19,0,0,0-5.94-1.2h0l-5.19,11a7.28,7.28,0,0,1,7.75-1.43Z"/><path class="cls-2" d="M151.33,365.86l6.47-13.68h.32a16.66,16.66,0,0,1,6.14,1.24,16.93,16.93,0,0,1,2,.95l.4.23-4.34,9.15-.49-.35a6.26,6.26,0,0,0-1.31-.71,6.74,6.74,0,0,0-5.21,0,6.67,6.67,0,0,0-2,1.3Zm6.58-4.69a7.8,7.8,0,0,1,3,.58h0a7.9,7.9,0,0,1,1,.5l3.43-7.25c-.46-.24-.94-.47-1.44-.67a15.69,15.69,0,0,0-5.45-1.16l-4.22,8.93c.22-.12.44-.23.68-.32A7.78,7.78,0,0,1,157.92,361.17Z"/><path class="cls-1" d="M149.14,371.16l-5.83-9.43c-.18.36-.35.73-.5,1.11l-3.27,8,.46.74,7.69,3.13Z"/><path class="cls-2" d="M148,375.37l-8.3-3.38-.68-1.1,3.37-8.25c.15-.39.33-.77.52-1.14l.4-.8,6.44,10.41Zm-7.63-4.18,7.08,2.88,1.17-2.86-5.21-8.42-.1.24-3.17,7.78Z"/></svg>