<svg id="layer" xmlns="http://www.w3.org/2000/svg" viewBox="0 0 800 600"><defs><style>.cls-1{fill:#fff0dc;}.cls-2{fill:#4b0062;}.cls-3{fill:#f44b1b;}.cls-4{fill:#a26bb4;}.cls-5{fill:#f48001;}</style></defs><title>Halloween Trick or Treat</title><rect class="cls-1" width="800" height="600"/><path class="cls-1" d="M525.58,480.48l4.61,25.05h-37a14.51,14.51,0,0,1,8.86-11.82l.78-.32-2.8-12.91-4-18.23-3.38-15.62h-7.18l-7,19.27-5.28,14.58-9.07,25.05H428.73a13.87,13.87,0,0,1,10-14.47l1.53-.44,4-10.14,7-17.86,6.24-16,3.52-9,26.9-68.94,57.35,1.28L517.7,437.6l1.66,9L522.73,465Z"/><path class="cls-2" d="M530.79,506H492.66l.06-.55a15,15,0,0,1,9.17-12.23l.39-.16-10-46H485.9L464.57,506h-36.3l0-.46a14.4,14.4,0,0,1,10.34-15l1.29-.37,47.62-122.06,58.43,1.3-.27.67-27.42,67.52Zm-37-1h35.8l-12.41-67.48.06-.14,27.2-67-56.28-1.25L440.61,491l-1.77.51A13.4,13.4,0,0,0,429.19,505h34.67l21.33-58.9h7.93l10.3,47.56-1.17.48A14,14,0,0,0,493.79,505Z"/><polygon class="cls-2" points="409.67 198.74 408.71 198.48 415.61 173.54 425.84 168.13 419.22 148.25 432.65 143.06 438.09 123.56 439.05 123.83 433.48 143.81 420.47 148.84 427.06 168.62 416.46 174.22 409.67 198.74"/><path class="cls-2" d="M416.85,195.13l-.81,2.58-1.89,6-3.69,11.81-12.4,39.64H375.29l14.43-46.13,5.82-18.62a6.65,6.65,0,0,1,8.31-4.35l9.9,3.1A4.74,4.74,0,0,1,416.85,195.13Z"/><path class="cls-2" d="M398.42,255.7H374.61l20.45-65.4a7.15,7.15,0,0,1,8.94-4.68l9.9,3.1a5.24,5.24,0,0,1,3.43,6.56Zm-22.46-1h21.72L416.37,195a4.23,4.23,0,0,0-2.77-5.3l-9.9-3.1a6.15,6.15,0,0,0-7.68,4Z"/><polygon class="cls-2" points="307.47 498.5 321.35 505.53 274.77 505.53 279.5 488.59 285.57 476.88 276.03 476.23 274.29 467.55 282.1 464.01 284.42 456.61 295.33 421.79 322.22 433.72 308.75 464.72 307.04 468.64 307.47 498.5"/><path class="cls-2" d="M323.44,506H274.11l4.95-17.67,5.72-11-9.16-.62-1.89-9.44,8-3.61L295,421.1l27.86,12.36-15.33,35.28.42,29.45Zm-48-1h43.83L307,498.81v-.3l-.43-30,1.75-4L321.56,434l-25.92-11.5-13.13,41.9-7.65,3.47,1.59,7.92,9.92.68L280,488.77Z"/><path class="cls-3" d="M322.22,433.72l-13.47,31C301.6,467,294.93,469,294.93,469l-10.51-12.44,10.91-34.82Z"/><path class="cls-2" d="M294.76,469.62l-10.9-12.9L295,421.1l27.86,12.36-13.76,31.66-.22.07c-7.15,2.27-13.82,4.33-13.82,4.33ZM285,456.49l10.12,12c1.39-.43,7.13-2.21,13.28-4.16L321.56,434l-25.92-11.5Z"/><polygon class="cls-2" points="281.69 498.5 295.57 505.53 259.79 505.53 253.72 488.59 259.79 476.88 250.25 476.23 248.51 467.55 256.32 464.01 259.94 452.46 269.55 421.79 296.44 433.72 283.54 463.39 281.26 468.64 281.69 498.5"/><path class="cls-2" d="M297.66,506H259.44l-6.26-17.48.1-.19,5.72-11-9.16-.62-1.89-9.44,8-3.61,13.33-42.54,27.86,12.36-15.33,35.28.42,29.45Zm-37.52-1h33.33l-12.28-6.22v-.3l-.43-30,15-34.56-25.92-11.5-13.13,41.9-7.65,3.47,1.59,7.92,9.92.68-6.32,12.19Z"/><path class="cls-3" d="M296.44,433.72l-12.9,29.67c-7.76,1.92-15.29,3.73-15.29,3.73l-8.31-14.66,9.61-30.67Z"/><path class="cls-2" d="M268,467.69l-8.6-15.18.06-.21,9.78-31.21,27.86,12.36-13.2,30.35-.24.06c-7.76,1.92-15.29,3.73-15.29,3.73Zm-7.52-15.29,8,14.14c1.58-.38,8-1.93,14.68-3.58l12.6-29-25.92-11.5Z"/><polygon class="cls-4" points="330.29 250.97 329.35 254.15 325.77 266.33 322.99 275.76 309.96 320.05 287.54 337.75 279.2 352.24 271.59 347.99 270.65 339.33 263.04 335.08 262.1 326.41 254.49 322.17 253.55 313.5 245.94 309.25 245 300.58 237.39 296.32 253.42 286.82 313.91 250.97 330.29 250.97"/><path class="cls-2" d="M279.38,352.91l-8.27-4.62-.94-8.66-7.61-4.25-.94-8.67L254,322.48l-.94-8.67-7.61-4.25-.94-8.67-8.14-4.56,77.39-45.86H331l-20.56,69.87-22.47,17.74Zm-7.33-5.24,7,3.88,8.22-14.21,22.29-17.6,20.1-68.29H314L238.39,296.3l7.08,4,.94,8.67,7.61,4.25.94,8.67,7.61,4.24.94,8.67,7.61,4.25Z"/><rect class="cls-2" x="237.75" y="275.27" width="92.2" height="1" transform="translate(-103.82 196.2) rotate(-32.57)"/><rect class="cls-2" x="242.76" y="281.73" width="101.43" height="1" transform="translate(-111.62 241.22) rotate(-38.1)"/><rect class="cls-2" x="247.11" y="288.19" width="109.92" height="1" transform="translate(-115.76 286.02) rotate(-43.34)"/><rect class="cls-2" x="249.8" y="294.65" width="114.46" height="1" transform="translate(-115.96 344.71) rotate(-50.55)"/><polygon class="cls-2" points="313.84 281.58 220.9 427.15 353.21 471.32 383.7 288.19 313.84 281.58"/><path class="cls-2" d="M434,317.76,405.78,251l-9.66-22.87-28.49-67.44H304.92l29.8,36.26-9.25,31.18L318.69,251h16.36A38.52,38.52,0,1,0,402,289.13Z"/><path class="cls-5" d="M434,317.76l-32-28.63A38.52,38.52,0,1,1,335,251h70.73Z"/><path class="cls-2" d="M435.32,319.61l-33.24-29.7a39,39,0,1,1-67.47-39.2l.15-.24h71.34l.13.31Zm-33.5-31.28,30.85,27.56-27.22-64.43H335.33a38,38,0,1,0,66.19,37.42Z"/><path class="cls-2" d="M452.89,421.86a30.2,30.2,0,0,0-56-15.47l-.86-.52a31.2,31.2,0,0,1,57.9,16Z"/><path class="cls-3" d="M463,417.31h0a9,9,0,0,1-.83,3,2.5,2.5,0,0,1-4.73-1.44,2.25,2.25,0,0,1,.21-.7,4.09,4.09,0,0,0-.59-4.39l-.22-.24a4.59,4.59,0,0,0-.41-.36,4,4,0,0,0-2.47-.84,4,4,0,0,0-2.55.89,3.17,3.17,0,0,0-.34.3l-1.21,1.21-14.88,14.88a2.5,2.5,0,0,1-3.53-3.53l11.81-11.81,3.58-3.58.7-.7a8.92,8.92,0,0,1,4.39-2.43,9.09,9.09,0,0,1,2-.23,9.19,9.19,0,0,1,3,.49,9,9,0,0,1,3.46,2.17,8.72,8.72,0,0,1,1.69,2.34A9.2,9.2,0,0,1,463,417.31Z"/><path class="cls-2" d="M433.18,430.91a3,3,0,0,1-2.12-5.13l16.09-16.09a9.42,9.42,0,0,1,4.63-2.56,9.6,9.6,0,0,1,5.26.27,9.45,9.45,0,0,1,3.65,2.29,9.17,9.17,0,0,1,1.78,2.47,9.68,9.68,0,0,1,1,5.19h0a9.46,9.46,0,0,1-.87,3.22,3,3,0,0,1-5.68-1.73,2.76,2.76,0,0,1,.25-.84,3.59,3.59,0,0,0-.52-3.85l-.19-.21a4.31,4.31,0,0,0-.37-.32,3.63,3.63,0,0,0-4.4,0,2.68,2.68,0,0,0-.3.26L435.29,430A3,3,0,0,1,433.18,430.91Zm20.74-23a8.54,8.54,0,0,0-1.92.22,8.42,8.42,0,0,0-4.15,2.29l-16.09,16.09a2,2,0,0,0,0,2.82,2,2,0,0,0,2.82,0l16.09-16.09a3.62,3.62,0,0,1,.39-.35,4.65,4.65,0,0,1,5.63,0,5.15,5.15,0,0,1,.46.4l.22.24a4.6,4.6,0,0,1,.68,5,1.81,1.81,0,0,0-.17.55,2,2,0,0,0,3.78,1.16,8.46,8.46,0,0,0,.78-2.87h0a8.68,8.68,0,0,0-.88-4.65A8.18,8.18,0,0,0,460,410.4a8.44,8.44,0,0,0-3.27-2.05A8.66,8.66,0,0,0,453.92,407.89Z"/><path class="cls-1" d="M463,417.31h0l-5.56,1.6a2.25,2.25,0,0,1,.21-.7,4.09,4.09,0,0,0-.59-4.39l5-1.44A9.2,9.2,0,0,1,463,417.31Z"/><path class="cls-2" d="M456.81,419.61l.09-.75a2.79,2.79,0,0,1,.25-.85,3.59,3.59,0,0,0-.52-3.85l-.51-.59,6.16-1.77.19.37a9.68,9.68,0,0,1,1,5.17v.36Zm1-5.5a4.6,4.6,0,0,1,.33,4.06l4.31-1.24a8.68,8.68,0,0,0-.73-3.95Z"/><path class="cls-1" d="M456.88,407.88l-.49,5.35a4,4,0,0,0-2.47-.84,4,4,0,0,0-2.55.89l.52-5.66a9.09,9.09,0,0,1,2-.23A9.19,9.19,0,0,1,456.88,407.88Z"/><path class="cls-2" d="M450.76,414.41l.66-7.2.35-.08a9.59,9.59,0,0,1,5.26.27l.37.13-.61,6.66-.72-.57a3.63,3.63,0,0,0-4.4,0Zm3.16-2.52a4.51,4.51,0,0,1,2,.48l.38-4.13a8.63,8.63,0,0,0-4-.2l-.39,4.29A4.57,4.57,0,0,1,453.92,411.89Z"/><polygon class="cls-1" points="449.82 414.79 446.25 418.36 443.22 414.33 446.8 410.75 449.82 414.79"/><path class="cls-2" d="M446.19,419.12l-3.64-4.84,4.29-4.29,3.63,4.85Zm-2.32-4.74,2.42,3.22,2.86-2.86-2.41-3.23Z"/><path class="cls-3" d="M577.36,346.22a13,13,0,0,1-25,3.53Z"/><path class="cls-2" d="M564.43,358.28a13.5,13.5,0,0,1-12.49-8.34l-.25-.6,26.24-3.71-.07.64A13.48,13.48,0,0,1,564.43,358.28Zm-11.3-8.13a12.52,12.52,0,0,0,23.65-3.34Z"/><path class="cls-3" d="M570.7,370.79a12.69,12.69,0,0,1-.69,4.16l-20.26-14.46a13,13,0,0,1,21,10.3Z"/><path class="cls-2" d="M570.26,375.74,548.91,360.5l.53-.41a13.37,13.37,0,0,1,8.25-2.81,13.53,13.53,0,0,1,13.51,13.51,13.19,13.19,0,0,1-.72,4.32ZM550.6,360.48l19.14,13.66a12.26,12.26,0,0,0,.46-3.35,12.52,12.52,0,0,0-12.51-12.51A12.36,12.36,0,0,0,550.6,360.48Z"/><path class="cls-5" d="M492.28,377.11V396H426.09v-9.36a9.58,9.58,0,0,1,9.57-9.57Z"/><path class="cls-1" d="M448,377.11V396h-22v-9.36a9.58,9.58,0,0,1,9.57-9.57Z"/><path class="cls-2" d="M448.55,396.54h-23v-9.86a10.08,10.08,0,0,1,10.07-10.07h12.89Zm-22-1h21V377.61H435.66a9.08,9.08,0,0,0-9.07,9.07Z"/><path class="cls-2" d="M492.78,396.54H425.59v-9.86a10.08,10.08,0,0,1,10.07-10.07h57.12Zm-66.19-1h65.19V377.61H435.66a9.08,9.08,0,0,0-9.07,9.07Z"/><path class="cls-3" d="M444.19,480.48h29.1l-9.07,25.05H428.73a13.87,13.87,0,0,1,10-14.47l1.53-.44Z"/><path class="cls-2" d="M464.57,506h-36.3l0-.46a14.4,14.4,0,0,1,10.34-15l1.29-.37,4-10.23H474Zm-35.37-1h34.67L472.57,481h-28L440.61,491l-1.77.51A13.4,13.4,0,0,0,429.19,505Z"/><path class="cls-3" d="M530.19,505.53h-37a14.51,14.51,0,0,1,8.86-11.82l.78-.32-2.8-12.91h25.52Z"/><path class="cls-2" d="M530.79,506H492.66l.06-.55a15,15,0,0,1,9.17-12.23l.39-.16L499.44,480H526l.08.41Zm-37-1h35.8L525.16,481H500.68l2.76,12.71-1.17.48A14,14,0,0,0,493.79,505Z"/><path class="cls-2" d="M556.62,467.85v-1a6.83,6.83,0,1,0,0-13.67,6.48,6.48,0,0,0-2.38.44l-.43.17-8.07-16.93.9-.43,7.68,16.1a7.57,7.57,0,0,1,2.3-.35,7.83,7.83,0,1,1,0,15.67Z"/><path class="cls-5" d="M549.74,445.31A10.39,10.39,0,0,1,536.46,439l-3.23-9-2.43-6.77-1.7-4.74-2.6-7.26-1.69-4.74L513.16,374l19.57-7,10.85,30.28,1.69,4.74,2.6,7.26,1.7,4.73,3.22,9,3.23,9A10.39,10.39,0,0,1,549.74,445.31Z"/><path class="cls-2" d="M546.23,446.42A10.91,10.91,0,0,1,536,439.2l-23.47-65.47L533,366.37l23.46,65.48a10.89,10.89,0,0,1-6.58,13.93h0A10.88,10.88,0,0,1,546.23,446.42ZM513.8,374.33l23.13,64.53a9.89,9.89,0,0,0,12.64,6h0a9.89,9.89,0,0,0,6-12.65l-23.12-64.54Z"/><polygon class="cls-3" points="549.57 414.02 530.8 423.26 529.1 418.52 547.87 409.29 549.57 414.02"/><path class="cls-2" d="M530.52,424l-2-5.69,19.67-9.67,2,5.68Zm-.8-5.18,1.36,3.79,17.87-8.79L547.59,410Z"/><polygon class="cls-3" points="545.27 402.03 526.5 411.26 524.81 406.52 543.58 397.29 545.27 402.03"/><path class="cls-2" d="M526.21,412l-2-5.69,19.67-9.67,2,5.69Zm-.79-5.18,1.35,3.79,17.87-8.79L543.29,398Z"/><path class="cls-2" d="M549.74,445.31A10.39,10.39,0,0,1,536.46,439l-3.23-9,19.56-7,3.23,9A10.39,10.39,0,0,1,549.74,445.31Z"/><polygon class="cls-2" points="517.7 437.6 519.36 446.62 457.4 446.62 460.92 437.6 487.82 368.66 545.17 369.94 517.7 437.6"/><polygon class="cls-5" points="523.03 374.36 514.44 395.51 512.41 400.51 508.89 409.19 506.86 414.19 502.67 424.51 497.35 437.6 481.64 437.6 486.96 424.51 491.15 414.19 493.18 409.19 496.7 400.51 498.73 395.51 507.32 374.36 523.03 374.36"/><polygon class="cls-4" points="522.73 464.98 518.51 462.01 512.83 466.01 507.14 462.01 501.46 466.01 496.11 462.25 492.73 446.63 485.55 446.63 478.57 465.9 473.04 462.01 467.35 466.01 461.66 462.01 455.98 466.01 451.16 462.62 460.92 437.6 517.7 437.6 522.73 464.98"/><path class="cls-1" d="M557.28,349.88a43.24,43.24,0,0,1-.34,5.37,42.21,42.21,0,1,1,.34-5.37Z"/><path class="cls-2" d="M515.09,392.57a42.69,42.69,0,1,1,42.69-42.69,43.75,43.75,0,0,1-.34,5.43A42.75,42.75,0,0,1,515.09,392.57Zm0-84.38a41.69,41.69,0,1,0,41.35,47,42.84,42.84,0,0,0,.34-5.31A41.74,41.74,0,0,0,515.09,308.19Z"/><polygon class="cls-2" points="478.81 466.68 473.04 462.62 467.35 466.62 461.66 462.62 455.98 466.62 450.55 462.8 460.45 437.42 461.38 437.78 451.77 462.43 455.98 465.4 461.66 461.4 467.35 465.4 473.04 461.4 478.32 465.11 485.2 446.13 493.13 446.13 496.55 461.95 501.46 465.4 507.14 461.4 512.83 465.4 518.51 461.4 522.01 463.86 517.2 437.69 518.19 437.51 523.44 466.09 518.51 462.62 512.83 466.62 507.14 462.62 501.46 466.62 495.66 462.54 492.32 447.13 485.9 447.13 478.81 466.68"/><polygon class="cls-4" points="502.67 424.51 497.35 437.6 481.64 437.6 486.96 424.51 502.67 424.51"/><path class="cls-2" d="M524.37,360.15a8.89,8.89,0,1,1,8.89-8.89A8.9,8.9,0,0,1,524.37,360.15Zm0-16.78a7.89,7.89,0,1,0,7.89,7.89A7.9,7.9,0,0,0,524.37,343.37Z"/><circle class="cls-2" cx="522.6" cy="348.68" r="3.37"/><path class="cls-3" d="M557.28,349.88a43.24,43.24,0,0,1-.34,5.37L480.31,326a42.19,42.19,0,0,1,77,23.88Z"/><path class="cls-2" d="M557.35,355.94l-77.82-29.7.36-.52a42.69,42.69,0,0,1,77.88,24.16,43.75,43.75,0,0,1-.34,5.43Zm-76.27-30.18,75.43,28.79a42.77,42.77,0,0,0,.26-4.67,41.69,41.69,0,0,0-75.69-24.12Z"/><path class="cls-2" d="M489.29,351.56c-8.69,0-15.78-6-15.89-13.39h31.78C505.06,345.57,498,351.56,489.29,351.56Z"/><path class="cls-2" d="M504.66,338.67c-.42,6.89-7.15,12.39-15.37,12.39s-15-5.5-15.37-12.39h30.74m1-1H472.91c0,.1,0,.21,0,.32,0,7.77,7.34,14.07,16.39,14.07s16.39-6.3,16.39-14.07c0-.11,0-.22,0-.32Z"/><path class="cls-2" d="M501.5,377.73a4.17,4.17,0,0,1-4-3.21,3.7,3.7,0,0,1-.08-.48c-.69-4.42,3.2-8.92,8.86-10.27a14.2,14.2,0,0,1,3.29-.39c4.46,0,8.18,2.22,9.26,5.52,0,.14.09.29.13.45a3.23,3.23,0,0,1,.09.45,4.17,4.17,0,0,1-3.14,4.62,4.13,4.13,0,0,1-1,.11h0a4.1,4.1,0,0,1-2-.53,3.47,3.47,0,0,1-.6-.41,5.19,5.19,0,0,0-2.6-.7,5.35,5.35,0,0,0-1.24.15,5.21,5.21,0,0,0-3.13,2.15,3.73,3.73,0,0,0-.44.78,4.11,4.11,0,0,1-3.38,1.77Z"/><path class="cls-2" d="M509.52,363.87c4.24,0,7.77,2.08,8.78,5.17,0,.14.09.27.13.47a2.79,2.79,0,0,1,.07.36,3.67,3.67,0,0,1-2.77,4.05,3.6,3.6,0,0,1-2.63-.38,3,3,0,0,1-.5-.35l-.07-.06-.08,0a5.69,5.69,0,0,0-2.77-.72,5.83,5.83,0,0,0-1.35.16,5.68,5.68,0,0,0-3.4,2.33,4.32,4.32,0,0,0-.48.85,3.61,3.61,0,0,1-2.94,1.51,3.68,3.68,0,0,1-3.57-2.87,2.86,2.86,0,0,1-.06-.38v-.05c-.65-4.14,3.08-8.39,8.49-9.68a13.69,13.69,0,0,1,3.17-.38m0-1a14.68,14.68,0,0,0-3.41.41c-6,1.42-10,6.18-9.24,10.81a3.83,3.83,0,0,0,.09.51v0a4.69,4.69,0,0,0,4.53,3.59,4.61,4.61,0,0,0,3.82-2,3.31,3.31,0,0,1,.41-.74,4.73,4.73,0,0,1,2.83-1.94,4.82,4.82,0,0,1,1.12-.13A4.68,4.68,0,0,1,512,374a4,4,0,0,0,.67.46,4.6,4.6,0,0,0,3.34.47,4.67,4.67,0,0,0,3.53-5.15,3.46,3.46,0,0,0-.09-.47v0c0-.17-.09-.33-.14-.49-1.17-3.59-5.12-5.87-9.73-5.87Z"/><polygon class="cls-3" points="514.44 395.51 512.41 400.51 496.7 400.51 498.73 395.51 514.44 395.51"/><polygon class="cls-3" points="508.89 409.19 506.86 414.19 491.15 414.19 493.18 409.19 508.89 409.19"/><polygon class="cls-3" points="462.72 377.11 462.64 396.04 457.64 396.04 457.72 377.11 462.72 377.11"/><path class="cls-2" d="M463.13,396.54h-6l.08-19.93h6Zm-5-1h4l.08-17.93h-4Z"/><polygon class="cls-3" points="475.38 377.11 475.3 396.04 470.3 396.04 470.38 377.11 475.38 377.11"/><path class="cls-2" d="M475.79,396.54h-6l.08-19.93h6Zm-5-1h4l.08-17.93h-4Z"/><rect class="cls-2" x="495.87" y="395.01" width="26.74" height="1"/><rect class="cls-2" x="492.42" y="400.01" width="26.74" height="1"/><rect class="cls-2" x="482.97" y="413.69" width="26.74" height="1"/><rect class="cls-2" x="486.42" y="408.69" width="26.74" height="1"/><polygon class="cls-2" points="437.57 396.53 431.06 396.53 431.06 386.57 432.06 386.57 432.06 395.53 436.57 395.53 436.57 386.57 437.57 386.57 437.57 396.53"/><rect class="cls-2" x="528.16" y="286.68" width="13.57" height="1" transform="translate(90.77 701.13) rotate(-71.21)"/><rect class="cls-2" x="539.75" y="290.39" width="13.39" height="1" transform="matrix(0.6, -0.8, 0.8, 0.6, -14.65, 552.42)"/><rect class="cls-2" x="548.23" y="297.32" width="11.91" height="1" transform="translate(-69.86 377.73) rotate(-35.55)"/><rect class="cls-2" x="572.37" y="304.66" width="4.47" height="1" transform="translate(-33.19 73.04) rotate(-7.07)"/><rect class="cls-2" x="554.14" y="306.32" width="14.05" height="1" transform="translate(-33.5 71.4) rotate(-7.07)"/><rect class="cls-2" x="251.02" y="250.47" width="206.12" height="1"/><polygon class="cls-3" points="405.78 250.97 318.69 250.97 325.47 228.1 396.12 228.1 405.78 250.97"/><path class="cls-2" d="M406.53,251.47H318l7.08-23.87h71.36Zm-87.17-1H405l-9.24-21.87H325.84Z"/><path class="cls-2" d="M368.66,179.17l-.81,2.58-1.89,6-3.69,11.81L332.7,294.11l-20.75-6.49,29.57-94.5,5.83-18.62a6.62,6.62,0,0,1,8.31-4.35l9.89,3.09A4.73,4.73,0,0,1,368.66,179.17Z"/><path class="cls-2" d="M333,294.73l-21.71-6.79,35.55-113.6a7.12,7.12,0,0,1,8.94-4.68l9.89,3.09a5.24,5.24,0,0,1,3.44,6.56h0l-6.39,20.43Zm-20.45-7.44,19.79,6.19L368.18,179a4.23,4.23,0,0,0-2.78-5.3l-9.89-3.09a6.12,6.12,0,0,0-7.68,4Z"/><path class="cls-4" d="M323.89,251.12l-1-.3,23.93-76.47a7.12,7.12,0,0,1,8.94-4.68l9.89,3.09a5.24,5.24,0,0,1,3.44,6.56l-6.39,20.43-16.07,51.37-1-.3L368.18,179a4.23,4.23,0,0,0-2.78-5.3l-9.89-3.09a6.12,6.12,0,0,0-7.68,4Z"/><path class="cls-5" d="M368.66,179.17l-.81,2.58-1.89,6-3.69,11.81-20.75-6.48,5.83-18.62a6.62,6.62,0,0,1,8.31-4.35l9.89,3.09A4.73,4.73,0,0,1,368.66,179.17Z"/><path class="cls-2" d="M362.59,200.22l-21.71-6.78,6-19.1a7.12,7.12,0,0,1,8.94-4.68l9.89,3.09a5.24,5.24,0,0,1,3.44,6.56h0Zm-20.45-7.43L361.94,199l6.24-20a4.23,4.23,0,0,0-2.78-5.3l-9.89-3.09a6.12,6.12,0,0,0-7.68,4Z"/><path class="cls-5" d="M416.85,195.13l-.81,2.58-1.89,6-3.69,11.81-20.74-6.49,5.82-18.62a6.65,6.65,0,0,1,8.31-4.35l9.9,3.1A4.74,4.74,0,0,1,416.85,195.13Z"/><path class="cls-2" d="M410.79,216.18l-21.69-6.79,6-19.1a7.15,7.15,0,0,1,8.94-4.68l9.9,3.1a5.24,5.24,0,0,1,3.43,6.56Zm-20.44-7.45,19.79,6.19,6.24-20a4.23,4.23,0,0,0-2.77-5.3l-9.9-3.1a6.15,6.15,0,0,0-7.68,4Z"/><polygon class="cls-2" points="414.48 204.37 403.69 200.99 403.99 200.04 413.82 203.12 415.41 198.03 405.58 194.95 405.88 194 416.66 197.38 414.48 204.37"/><rect class="cls-2" x="433.61" y="107.19" width="18.19" height="1" transform="translate(231.82 511.56) rotate(-76.1)"/><rect class="cls-2" x="442.21" y="98.59" width="1" height="18.19" transform="translate(231.81 511.56) rotate(-76.1)"/><rect class="cls-2" x="442.21" y="101.06" width="1" height="13.27" transform="translate(8 244.13) rotate(-31.1)"/><rect class="cls-2" x="436.08" y="107.19" width="13.27" height="1" transform="translate(7.96 243.99) rotate(-31.08)"/><ellipse class="cls-2" cx="445.62" cy="95.93" rx="1.48" ry="1.06" transform="translate(245.43 505.45) rotate(-76.1)"/><ellipse class="cls-2" cx="439.8" cy="119.45" rx="1.48" ry="1.06" transform="translate(218.17 517.66) rotate(-76.1)"/><ellipse class="cls-2" cx="454.47" cy="110.6" rx="1.06" ry="1.48" transform="translate(237.91 525.18) rotate(-76.1)"/><ellipse class="cls-2" cx="430.95" cy="104.78" rx="1.06" ry="1.48" transform="translate(225.69 497.93) rotate(-76.1)"/><circle class="cls-1" cx="380.71" cy="276.24" r="9.7"/><path class="cls-2" d="M380.71,286.44a10.2,10.2,0,1,1,10.2-10.2A10.21,10.21,0,0,1,380.71,286.44Zm0-19.41a9.2,9.2,0,1,0,9.2,9.2A9.21,9.21,0,0,0,380.71,267Z"/><ellipse class="cls-3" cx="381.81" cy="277.63" rx="4.09" ry="3.21" transform="matrix(0.5, -0.87, 0.87, 0.5, -49.53, 469.47)"/><path class="cls-2" d="M381.09,282a3.12,3.12,0,0,1-1.58-.42c-1.77-1-2.18-3.64-.92-5.83h0c1.26-2.19,3.74-3.15,5.51-2.12s2.18,3.64.92,5.83a5.2,5.2,0,0,1-2.51,2.25A3.83,3.83,0,0,1,381.09,282Zm-1.63-5.75c-1,1.71-.74,3.72.55,4.46a2.4,2.4,0,0,0,2.13.07,4.2,4.2,0,0,0,2-1.82c1-1.71.74-3.72-.55-4.46s-3.15,0-4.14,1.76Z"/><path class="cls-2" d="M370.28,251,356,258.26a62,62,0,0,0-3-7.29Z"/><rect class="cls-2" x="348.66" y="252.81" width="1" height="7.38" transform="translate(-49.68 87.3) rotate(-13.31)"/><path class="cls-2" d="M381.48,306.77a38.59,38.59,0,0,1-32.72-2.89c-4.28-11.8-1.91-24.73,6.89-27.33,3.29-1,5.73-.33,7.73,1.34s3.55,4.39,5,7.57a.54.54,0,0,1,0,.11c2.26,4.83,4.41,10.7,7.81,15.59A25,25,0,0,0,381.48,306.77Z"/><path class="cls-2" d="M368.18,309.63a38.94,38.94,0,0,1-19.67-5.32l-.16-.09-.06-.17c-2.81-7.76-2.8-16.06,0-21.67a11.81,11.81,0,0,1,7.18-6.31c3.22-1,5.9-.48,8.19,1.44s3.87,5,5.17,7.74a.86.86,0,0,1,.08.2c.54,1.13,1.1,2.42,1.68,3.74a68.2,68.2,0,0,0,6.05,11.69,24.3,24.3,0,0,0,5.1,5.5l.71.55-.84.31A38.73,38.73,0,0,1,368.18,309.63Zm-19-6.09a38.1,38.1,0,0,0,31.3,3.06,25.85,25.85,0,0,1-4.6-5.15,68.89,68.89,0,0,1-6.15-11.86c-.58-1.31-1.14-2.59-1.7-3.81l.4-.32-.45.21c-1.25-2.67-2.81-5.64-4.91-7.4s-4.35-2.1-7.27-1.24a10.84,10.84,0,0,0-6.57,5.8C346.52,288.16,346.5,296.08,349.17,303.54Z"/><path class="cls-4" d="M368.18,309.63a38.94,38.94,0,0,1-19.67-5.32l.51-.86a38.08,38.08,0,0,0,32.29,2.85l.35.94A38.73,38.73,0,0,1,368.18,309.63Z"/><path class="cls-1" d="M368.42,285.46l-9.42-.27,4.38-7.3C365.38,279.57,366.93,282.28,368.42,285.46Z"/><path class="cls-2" d="M369.21,286l-11.08-.32,5.12-8.54.45.38c2.24,1.88,3.87,5,5.17,7.74Zm-9.35-1.27,7.75.22a22,22,0,0,0-4.12-6.27Z"/><path class="cls-1" d="M367.26,300.9l4.25-7.09-7.85-.22,4.81-8c2.26,4.83,4.41,10.7,7.81,15.59Z"/><path class="cls-2" d="M377.25,301.69l-10.86-.31,4.25-7.09-7.85-.22,5.73-9.56.4.85c.57,1.22,1.13,2.51,1.71,3.83a68.17,68.17,0,0,0,6.05,11.69Zm-9.13-1.26,7.19.21a52.64,52.64,0,0,1-3.5-6.37Zm-3.6-7.31,6.85.19c-.57-1.24-1.12-2.49-1.66-3.72-.44-1-.87-2-1.31-2.95Z"/><rect class="cls-2" x="186.82" y="505.03" width="168.07" height="1"/><path class="cls-5" d="M453.39,421.86V422a30.69,30.69,0,1,1-57-15.86Z"/><rect class="cls-2" x="400.87" y="505.03" width="6.13" height="1"/><rect class="cls-2" x="560.2" y="505.03" width="18.47" height="1"/><rect class="cls-2" x="412.76" y="505.03" width="132.41" height="1"/><polygon class="cls-2" points="413.78 416.9 407.51 423.65 416.49 425.71 413.78 416.9"/><polygon class="cls-2" points="432.56 421.2 426.29 427.95 435.27 430.01 432.56 421.2"/><polygon class="cls-2" points="421.45 428.4 417.61 432.54 423.11 433.8 421.45 428.4"/><path class="cls-2" d="M422.77,443.16a19.88,19.88,0,0,1-7.8-1.65c-6.78-2.93-11.22-9.23-10.81-15.33l.08-1.24.8,1a29.72,29.72,0,0,0,9,7c.73.38,1.52.76,2.34,1.12.33.15.65.28,1,.4a34.18,34.18,0,0,0,5.46,1.69,31.71,31.71,0,0,0,3.59.55c.84.08,1.67.12,2.47.12a19.51,19.51,0,0,0,5.61-.76l1.19-.36-.61,1.08C432.84,440.76,428.23,443.16,422.77,443.16Z"/><path class="cls-2" d="M404.66,426.21a30.22,30.22,0,0,0,9.19,7.15c.76.4,1.56.78,2.37,1.13.34.15.67.29,1,.41a34.56,34.56,0,0,0,5.52,1.71,32.33,32.33,0,0,0,3.65.56c.86.08,1.7.12,2.52.12a20,20,0,0,0,5.75-.78c-2.22,3.94-6.78,6.15-11.89,6.15a19.25,19.25,0,0,1-7.61-1.61c-6.78-2.93-10.9-9.07-10.51-14.84m-.83-2.54-.17,2.48c-.43,6.31,4.14,12.81,11.11,15.83a20.38,20.38,0,0,0,8,1.69c5.64,0,10.41-2.49,12.77-6.66l1.22-2.17-2.38.72a19,19,0,0,1-5.47.74c-.79,0-1.6,0-2.42-.12a31.44,31.44,0,0,1-3.54-.54A33.55,33.55,0,0,1,417.6,434c-.37-.13-.68-.27-1-.4-.81-.35-1.58-.72-2.31-1.1a29.21,29.21,0,0,1-8.89-6.91l-1.6-1.9Z"/><path class="cls-5" d="M412.15,437.48l1.39-4.85.54.29c.73.38,1.51.76,2.33,1.11.33.15.65.28,1,.4l.45.16-1.2,4.18Z"/><path class="cls-2" d="M413.85,433.36c.76.4,1.56.78,2.37,1.13.34.15.67.29,1,.41l-.93,3.25-3.53-1,1.08-3.78m-.62-1.46-.34,1.18-1.08,3.78-.27,1,1,.28,3.53,1,1,.28.28-1,.93-3.25.26-.9-.89-.31c-.32-.11-.64-.25-.94-.38-.81-.35-1.58-.72-2.31-1.1l-1.09-.57Z"/><path class="cls-5" d="M421.42,439.44l1-3.42.46.1a31.74,31.74,0,0,0,3.59.55l.6.06-1.14,4Z"/><path class="cls-2" d="M422.75,436.61a32.33,32.33,0,0,0,3.65.56l-.84,2.94-3.52-1,.71-2.49m-.71-1.17-.26.9-.71,2.49-.27,1,1,.28,3.52,1,1,.28.28-1,.84-2.94.33-1.16-1.2-.11a31.44,31.44,0,0,1-3.54-.54l-.91-.19Z"/><rect class="cls-2" x="474.7" y="337.17" width="80.78" height="1"/><rect class="cls-2" x="480.75" y="424.01" width="33.68" height="1"/><polygon class="cls-4" points="295.34 505.97 281.19 498.81 281.19 498.5 280.75 468.54 285.32 458.02 286.24 458.42 281.76 468.74 282.18 498.19 295.79 505.08 295.34 505.97"/><rect class="cls-2" x="360.3" y="180.76" width="1" height="10.81" transform="translate(75.35 474.88) rotate(-72.62)"/><rect class="cls-2" x="362.19" y="174.73" width="1" height="10.8" transform="translate(82.35 472.37) rotate(-72.6)"/><rect class="cls-4" x="395.06" y="209.97" width="1" height="33.62" transform="translate(-57.07 171.79) rotate(-22.9)"/><rect class="cls-2" x="206.51" y="365.85" width="1" height="18.19"/><rect class="cls-2" x="197.91" y="374.45" width="18.19" height="1"/><rect class="cls-2" x="206.51" y="368.31" width="1" height="13.27" transform="translate(-204.5 256.2) rotate(-45)"/><rect class="cls-2" x="200.37" y="374.45" width="13.27" height="1" transform="translate(-204.5 256.2) rotate(-45)"/><ellipse class="cls-2" cx="207.01" cy="362.83" rx="1.06" ry="1.48"/><ellipse class="cls-2" cx="207.01" cy="387.06" rx="1.06" ry="1.48"/><ellipse class="cls-2" cx="219.12" cy="374.95" rx="1.48" ry="1.06"/><ellipse class="cls-2" cx="194.89" cy="374.95" rx="1.48" ry="1.06"/><rect class="cls-2" x="469.8" y="268.79" width="1" height="18.19"/><rect class="cls-2" x="461.2" y="277.39" width="18.19" height="1"/><rect class="cls-2" x="469.8" y="271.25" width="1" height="13.27" transform="translate(-58.75 413.94) rotate(-45)"/><rect class="cls-2" x="463.66" y="277.39" width="13.27" height="1" transform="translate(-58.75 413.94) rotate(-45)"/><ellipse class="cls-2" cx="482.41" cy="277.89" rx="1.48" ry="1.06"/><ellipse class="cls-2" cx="458.18" cy="277.89" rx="1.48" ry="1.06"/><rect class="cls-2" x="578.17" y="436.9" width="1" height="15.09"/><rect class="cls-2" x="574" y="443.95" width="9.35" height="1"/><rect class="cls-2" x="285.22" y="224.93" width="1" height="11.54"/><rect class="cls-2" x="282.15" y="230.2" width="7.14" height="1"/><circle class="cls-4" cx="210.17" cy="255.81" r="4.37"/><circle class="cls-4" cx="227.33" cy="239.29" r="2.07"/><circle class="cls-4" cx="408" cy="486.19" r="2.73"/><circle class="cls-4" cx="416.77" cy="480.1" r="1.78"/><circle class="cls-4" cx="596.13" cy="359.06" r="3.81"/><circle class="cls-4" cx="611.41" cy="368.78" r="1.77"/><circle class="cls-4" cx="545.07" cy="488.83" r="2.65"/><circle class="cls-4" cx="398.64" cy="319.98" r="2.23"/></svg>