<svg id="layer" xmlns="http://www.w3.org/2000/svg" viewBox="0 0 800 600"><defs><style>.cls-1{fill:#fff0dc;}.cls-2{fill:#4b0062;}.cls-3{fill:#f48001;}.cls-4{fill:#a26bb4;}.cls-5{fill:#f44b1b;}</style></defs><title>Halloween Witch &amp;amp; Magic Pot</title><rect class="cls-1" width="800" height="600"/><rect class="cls-2" x="216.13" y="217.29" width="97.25" height="64.86" transform="matrix(0.99, -0.16, 0.16, 0.99, -36.4, 45.36)"/><path class="cls-2" d="M221.5,290.05l-.08-.49L211,225l97-15.65.08.49,10.41,64.53Zm-9.34-64.19,10.17,63,95-15.33-10.17-63Z"/><rect class="cls-1" x="219.4" y="213.95" width="90.31" height="64.86" transform="translate(-35.87 45.29) rotate(-9.17)"/><path class="cls-2" d="M224.73,286.17l-.08-.49-10.41-64.53,90.14-14.54.08.49,10.41,64.53ZM215.39,222l10.17,63,88.17-14.23-10.17-63Z"/><polygon class="cls-1" points="500.27 356.97 447.74 328.92 359.16 281.63 371.05 247.66 348.67 247.66 380.39 220.96 419.94 107.93 422.4 100.89 468.23 100.89 434.58 118.96 452.35 183.35 482.86 293.89 483.85 297.46 500.27 356.97"/><path class="cls-2" d="M501.06,358,358.54,281.87l11.8-33.71h-23L380,220.66,422,100.39h48.17l-35.05,18.82ZM359.77,281.39,499.47,356,434,118.71l32.25-17.32H422.75l-2.34,6.71L380.81,221.25,350,247.16h21.72Z"/><polygon class="cls-3" points="500.27 356.97 447.74 328.92 447.74 293.89 482.86 293.89 483.85 297.46 500.27 356.97"/><path class="cls-2" d="M501.06,358l-53.82-28.74V293.39h36l1.09,3.94Zm-52.82-29.34L499.47,356l-17-61.59H448.24Z"/><polygon class="cls-2" points="473.27 301.54 500.27 356.97 447.73 356.97 466.37 301.54 473.27 301.54"/><path class="cls-2" d="M501.07,357.47H447L466,301h7.57Zm-52.64-1h51L473,302h-6.23Z"/><polygon class="cls-3" points="483.85 297.46 440.2 297.46 414.27 208.84 462.88 221.5 483.85 297.46"/><path class="cls-2" d="M484.5,298H439.82l-.1-.36-26.18-89.47,49.74,13,.08.28Zm-43.93-1h42.62l-20.72-75L415,209.54Z"/><rect class="cls-2" x="431.41" y="187.02" width="1" height="112.7" transform="translate(-50.96 131.06) rotate(-16.31)"/><rect class="cls-2" x="438.95" y="187.02" width="1" height="112.7" transform="translate(-50.65 133.17) rotate(-16.31)"/><rect class="cls-2" x="446.5" y="187.02" width="1" height="112.7" transform="translate(-50.35 135.29) rotate(-16.31)"/><rect class="cls-2" x="454.04" y="187.02" width="1" height="112.7" transform="translate(-50.05 137.41) rotate(-16.31)"/><rect class="cls-2" x="468.76" y="185.99" width="1" height="163.84" transform="translate(-56.34 142.52) rotate(-16.31)"/><polygon class="cls-2" points="452.35 183.35 462.88 221.5 387.1 201.77 419.94 107.93 422.4 100.89 468.23 100.89 434.58 118.96 452.35 183.35"/><path class="cls-2" d="M463.59,222.2l-77.14-20.08.18-.51L422,100.39h48.17l-35.05,18.82Zm-75.84-20.78,74.42,19.38L434,118.71l32.25-17.32H422.75Z"/><polygon class="cls-4" points="461.01 214.73 389.12 196.01 393.55 183.35 456.9 199.84 461.01 214.73"/><path class="cls-2" d="M461.72,215.43l-73.25-19.07,4.76-13.61,64.07,16.68Zm-72-19.77L460.29,214l-3.8-13.78-62.62-16.3Z"/><rect class="cls-2" x="418.56" y="104.51" width="1" height="211.15" transform="translate(110.16 562.69) rotate(-75.41)"/><path class="cls-2" d="M383.2,261.72a28.56,28.56,0,0,1-8.52-1.47l.31-1c4,1.3,11.46,2.88,16.28-1.12,3.64-3,5-8.64,3.91-16.69l1-.13c1.09,8.41-.34,14.32-4.26,17.58A13.32,13.32,0,0,1,383.2,261.72Z"/><circle class="cls-2" cx="395.27" cy="226.21" r="4.65"/><path class="cls-2" d="M410.06,219.88c-2.44-6.85-11.27-10.62-17.27-9.3l-.21-1c6.51-1.44,15.78,2.51,18.42,9.94Z"/><ellipse class="cls-2" cx="323.63" cy="195.07" rx="0.95" ry="1.32"/><ellipse class="cls-2" cx="323.63" cy="216.67" rx="0.95" ry="1.32"/><ellipse class="cls-2" cx="334.43" cy="205.87" rx="1.32" ry="0.95"/><ellipse class="cls-2" cx="312.84" cy="205.87" rx="1.32" ry="0.95"/><rect class="cls-2" x="323.13" y="197.76" width="1" height="16.21"/><rect class="cls-2" x="315.52" y="205.37" width="16.21" height="1"/><line class="cls-1" x1="327.81" y1="210.05" x2="319.45" y2="201.69"/><rect class="cls-2" x="323.13" y="199.96" width="1" height="11.82" transform="translate(-50.78 289.13) rotate(-45)"/><line class="cls-1" x1="319.45" y1="210.05" x2="327.81" y2="201.69"/><rect class="cls-2" x="317.72" y="205.37" width="11.82" height="1" transform="translate(-50.78 289.14) rotate(-45)"/><ellipse class="cls-2" cx="227.81" cy="183.49" rx="1.03" ry="0.74"/><ellipse class="cls-2" cx="210.91" cy="183.49" rx="1.03" ry="0.74"/><rect class="cls-2" x="218.86" y="177.14" width="1" height="12.69"/><rect class="cls-2" x="213.02" y="182.98" width="12.69" height="1"/><line class="cls-1" x1="222.63" y1="186.76" x2="216.09" y2="180.21"/><rect class="cls-2" x="218.86" y="178.86" width="1" height="9.25" transform="translate(-65.5 208.84) rotate(-45)"/><line class="cls-1" x1="216.09" y1="186.76" x2="222.63" y2="180.21"/><rect class="cls-2" x="214.74" y="182.99" width="9.25" height="1" transform="translate(-65.49 208.85) rotate(-45)"/><ellipse class="cls-2" cx="259.99" cy="310.09" rx="1.15" ry="0.83"/><ellipse class="cls-2" cx="241.17" cy="310.09" rx="1.15" ry="0.83"/><rect class="cls-2" x="250.08" y="303.02" width="1" height="14.14"/><rect class="cls-2" x="243.52" y="309.59" width="14.13" height="1"/><line class="cls-1" x1="254.23" y1="313.73" x2="246.94" y2="306.44"/><rect class="cls-2" x="250.08" y="304.93" width="1" height="10.31" transform="translate(-145.87 268.01) rotate(-45)"/><line class="cls-1" x1="246.94" y1="313.73" x2="254.23" y2="306.44"/><rect class="cls-2" x="245.43" y="309.59" width="10.31" height="1" transform="translate(-145.87 268.01) rotate(-45)"/><path class="cls-5" d="M543.48,301.54H466.37l17.88,63.31H344.47l30.37-61.33-30.37-27.8h199a60.21,60.21,0,0,1,1.33,12.91A59.48,59.48,0,0,1,543.48,301.54Z"/><path class="cls-2" d="M484.91,365.35H343.66l30.56-61.71-31-28.42H543.89l.09.39a61,61,0,0,1,1.34,13,60.31,60.31,0,0,1-1.35,13l-.09.39H467Zm-139.63-1H483.58L465.71,301h77.37a59.79,59.79,0,0,0,1.24-12.41,60.42,60.42,0,0,0-1.23-12.41H345.75l29.7,27.18Z"/><path class="cls-1" d="M544.82,288.63a59.48,59.48,0,0,1-1.34,12.91H518.3V275.72h25.19A60.21,60.21,0,0,1,544.82,288.63Z"/><path class="cls-2" d="M543.88,302H517.8V275.22h26.09l.09.39a61,61,0,0,1,1.34,13,60.31,60.31,0,0,1-1.35,13Zm-25.08-1h24.28a59.79,59.79,0,0,0,1.24-12.41,60.42,60.42,0,0,0-1.23-12.41H518.8Z"/><polygon class="cls-2" points="421.95 275.72 421.52 276.46 415.93 286.07 370.11 364.85 344.47 364.85 374.84 303.52 344.47 275.72 421.95 275.72"/><path class="cls-2" d="M370.39,365.35H343.66l30.56-61.71-31-28.42h79.63l-6.46,11.1Zm-25.12-1h24.55l51.26-88.13H345.75l29.7,27.18Z"/><polygon class="cls-2" points="463.82 275.72 443.67 287.92 434.72 282.62 424.11 276.33 423.09 275.72 463.82 275.72"/><path class="cls-2" d="M443.67,288.5l-22.39-13.28h44.33ZM424.9,276.22l18.76,11.12L462,276.22Z"/><rect class="cls-2" x="534.03" y="280.97" width="10.45" height="1"/><rect class="cls-2" x="534.03" y="288.13" width="10.79" height="1"/><rect class="cls-2" x="534.03" y="295.29" width="10.45" height="1"/><polygon class="cls-2" points="419.53 298.94 418.55 298.75 422.7 276.73 426.84 298.75 425.86 298.94 422.7 282.13 419.53 298.94"/><path class="cls-3" d="M502.2,371.51s29.89-89.36,31.38-98.29c1.15-6.87,6.72-32.64,9.23-44.18a12.62,12.62,0,0,1,6.32-8.41l25.26-13.69a9.76,9.76,0,0,1,13.74,5l8.26,21.17a11.47,11.47,0,0,1-2.62,12.33l-16.37,16.18a4.38,4.38,0,0,1-6.41-.26c-2.68-3.13-6.25-7.69-7.13-10.74-1.46-5,3.35-.78,7.68-.31s7.37,2.32,8.52-9.7,1.49-20.18-1.5-19.62c-6.64,1.25-20.62,4.86-23.05,7.63s-6.95,8.89-10.34,25.5c-3.61,17.67-31.22,112.74-31.71,112.14Z"/><path class="cls-2" d="M501.36,372.45l.37-1.1c.3-.89,29.9-89.43,31.37-98.22,1.15-6.91,6.84-33.22,9.24-44.21a13.11,13.11,0,0,1,6.57-8.75l25.26-13.69a10.26,10.26,0,0,1,14.44,5.29L596.86,233a12,12,0,0,1-2.74,12.86L577.76,262a5,5,0,0,1-3.64,1.41,4.83,4.83,0,0,1-3.5-1.7c-2.8-3.27-6.33-7.82-7.23-10.92-.42-1.45-.38-2.3.13-2.76.74-.68,2-.17,3.83.54a17.09,17.09,0,0,0,4.25,1.27c.46,0,.9.11,1.32.17,1.63.24,2.93.42,3.94-.37,1.36-1.07,2.22-3.95,2.71-9.06.58-6,1.65-17.19-.23-18.9a.72.72,0,0,0-.68-.18c-7,1.31-20.54,4.93-22.77,7.47-1.63,1.86-6.6,7.5-10.23,25.27-1.54,7.53-7.87,30.95-16.94,62.64-3.58,12.5-7.23,25-10,34.42-4.49,15.08-4.72,15.36-5.09,15.46ZM579,206.25a9.26,9.26,0,0,0-4.41,1.12l-25.26,13.69a12.12,12.12,0,0,0-6.07,8.08c-2.39,11-8.08,37.27-9.23,44.16-1.41,8.44-27.45,86.54-31,97.27l10.08-4.67C514.72,362,541,272.26,544.69,254c3.68-18,8.78-23.82,10.45-25.73,2.74-3.11,18.06-6.8,23.34-7.79a1.72,1.72,0,0,1,1.54.42c1.88,1.72,1.62,8.54.55,19.74-.53,5.48-1.48,8.49-3.09,9.75-1.35,1.06-3,.82-4.7.57-.42-.06-.84-.12-1.29-.17A17.85,17.85,0,0,1,567,249.5c-1.06-.42-2.49-1-2.79-.73,0,0-.26.29.16,1.74.85,2.93,4.29,7.35,7,10.55a3.88,3.88,0,0,0,5.68.23l16.37-16.18a11,11,0,0,0,2.51-11.79l-8.26-21.17a9.26,9.26,0,0,0-8.62-5.89Z"/><path class="cls-2" d="M571.36,223.12a.5.5,0,0,1-.45-.72c1.78-3.55,3.32-8.84.58-13.9a.5.5,0,1,1,.88-.48c2.33,4.3,2.13,9.43-.57,14.82A.5.5,0,0,1,571.36,223.12Z"/><path class="cls-2" d="M584.75,228a12.45,12.45,0,0,1-4-.68.5.5,0,1,1,.33-.95c3.41,1.17,8.36,1,11.07-3.38a.5.5,0,1,1,.85.53A9.3,9.3,0,0,1,584.75,228Z"/><path class="cls-2" d="M582.53,235.11q-1,0-2-.09a.5.5,0,0,1-.45-.54.49.49,0,0,1,.54-.45c5.91.56,10.58-1.47,13.52-5.84a.5.5,0,0,1,.83.56A14.25,14.25,0,0,1,582.53,235.11Z"/><path class="cls-2" d="M579,247.35a.5.5,0,0,1,0-1c8.78-.11,14.08-5.05,16.21-15.12a.5.5,0,0,1,1,.21c-2.21,10.45-8,15.81-17.18,15.92Z"/><path class="cls-2" d="M559.66,226.77a.5.5,0,0,1-.33-.12,51,51,0,0,1-7.25-7.54.5.5,0,0,1,.8-.59,50,50,0,0,0,7.1,7.38.5.5,0,0,1-.33.88Z"/><path class="cls-2" d="M555.61,229.06a.5.5,0,0,1-.49-.38c-.79-3.24-3.62-5.09-8.67-5.65a.5.5,0,0,1-.46-.45.5.5,0,0,1,.44-.55h.11c5.52.61,8.64,2.71,9.54,6.41a.5.5,0,0,1-.37.6Z"/><path class="cls-2" d="M550.35,237.48a.5.5,0,0,1-.27-.08,28.75,28.75,0,0,0-8.38-3.32.5.5,0,1,1,.26-1,29.63,29.63,0,0,1,8.67,3.45.5.5,0,0,1-.27.92Z"/><path class="cls-2" d="M534.76,267.46a.49.49,0,0,1-.5-.45h0a.5.5,0,0,1,.19-.44,72.65,72.65,0,0,0,9.64-9.6.5.5,0,1,1,.76.65,73.78,73.78,0,0,1-9.75,9.71.49.49,0,0,1-.3.14Z"/><path class="cls-2" d="M522.39,310.61a.5.5,0,0,1-.18-1c3.72-1.4,6.82-2.77,8.76-3.67a.5.5,0,1,1,.42.91c-2,.91-5.07,2.29-8.82,3.7A.49.49,0,0,1,522.39,310.61Z"/><path class="cls-2" d="M519.05,320.92a.5.5,0,0,1-.24-.94c3-1.61,6.22-3.28,9.57-5a.5.5,0,0,1,.45.89c-3.34,1.7-6.55,3.37-9.55,5A.48.48,0,0,1,519.05,320.92Z"/><path class="cls-2" d="M511.48,344a.5.5,0,0,1-.25-.93c3.54-2,5.88-4.91,8.08-10,2.49-5.74,5-11.14,7.81-14.05a.5.5,0,1,1,.71.7c-2.73,2.79-5.15,8.1-7.6,13.75-2.29,5.28-4.75,8.3-8.5,10.44A.5.5,0,0,1,511.48,344Z"/><path class="cls-2" d="M414,286.86a3.87,3.87,0,0,1-3.3-1.46h0a4.07,4.07,0,0,1-.14-4.05,10.71,10.71,0,0,1,8.3-5.93,3.66,3.66,0,0,1,3.93,5.49,10.7,10.7,0,0,1-8.3,5.93Zm5.36-10.46-.42,0a9.72,9.72,0,0,0-7.46,5.33,3.12,3.12,0,0,0,0,3.08h0a3.11,3.11,0,0,0,2.9,1,9.72,9.72,0,0,0,7.46-5.33,3.12,3.12,0,0,0,0-3.08A2.91,2.91,0,0,0,419.34,276.39Z"/><path class="cls-2" d="M431.4,286.86l-.49,0a10.7,10.7,0,0,1-8.3-5.93,3.66,3.66,0,0,1,3.93-5.49,10.71,10.71,0,0,1,8.3,5.93,4.07,4.07,0,0,1-.14,4.05h0A3.87,3.87,0,0,1,431.4,286.86ZM426,276.39a2.91,2.91,0,0,0-2.49,1,3.12,3.12,0,0,0,0,3.08,9.72,9.72,0,0,0,7.46,5.33,3.12,3.12,0,0,0,2.9-1h0a3.12,3.12,0,0,0,0-3.08,9.72,9.72,0,0,0-7.46-5.33Z"/><path class="cls-4" d="M414,286.86a3.88,3.88,0,0,1-3.29-1.46,3.56,3.56,0,0,1-.54-2.71,8.91,8.91,0,0,1,3.8-5.37c2.74-2,6-2.49,7.83-1.28l-.54.84c-1.51-1-4.33-.45-6.71,1.26a8,8,0,0,0-3.4,4.72,2.58,2.58,0,0,0,.36,2c.73,1,2.37,1.31,4.29.77l.27,1A7.74,7.74,0,0,1,414,286.86Z"/><path class="cls-4" d="M434.23,282.71a8,8,0,0,0-3.37-4.58c-2.28-1.63-5-2.19-6.51-1.37l-.47-.88c1.91-1,5-.44,7.57,1.44a9,9,0,0,1,3.77,5.2Z"/><path class="cls-1" d="M394.35,305.93h32.14a7.76,7.76,0,0,1,7.76,7.76v17.09a0,0,0,0,1,0,0H394.35a0,0,0,0,1,0,0V305.93A0,0,0,0,1,394.35,305.93Z"/><path class="cls-2" d="M434.74,331.27H393.85V305.43h32.64a8.26,8.26,0,0,1,8.26,8.26Zm-39.89-1h38.89V313.68a7.26,7.26,0,0,0-7.26-7.26H394.85Z"/><rect class="cls-2" x="417.31" y="317.41" width="1" height="13.36"/><rect class="cls-2" x="422.79" y="317.41" width="1" height="13.36"/><rect class="cls-2" x="428.26" y="317.41" width="1" height="13.36"/><path class="cls-1" d="M414.39,320.8h3.42v10h-2.9a20.91,20.91,0,1,1-.52-10Z"/><path class="cls-2" d="M394.35,348.3a21.44,21.44,0,1,1,20.41-28h3.55v11h-3A21.45,21.45,0,0,1,394.35,348.3Zm0-41.87a20.44,20.44,0,1,0,20.07,24.25l.08-.41h2.81v-9H414l-.11-.36A20.57,20.57,0,0,0,394.35,306.43Z"/><rect class="cls-1" x="434.24" y="320.8" width="9.22" height="9.97"/><path class="cls-2" d="M444,331.27H433.74v-11H444Zm-9.22-1H443v-9h-8.22Z"/><path class="cls-4" d="M444.35,332.73l-2.74,11.33a2.81,2.81,0,0,0,2.74,3.48h0a2.81,2.81,0,0,0,2.74-3.48Z"/><path class="cls-2" d="M444.35,348a3.32,3.32,0,0,1-3.22-4.09l3.22-13.34,3.22,13.34a3.32,3.32,0,0,1-3.22,4.09Zm0-13.17-2.25,9.31a2.3,2.3,0,0,0,.43,2,2.39,2.39,0,0,0,3.64,0,2.3,2.3,0,0,0,.43-2Z"/><circle class="cls-4" cx="467.71" cy="342.41" r="5.12"/><path class="cls-2" d="M467.71,348a5.62,5.62,0,1,1,5.62-5.62A5.63,5.63,0,0,1,467.71,348Zm0-10.24a4.62,4.62,0,1,0,4.62,4.62A4.62,4.62,0,0,0,467.71,337.79Z"/><circle class="cls-4" cx="340.15" cy="333.14" r="6.99"/><path class="cls-2" d="M340.15,340.63a7.49,7.49,0,1,1,7.49-7.49A7.5,7.5,0,0,1,340.15,340.63Zm0-14a6.49,6.49,0,1,0,6.49,6.49A6.5,6.5,0,0,0,340.15,326.65Z"/><circle class="cls-4" cx="321.2" cy="314.93" r="4"/><path class="cls-2" d="M321.2,319.43a4.5,4.5,0,1,1,4.5-4.5A4.51,4.51,0,0,1,321.2,319.43Zm0-8a3.5,3.5,0,1,0,3.5,3.5A3.5,3.5,0,0,0,321.2,311.43Z"/><circle class="cls-4" cx="326.79" cy="301.53" r="2.24"/><path class="cls-2" d="M326.79,304.28a2.74,2.74,0,1,1,2.74-2.74A2.74,2.74,0,0,1,326.79,304.28Zm0-4.48a1.74,1.74,0,1,0,1.74,1.74A1.74,1.74,0,0,0,326.79,299.79Z"/><circle class="cls-4" cx="474.74" cy="327.56" r="3.15"/><path class="cls-2" d="M474.74,331.21a3.65,3.65,0,1,1,3.65-3.65A3.65,3.65,0,0,1,474.74,331.21Zm0-6.3a2.65,2.65,0,1,0,2.65,2.65A2.65,2.65,0,0,0,474.74,324.91Z"/><rect class="cls-2" x="210.99" y="294.95" width="1" height="11.81"/><rect class="cls-2" x="205.59" y="300.35" width="11.81" height="1"/><rect class="cls-2" x="206.61" y="194.55" width="1" height="8.6"/><rect class="cls-2" x="202.82" y="198.34" width="8.6" height="1"/><path class="cls-2" d="M510.47,376.36l-.7,1a86.78,86.78,0,0,1,6,31.71c0,49.76-41.92,90.09-93.63,90.09S328.49,458.78,328.49,409a86.78,86.78,0,0,1,6-31.71h0l-.7-1L323.21,362a3.15,3.15,0,0,1,2.54-5H518.48a3.15,3.15,0,0,1,2.54,5Z"/><path class="cls-2" d="M422.11,499.61C370.21,499.61,328,459,328,409a87.13,87.13,0,0,1,5.9-31.63l-11.08-15.11a3.65,3.65,0,0,1,2.94-5.82H518.48a3.65,3.65,0,0,1,2.94,5.82l-11.09,15.1A87.11,87.11,0,0,1,516.24,409C516.24,459,474,499.61,422.11,499.61ZM334.7,376.81h.48l-.26.68A86.12,86.12,0,0,0,329,409c0,49.4,41.77,89.59,93.12,89.59s93.13-40.19,93.13-89.59a86.11,86.11,0,0,0-5.94-31.53l-.1-.26.86-1.17,10.55-14.37a2.65,2.65,0,0,0-2.14-4.22H325.75a2.65,2.65,0,0,0-2.14,4.22Z"/><rect class="cls-4" x="334.45" y="376.81" width="175.32" height="1"/><path class="cls-2" d="M565.84,499.61h-273a.5.5,0,0,1,0-1h273a.5.5,0,0,1,0,1Z"/><path class="cls-4" d="M475.69,357v60.11a7.23,7.23,0,0,1-14.45,0V378.73a4.41,4.41,0,1,1-8.82,0V357Z"/><path class="cls-2" d="M468.46,424.8a7.73,7.73,0,0,1-7.72-7.72V381.69a4.91,4.91,0,0,1-8.82-3V356.47h24.27v60.61A7.73,7.73,0,0,1,468.46,424.8Zm-6.72-46.07v38.35a6.73,6.73,0,0,0,13.45,0V357.47H452.92v21.26a3.91,3.91,0,0,0,7.82,0Z"/><path class="cls-4" d="M432.7,357v33.49a5.3,5.3,0,0,1-10.59,0V357Z"/><path class="cls-2" d="M427.4,396.25a5.8,5.8,0,0,1-5.79-5.79v-34H433.2v34A5.8,5.8,0,0,1,427.4,396.25Zm-4.79-38.78v33a4.79,4.79,0,0,0,9.59,0v-33Z"/><polygon class="cls-5" points="259.92 214.28 271.48 278.12 231.38 272.46 221.64 204.26 259.92 214.28"/><path class="cls-2" d="M272.09,278.71l-41.16-5.8-.05-.37L221,203.59l39.32,10.29ZM231.82,272l39,5.5-11.38-62.84-37.24-9.75Z"/><polygon class="cls-1" points="245.91 224.97 247.21 239.93 237.37 237.1 235.97 221.35 245.91 224.97"/><path class="cls-2" d="M247.77,240.61l-10.86-3.12-1.5-16.88,11,4Zm-9.93-3.89,8.81,2.53-1.2-13.92-8.9-3.24Z"/><rect class="cls-2" x="247.23" y="233.06" width="1" height="25.31" transform="translate(-43.44 437.98) rotate(-78.2)"/><rect class="cls-2" x="247.55" y="237.12" width="1" height="25.31" transform="translate(-47.17 441.52) rotate(-78.2)"/><rect class="cls-2" x="252.68" y="229.5" width="1" height="5.42" transform="translate(-25.89 432.57) rotate(-78.2)"/><rect class="cls-2" x="252.68" y="233.84" width="1" height="5.42" transform="translate(-30.13 436.02) rotate(-78.2)"/><rect class="cls-2" x="247.86" y="241.19" width="1" height="25.31" transform="translate(-50.9 445.06) rotate(-78.2)"/><rect class="cls-2" x="248.18" y="245.26" width="1" height="25.31" transform="translate(-54.63 448.61) rotate(-78.2)"/><line class="cls-1" x1="301.41" y1="249.6" x2="276.8" y2="253.57"/><rect class="cls-2" x="276.64" y="251.09" width="24.93" height="1" transform="translate(-36.55 49.54) rotate(-9.21)"/><line class="cls-1" x1="302.46" y1="254.56" x2="277.85" y2="258.53"/><rect class="cls-2" x="277.69" y="256.04" width="24.93" height="1" transform="translate(-37.33 49.77) rotate(-9.21)"/><line class="cls-1" x1="303.51" y1="259.52" x2="278.9" y2="263.49"/><rect class="cls-2" x="278.74" y="261" width="24.93" height="1" transform="translate(-38.11 50) rotate(-9.21)"/><path class="cls-4" d="M278.26,243.07a11.77,11.77,0,0,1-3.81-8.65h1a10.76,10.76,0,0,0,3.48,7.92Z"/><path class="cls-4" d="M276.17,230.56l-.93-.36a11.85,11.85,0,0,1,6-6.44l.42.91A10.84,10.84,0,0,0,276.17,230.56Z"/><path class="cls-4" d="M296.44,231.22a10.81,10.81,0,0,0-6.46-6.85l.35-.94a11.82,11.82,0,0,1,7.06,7.49Z"/><path class="cls-4" d="M286.19,246.15v-1a10.75,10.75,0,0,0,10.74-10.74h1A11.75,11.75,0,0,1,286.19,246.15Z"/><circle class="cls-4" cx="285.55" cy="223.18" r="1.29"/><path class="cls-4" d="M285.55,225a1.79,1.79,0,1,1,1.79-1.79A1.79,1.79,0,0,1,285.55,225Zm0-2.58a.79.79,0,1,0,.79.79A.79.79,0,0,0,285.55,222.39Z"/><circle class="cls-4" cx="281.68" cy="244.82" r="1.29"/><path class="cls-4" d="M281.68,246.61a1.79,1.79,0,1,1,1.79-1.79A1.79,1.79,0,0,1,281.68,246.61Zm0-2.58a.79.79,0,1,0,.79.79A.79.79,0,0,0,281.68,244Z"/><path class="cls-4" d="M417.81,326.09v2.33h-5.25a18,18,0,0,1-.34,2.35,18.29,18.29,0,0,1-36.15-3.91c0-.26,0-.52,0-.77Z"/><path class="cls-2" d="M394.35,345.65a18.81,18.81,0,0,1-18.78-18.79c0-.27,0-.53,0-.79l0-.48h42.7v3.33H413a17,17,0,0,1-.31,2A18.89,18.89,0,0,1,394.35,345.65Zm-17.78-19.06q0,.13,0,.27a17.79,17.79,0,0,0,35.16,3.8,17.36,17.36,0,0,0,.33-2.29l0-.46h5.21v-1.33Z"/><rect class="cls-4" x="434.24" y="326.09" width="9.22" height="2.33"/><path class="cls-2" d="M444,328.92H433.74v-3.33H444Zm-9.22-1H443v-1.33h-8.22Z"/><rect class="cls-4" x="348.67" y="355.87" width="26.37" height="1"/><rect class="cls-4" x="482.02" y="356.47" width="18.25" height="1"/><rect class="cls-2" x="545.58" y="386.65" width="1" height="18.19"/><rect class="cls-2" x="536.99" y="395.25" width="18.19" height="1"/><rect class="cls-2" x="545.58" y="389.11" width="1" height="13.27" transform="translate(-119.89 502.09) rotate(-45)"/><rect class="cls-2" x="539.45" y="395.25" width="13.27" height="1" transform="translate(-119.89 502.05) rotate(-45)"/><ellipse class="cls-2" cx="546.08" cy="383.63" rx="1.06" ry="1.48"/><ellipse class="cls-2" cx="546.08" cy="407.86" rx="1.06" ry="1.48"/><ellipse class="cls-2" cx="558.2" cy="395.75" rx="1.48" ry="1.06"/><ellipse class="cls-2" cx="533.97" cy="395.75" rx="1.48" ry="1.06"/><rect class="cls-2" x="495.33" y="249.56" width="1" height="11.54"/><rect class="cls-2" x="492.25" y="254.83" width="7.14" height="1"/><circle class="cls-4" cx="555.42" cy="345.1" r="4.37"/><circle class="cls-4" cx="572.58" cy="328.59" r="2.07"/></svg>