<svg id="layer" xmlns="http://www.w3.org/2000/svg" viewBox="0 0 800 600"><defs><style>.cls-1{fill:#fff0dc;}.cls-2{fill:#f44b1b;}.cls-3{fill:#4b0062;}.cls-4{fill:#f48001;}.cls-5{fill:#a26bb4;}</style></defs><title>Halloween Zombie</title><rect class="cls-1" width="800" height="600"/><path class="cls-2" d="M251,178.55a2.5,2.5,0,0,1-2.11-1.15c-1.24-1.94-3.41-3.94-9.17-2.19a9.37,9.37,0,0,1-8.16-1,10,10,0,0,1-4.14-7.62,2.5,2.5,0,0,1,5-.4,5.07,5.07,0,0,0,2,3.88,4.42,4.42,0,0,0,3.89.39c6.71-2,11.71-.61,14.84,4.27a2.5,2.5,0,0,1-2.1,3.85Z"/><path class="cls-3" d="M251,179.05a3,3,0,0,1-2.53-1.38c-1.22-1.9-3.2-3.63-8.6-2a9.87,9.87,0,0,1-8.58-1.11,10.51,10.51,0,0,1-4.36-8,3,3,0,0,1,2.75-3.23,3,3,0,0,1,3.23,2.75,4.58,4.58,0,0,0,1.76,3.51,3.94,3.94,0,0,0,3.46.32c7-2.12,12.14-.61,15.4,4.48a3,3,0,0,1-2.52,4.62Zm-7.37-5a6.22,6.22,0,0,1,5.68,3.08,2,2,0,0,0,2.76.6,2,2,0,0,0,.6-2.76c-3-4.67-7.8-6-14.27-4.07a4.9,4.9,0,0,1-4.31-.45,5.56,5.56,0,0,1-2.19-4.25,2,2,0,1,0-4,.32,9.52,9.52,0,0,0,3.93,7.24,8.88,8.88,0,0,0,7.73,1A14,14,0,0,1,243.66,174Z"/><path class="cls-1" d="M291.52,440.54a5.71,5.71,0,0,0-3-3.92l-1.51-.76,18.42-36.53-7.15-3.61-18.42,36.53-1.51-.76a5.7,5.7,0,1,0,1.82,8.73l.26.13a5.7,5.7,0,1,0,11.11.19Z"/><path class="cls-3" d="M285.94,447.91a6.21,6.21,0,0,1-6.18-6.58A6.2,6.2,0,1,1,278.56,431l1.06.54L298,395l8,4.06-18.42,36.53,1.06.54a6.19,6.19,0,0,1,3.28,4.26h0a6.21,6.21,0,0,1-6.07,7.47ZM280,439.59l1,.49-.1.39a5.2,5.2,0,1,0,7.39-3.4l-2-1,18.42-36.53-6.26-3.16-18.42,36.53-2-1a5.2,5.2,0,1,0,1.66,8Z"/><path class="cls-4" d="M277.38,189v24.22H181.24V197.12a8.13,8.13,0,0,1,8.13-8.13Z"/><path class="cls-3" d="M277.88,213.71H180.73V197.13a8.64,8.64,0,0,1,8.63-8.63h88.52Zm-96.15-1h95.15V189.5H189.37a7.64,7.64,0,0,0-7.63,7.63Z"/><path class="cls-5" d="M219.88,205l-6,4,6,4-.19.15H181.24V197.12a8.13,8.13,0,0,1,8.13-8.13h30.48l-6,4,6,4-6,4Z"/><path class="cls-3" d="M219.87,213.71H180.73V197.13a8.64,8.64,0,0,1,8.63-8.63h32.13L214.78,193l6,4-6,4,6,4-6,4,6,4Zm-38.13-1h36.73L213,209l6-4-6-4,6-4-6-4,5.21-3.49H189.37a7.64,7.64,0,0,0-7.63,7.63Z"/><path class="cls-4" d="M386.16,433.22l-5.81-27.78-6.53-31.28L366.5,339.1H347.9l0,.12L308.4,422.87l-2.3-7.57-7.65,3-2.38-7.85-7.65,2.94L286,405.5l-7.64,2.94,0-.15L310.21,340l.54-1.16.1-.2,6-13,5.86-12.56.08-.17-.16-125.26,31,2.24a41.13,41.13,0,0,1,38,36.81l8.93,85.92,1.35,13,1.5,14.49,9.67,93,1.81,17.4H371.69l.74-5.41A13.86,13.86,0,0,1,386.16,433.22Z"/><path class="cls-3" d="M415.49,451.13H371.11l.82-6a14.43,14.43,0,0,1,13.62-12.41L366.09,339.6H348.23L308.3,424.26l-2.52-8.3-7.65,3-2.38-7.85L288.1,414l-2.39-7.84-7.63,2.94-.28-.84.08-.18,44.44-95.24-.16-125.69,31.56,2.28a41.63,41.63,0,0,1,38.44,37.26Zm-43.23-1h42.12L391.18,226.8a40.66,40.66,0,0,0-37.52-36.36l-30.48-2.2.16,124.83-.13.27-44,94.25,7.13-2.74,2.39,7.84,7.65-2.94,2.38,7.85,7.65-3,2.08,6.84,38.94-82.58.13-.31H366.9l19.88,95.12h-.62a13.42,13.42,0,0,0-13.24,11.56Z"/><path class="cls-3" d="M386.16,433.22l-5.81-27.78-6.53-31.28L366.5,339.1H347.9l0,.12L308.4,422.87l-2.3-7.57-7.65,3-2.38-7.85-7.65,2.94L286,405.5l-7.64,2.94,0-.15L310.21,340l.54-1.16.1-.2,6-13,5.86-12.56,4.88-6,4.83,6,4.84-6,4.84,6,4.83-6,4.84,6,4.84-6,4.83,6,4.84-6,4.84,6,4.83-6,4.84,6,4.83-6,4.84,6,4.84-6,5.26,5.49,1.35,13,1.5,14.49,9.67,93,1.81,17.4H371.69l.74-5.41A13.86,13.86,0,0,1,386.16,433.22Z"/><path class="cls-5" d="M387.74,212.94l-6.3,6.48-2.94-11.17-6.42-2.11,4.39-1.87-9.84-5.78,7.89-1.1A41.23,41.23,0,0,1,387.74,212.94Z"/><path class="cls-3" d="M381.18,220.41l-3.1-11.76-7.42-2.44,4.7-2-10.22-6,9.51-1.33.16.11a41.84,41.84,0,0,1,13.38,15.74l.15.32Zm-7.68-14.32,5.42,1.78,2.78,10.58,5.44-5.59a40.85,40.85,0,0,0-12.74-14.93l-6.27.87,9.46,5.55Z"/><path class="cls-5" d="M344.36,206.74c0,11.92-12,19.78-12,19.78v13.83a16.29,16.29,0,0,1-16.29,16.29H271a16.28,16.28,0,0,1-16.28-16.29V221.41A12.74,12.74,0,0,1,242,208.66V188.44a39.08,39.08,0,0,1,39.08-39.07h21.55a5.9,5.9,0,0,1,5.9,5.9h2.87a9.65,9.65,0,0,1,9.65,9.64,10.34,10.34,0,0,1,10.3,9.4l.13,1.31,2,21.47S344.36,196.59,344.36,206.74Z"/><path class="cls-3" d="M316.08,257.15H271a16.8,16.8,0,0,1-16.78-16.79V221.9a13.26,13.26,0,0,1-12.75-13.23V188.44a39.62,39.62,0,0,1,39.58-39.57h21.55a6.41,6.41,0,0,1,6.38,5.9h2.39a10.16,10.16,0,0,1,10.14,9.65,10.84,10.84,0,0,1,10.31,9.84l.13,1.31,2,21c1.37,0,5.33.32,8.1,3a9.52,9.52,0,0,1,2.76,7.2c0,11.13-10.32,18.86-12,20v13.57A16.81,16.81,0,0,1,316.08,257.15Zm-35-107.27a38.62,38.62,0,0,0-38.58,38.57v20.22a12.26,12.26,0,0,0,12.25,12.24h.5v19.45A15.8,15.8,0,0,0,271,256.15h45a15.81,15.81,0,0,0,15.79-15.79v-14.1l.23-.15c.12-.08,11.76-7.86,11.76-19.36a8.56,8.56,0,0,0-2.45-6.47c-3-2.87-7.79-2.69-7.84-2.68l-.48,0-2.23-23.25a9.84,9.84,0,0,0-9.8-8.95h-.5v-.5a9.16,9.16,0,0,0-9.15-9.14H308v-.5a5.41,5.41,0,0,0-5.4-5.4Z"/><path class="cls-1" d="M331.5,175.62H305.71a11.16,11.16,0,0,1-11.16-11.16V149.37h8.09a5.9,5.9,0,0,1,5.9,5.9h2.87a9.65,9.65,0,0,1,9.65,9.64,10.34,10.34,0,0,1,10.3,9.4Z"/><path class="cls-3" d="M332,176.13H305.71a11.67,11.67,0,0,1-11.66-11.66V148.88h8.59a6.41,6.41,0,0,1,6.38,5.9h2.39a10.16,10.16,0,0,1,10.14,9.65,10.84,10.84,0,0,1,10.31,9.84Zm-37-26.25v14.59a10.67,10.67,0,0,0,10.66,10.66h25.23l-.08-.76a9.84,9.84,0,0,0-9.8-8.95h-.5v-.5a9.16,9.16,0,0,0-9.15-9.14H308v-.5a5.41,5.41,0,0,0-5.4-5.4Z"/><rect class="cls-3" x="188.92" y="198.62" width="1" height="14.59"/><rect class="cls-3" x="197.11" y="198.62" width="1" height="14.59"/><polyline class="cls-4" points="378.23 229.42 367.25 263.7 365.44 269.32 359.5 287.93 332.13 287.93 332.33 287.27 339.88 263.7 353.41 221.49"/><polygon class="cls-3" points="359.86 288.43 331.44 288.43 331.86 287.12 352.93 221.34 353.88 221.64 332.81 287.43 359.13 287.43 377.75 229.26 378.71 229.57 359.86 288.43"/><path class="cls-4" d="M367.25,263.71l-1.8,5.62-5.95,18.6H282.41V271.84a8.13,8.13,0,0,1,8.13-8.13h49.34"/><path class="cls-3" d="M359.86,288.42H281.92V271.83a8.64,8.64,0,0,1,8.63-8.63h49.34v1H290.54a7.64,7.64,0,0,0-7.63,7.63v15.59h76.21l7.64-23.87,1,.3Z"/><path class="cls-5" d="M321.07,271.62l-6,4,6,4-6,3.95,6,4-.66.5h-38V271.84a8.13,8.13,0,0,1,8.13-8.13h30.52l-6,3.95Z"/><path class="cls-3" d="M320.57,288.42H281.92V271.83a8.64,8.64,0,0,1,8.63-8.63h30.62l.89.44-.71.49L316,267.67l6,4-6,3.95,6,3.95-6,4,6,3.92Zm-37.66-1h37.24l-6-3.95,6-4-6-3.95,6-4-6-4,5.25-3.46H290.54a7.64,7.64,0,0,0-7.63,7.63Z"/><rect class="cls-3" x="290.1" y="273.33" width="1" height="14.59"/><rect class="cls-3" x="298.29" y="273.33" width="1" height="14.59"/><circle class="cls-3" cx="265.35" cy="199.91" r="10.59"/><path class="cls-3" d="M310,199.91a10.59,10.59,0,0,1-21.18,0c0-.25,0-.5,0-.74H310C310,199.41,310,199.66,310,199.91Z"/><path class="cls-3" d="M299.38,211a11.1,11.1,0,0,1-11.09-11.08c0-.25,0-.51,0-.75l0-.48h22.1l0,.48c0,.25,0,.51,0,.76A11.1,11.1,0,0,1,299.38,211ZM289.3,199.67q0,.12,0,.24a10.09,10.09,0,0,0,20.18,0q0-.12,0-.24Z"/><path class="cls-1" d="M306.87,199.91a7.49,7.49,0,0,1-15,0,6.11,6.11,0,0,1,0-.74h14.89A6.11,6.11,0,0,1,306.87,199.91Z"/><path class="cls-3" d="M299.38,207.9a8,8,0,0,1-8-8,6.56,6.56,0,0,1,0-.8l.05-.44h15.78l.05.44a6.64,6.64,0,0,1,0,.8A8,8,0,0,1,299.38,207.9Zm-7-8.22c0,.08,0,.16,0,.24a7,7,0,0,0,14,0c0-.08,0-.16,0-.24Z"/><rect class="cls-3" x="286.67" y="198.67" width="25.41" height="1"/><path class="cls-3" d="M301.93,242.37v0a3.14,3.14,0,0,1,0,.53,5.36,5.36,0,0,1-5.39,4.68,5.48,5.48,0,0,1-3.65-1.38,4.46,4.46,0,0,1-.63-.67,5.73,5.73,0,0,0-7.46,0,3.88,3.88,0,0,0-.66.69,5.47,5.47,0,0,1-3.63,1.36,5.33,5.33,0,0,1-5.41-5.21v0a3.47,3.47,0,0,1,0-.57,7.57,7.57,0,0,1,.6-2.39,9.88,9.88,0,0,1,3-3.82,14.68,14.68,0,0,1,5.85-2.69,17.84,17.84,0,0,1,3.92-.43l.78,0a16.57,16.57,0,0,1,7,1.8,12,12,0,0,1,3.79,3,8.26,8.26,0,0,1,1.88,4.49C301.9,242,301.93,242.17,301.93,242.37Z"/><path class="cls-3" d="M296.5,248.13a6,6,0,0,1-4-1.51,4.88,4.88,0,0,1-.69-.74,5.26,5.26,0,0,0-6.73.07,3.45,3.45,0,0,0-.59.62l-.07.07a6,6,0,0,1-4,1.49,5.83,5.83,0,0,1-5.91-5.71,4.21,4.21,0,0,1,0-.7,8,8,0,0,1,.63-2.51,10.43,10.43,0,0,1,3.17-4,15.24,15.24,0,0,1,6.05-2.79,18.65,18.65,0,0,1,4.83-.42,17.12,17.12,0,0,1,7.16,1.86A12.55,12.55,0,0,1,300.4,237a8.71,8.71,0,0,1,2,4.76v.18c0,.14,0,.28,0,.43v0a3.68,3.68,0,0,1,0,.62A5.85,5.85,0,0,1,296.5,248.13Zm-8-4.43a6.1,6.1,0,0,1,4.06,1.51,4.9,4.9,0,0,0,.63.67,5,5,0,0,0,3.32,1.26,4.86,4.86,0,0,0,4.89-4.24,2.76,2.76,0,0,0,0-.47v0c0-.12,0-.25,0-.36v-.18a7.72,7.72,0,0,0-1.77-4.2,11.54,11.54,0,0,0-3.63-2.89,16.11,16.11,0,0,0-6.74-1.74,17.74,17.74,0,0,0-4.57.4A14.23,14.23,0,0,0,279,236a9.42,9.42,0,0,0-2.87,3.62,7.09,7.09,0,0,0-.56,2.24,3.27,3.27,0,0,0,0,.53,4.84,4.84,0,0,0,4.91,4.76,5,5,0,0,0,3.26-1.2,4.35,4.35,0,0,1,.71-.74A6.08,6.08,0,0,1,288.5,243.71Z"/><polygon class="cls-3" points="287.51 227.51 282.57 227.51 280.31 220.66 278.05 227.51 273.11 227.51 280.31 205.71 287.51 227.51"/><polygon class="cls-5" points="365.44 269.32 359.5 287.93 329.86 287.93 332.33 287.27 340.51 285.12 348.32 279.35 343.76 274.63 354.18 275.36 354.9 267.06 360.36 272.6 365.44 269.32"/><path class="cls-3" d="M359.86,288.42H326l14.32-3.77,7.27-5.37L342.5,274l11.22.79.78-8.88,5.92,6,5.92-3.8Zm-26.13-1h25.4l5.42-16.93-4.26,2.74-5-5-.68,7.7-9.6-.67,4.05,4.19-8.44,6.19Z"/><path class="cls-2" d="M414.94,450.62H371.69l.74-5.41a13.86,13.86,0,0,1,13.74-12h27Z"/><path class="cls-3" d="M415.49,451.13H371.11l.82-6a14.43,14.43,0,0,1,14.24-12.42h27.41Zm-43.23-1h42.12l-1.71-16.4H386.17a13.42,13.42,0,0,0-13.24,11.56Z"/><polygon class="cls-5" points="390.64 400.38 391 408.06 384.31 403.58 380.36 405.44 373.82 374.17 380.29 384.48 387.35 377.64 388.42 385.45 395.56 385.45 391.37 394.13 398.69 397.96 390.64 400.38"/><path class="cls-3" d="M391.55,409l-7.29-4.86-4.27,2-7.23-34.64,7.62,12.16,7.33-7.09,1.14,8.36h7.5l-4.33,9,8,4.18-8.84,2.65Zm-7.2-6,6.11,4.08-.33-7.08,7.24-2.17-6.66-3.5,4.05-8.39H388l-1-7.27-6.79,6.57-5.3-8.46,5.83,27.92Z"/><path class="cls-3" d="M315.56,175.88l-.86-.5a8,8,0,0,1,9.15-3.92l-.22,1A7,7,0,0,0,315.56,175.88Z"/><rect class="cls-3" x="301.04" y="169.42" width="6.98" height="1" transform="translate(-38.93 230.31) rotate(-39.13)"/><path class="cls-3" d="M313.55,169.41c-3.94,0-5.81-.43-6.65-1.55-1-1.28-.42-3.26.42-6.24l.1-.34,1,.27-.1.34c-.76,2.7-1.26,4.48-.58,5.37s2.36,1.15,5.86,1.15Z"/><path class="cls-3" d="M298.66,169.25l-.74-.67c2.73-3,3.84-5.66,3.3-7.81-.61-2.42-3.16-3.65-4.63-4.17l.33-.94c1.65.59,4.54,2,5.26,4.86C302.82,163,301.63,166,298.66,169.25Z"/><path class="cls-1" d="M300,237.31l-2,4.36-4.28-2,2.51-5.39A12,12,0,0,1,300,237.31Z"/><path class="cls-3" d="M298.24,242.34l-5.19-2.41,2.94-6.32.46.24A12.54,12.54,0,0,1,300.4,237l.2.24Zm-3.86-2.9,3.37,1.57,1.68-3.62a11.5,11.5,0,0,0-3-2.4Z"/><path class="cls-1" d="M289.69,237.83l-4.7.37-.42-5.29a17.84,17.84,0,0,1,3.92-.43l.78,0Z"/><path class="cls-3" d="M284.54,238.73l-.49-6.22.42-.1a18.65,18.65,0,0,1,4.83-.42l.44,0,.49,6.27Zm.57-5.43.35,4.35,3.7-.29-.35-4.39A16.69,16.69,0,0,0,285.11,233.3Z"/><path class="cls-1" d="M282,240l-3.77,2.83-2.56-3.42a9.88,9.88,0,0,1,3-3.82Z"/><path class="cls-3" d="M278.17,243.54l-3-4.05.11-.26a10.43,10.43,0,0,1,3.17-4l.4-.32,3.92,5.22Zm-1.88-4.19,2.08,2.78,3-2.23-2.69-3.59A9.36,9.36,0,0,0,276.28,239.35Z"/><path class="cls-5" d="M562.74,377.1v73.53H482.55V377.1a40.1,40.1,0,1,1,80.19,0Z"/><path class="cls-3" d="M563.24,451.13H482v-74a40.6,40.6,0,1,1,81.19,0Zm-80.19-1h79.19v-73a39.6,39.6,0,0,0-79.19,0Z"/><path class="cls-5" d="M522.64,348.43h0A29.36,29.36,0,0,1,552,377.78v66.46a0,0,0,0,1,0,0H493.29a0,0,0,0,1,0,0V377.78a29.36,29.36,0,0,1,29.36-29.36Z"/><path class="cls-3" d="M552.5,444.74H492.79v-67a29.86,29.86,0,0,1,59.71,0Zm-58.71-1H551.5v-66a28.86,28.86,0,0,0-57.71,0Z"/><circle class="cls-1" cx="522.64" cy="378.11" r="6.11"/><path class="cls-3" d="M522.64,384.73a6.61,6.61,0,1,1,6.61-6.61A6.62,6.62,0,0,1,522.64,384.73Zm0-12.23a5.61,5.61,0,1,0,5.61,5.61A5.62,5.62,0,0,0,522.64,372.5Z"/><rect class="cls-3" x="503.09" y="398.42" width="39.09" height="1"/><rect class="cls-3" x="503.09" y="406.12" width="39.09" height="1"/><rect class="cls-3" x="515.41" y="418.63" width="14.46" height="1"/><rect class="cls-5" x="472.8" y="441.16" width="103.65" height="9.47"/><path class="cls-3" d="M576.95,451.13H472.3V440.66H576.95Zm-103.65-1H575.95v-8.47H473.3Z"/><rect class="cls-3" x="238.31" y="450.13" width="380.45" height="1"/><circle class="cls-3" cx="425.9" cy="425.06" r="3.5"/><path class="cls-3" d="M425.9,429.07a4,4,0,1,1,4-4A4,4,0,0,1,425.9,429.07Zm0-7a3,3,0,1,0,3,3A3,3,0,0,0,425.9,422.06Z"/><path class="cls-3" d="M460.37,444.53a7.67,7.67,0,0,0-4.93,1.8,21.37,21.37,0,0,0-37.33-3.81,11.8,11.8,0,0,0-18.49,8.11h68.24A7.66,7.66,0,0,0,460.37,444.53Z"/><path class="cls-3" d="M468.47,451.13H399l.07-.57a12.34,12.34,0,0,1,12.21-10.71,12.21,12.21,0,0,1,6.65,2,21.88,21.88,0,0,1,37.67,3.71,8.15,8.15,0,0,1,12.7,5Zm-68.27-1h67a7.15,7.15,0,0,0-11.46-3.42l-.53.44-.25-.65a20.86,20.86,0,0,0-36.44-3.72l-.29.42-.42-.29a11.22,11.22,0,0,0-6.5-2.07A11.34,11.34,0,0,0,400.2,450.13Z"/><path class="cls-3" d="M573.21,433.22a16.59,16.59,0,0,0-16.15,12.83,8.68,8.68,0,0,0-10.85.2,13.25,13.25,0,0,0-24.81,4.37h68.4c0-.27,0-.53,0-.8A16.6,16.6,0,0,0,573.21,433.22Z"/><path class="cls-3" d="M590.29,451.13H520.83l.08-.57a13.75,13.75,0,0,1,25.45-5,9.15,9.15,0,0,1,10.39-.28,17.1,17.1,0,0,1,33.57,4.6c0,.28,0,.54,0,.82Zm-68.29-1h67.33c0-.1,0-.2,0-.3a16.1,16.1,0,0,0-31.78-3.66l-.17.75-.61-.47a8.18,8.18,0,0,0-10.23.19l-.47.38-.29-.53A12.75,12.75,0,0,0,522,450.13Z"/><path class="cls-3" d="M310.47,237.74h-1V222.59l.47,0c.4,0,9.74-.72,11-9.42l1,.14c-1.17,8.34-9.36,9.95-11.42,10.22Z"/><path class="cls-3" d="M337,212.06c-1,2-3,4.08-6.37,5.63V204.24c2.76-.42,4.88.44,6,2A5.52,5.52,0,0,1,337,212.06Z"/><path class="cls-3" d="M330.15,218.48V203.82l.42-.06c2.77-.42,5.15.36,6.5,2.15a6,6,0,0,1,.39,6.38c-.77,1.64-2.55,4-6.61,5.87Zm1-13.79V216.9a11.31,11.31,0,0,0,5.42-5h0a5,5,0,0,0-.28-5.34A5.47,5.47,0,0,0,331.15,204.69Z"/><rect class="cls-3" x="243.5" y="169.52" width="1" height="5.03" transform="translate(-6.65 9.84) rotate(-2.28)"/><rect class="cls-3" x="237.81" y="170.44" width="1" height="5.09" transform="translate(-5.97 8.54) rotate(-2.03)"/><rect class="cls-3" x="230.48" y="171.6" width="5.06" height="1" transform="translate(-50.09 233.47) rotate(-48.68)"/><rect class="cls-3" x="228" y="168.38" width="5.04" height="1" transform="translate(-52.46 129.06) rotate(-28.22)"/><path class="cls-1" d="M348.21,198.11c-1.64,1.24-2.61,3.11-3.73,5.28-1.57,3-3.38,6.53-7.47,8.67a18,18,0,0,1-6.37,1.83v-5a10.28,10.28,0,0,0,6-2.68A18.68,18.68,0,0,0,340,201.1c1.28-2.48,2.61-5,5.15-7a2.5,2.5,0,0,1,3,4Z"/><path class="cls-3" d="M330.15,214.46v-6l.43-.06a9.85,9.85,0,0,0,5.75-2.54,18.08,18.08,0,0,0,3.26-5c1.31-2.54,2.66-5.15,5.3-7.15a3,3,0,1,1,3.62,4.79c-1.56,1.18-2.5,3-3.59,5.11-1.53,3-3.44,6.66-7.68,8.88a18.67,18.67,0,0,1-6.54,1.88Zm1-5.14v4a17.25,17.25,0,0,0,5.64-1.71c4-2.07,5.71-5.46,7.26-8.46,1.15-2.22,2.13-4.13,3.87-5.45h0a2,2,0,0,0-2.42-3.19c-2.46,1.87-3.76,4.38-5,6.8a19.12,19.12,0,0,1-3.47,5.24A10.55,10.55,0,0,1,331.15,209.31Z"/><rect class="cls-3" x="344.05" y="195.83" width="1" height="5.04" transform="translate(-36.44 311.94) rotate(-46.53)"/><rect class="cls-3" x="341.53" y="200.12" width="1" height="5.13" transform="translate(-34.75 329.6) rotate(-49.27)"/><rect class="cls-3" x="338.61" y="204.71" width="1" height="5.1" transform="translate(-55.73 252.64) rotate(-37.99)"/><rect class="cls-3" x="334.84" y="207.57" width="1" height="5.05" transform="translate(-44.64 99.62) rotate(-15.86)"/><rect class="cls-3" x="411.78" y="156.13" width="1" height="18.19"/><rect class="cls-3" x="403.18" y="164.73" width="18.19" height="1"/><rect class="cls-3" x="411.78" y="158.6" width="1" height="13.27" transform="translate(3.91 339.91) rotate(-45)"/><rect class="cls-3" x="405.65" y="164.73" width="13.27" height="1" transform="translate(3.92 339.92) rotate(-45)"/><ellipse class="cls-3" cx="412.28" cy="153.12" rx="1.06" ry="1.48"/><ellipse class="cls-3" cx="412.28" cy="177.35" rx="1.06" ry="1.48"/><ellipse class="cls-3" cx="424.39" cy="165.23" rx="1.48" ry="1.06"/><ellipse class="cls-3" cx="400.16" cy="165.23" rx="1.48" ry="1.06"/><rect class="cls-3" x="593.08" y="403.37" width="1" height="18.19"/><rect class="cls-3" x="584.48" y="411.97" width="18.19" height="1"/><rect class="cls-3" x="593.08" y="405.83" width="1" height="13.27" transform="translate(-117.8 540.57) rotate(-45)"/><rect class="cls-3" x="586.94" y="411.97" width="13.27" height="1" transform="translate(-117.8 540.53) rotate(-45)"/><ellipse class="cls-3" cx="605.69" cy="412.47" rx="1.48" ry="1.06"/><ellipse class="cls-3" cx="581.46" cy="412.47" rx="1.48" ry="1.06"/><rect class="cls-3" x="224.14" y="251.36" width="1" height="15.09"/><rect class="cls-3" x="219.96" y="258.41" width="9.35" height="1"/><rect class="cls-3" x="207.75" y="271.23" width="1" height="11.54"/><rect class="cls-3" x="204.68" y="276.5" width="7.14" height="1"/><circle class="cls-5" cx="265.68" cy="356.73" r="4.37"/><circle class="cls-5" cx="282.84" cy="340.22" r="2.07"/><circle class="cls-5" cx="442.08" cy="260.06" r="5.5"/><circle class="cls-5" cx="460.31" cy="270.94" r="2.39"/><circle class="cls-5" cx="570.47" cy="343.76" r="4.21"/><circle class="cls-5" cx="470.33" cy="416" r="2.47"/></svg>